<svg xmlns="http://www.w3.org/2000/svg" width="125" height="125" viewBox="0 0 125 125">
  <g id="Grupo_1169575" data-name="Grupo 1169575" transform="translate(-1115 -1770.5)">
    <g id="Grupo_1162816" data-name="Grupo 1162816" transform="translate(0.16 -3144.179)">
      <circle id="Elipse_11496" data-name="Elipse 11496" cx="62.5" cy="62.5" r="62.5" transform="translate(1114.84 4914.679)" fill="#fff"/>
    </g>
    <path id="conversion" d="M78.029,27.4H65.6a7.261,7.261,0,1,0-10.559,0H45.459a7.261,7.261,0,0,0-14.341,0H20.574a1.142,1.142,0,0,0-1.142,1.142v8.229a1.142,1.142,0,0,0,.334.807L44.118,61.949v5.369a11.749,11.749,0,1,0,10.657.148V61.66L78.837,37.583a1.142,1.142,0,0,0,.334-.807V28.547A1.142,1.142,0,0,0,78.029,27.4Zm-22.69-4.977A4.977,4.977,0,1,1,60.316,27.4,4.982,4.982,0,0,1,55.339,22.428ZM38.288,23.57A4.984,4.984,0,0,1,43.131,27.4H33.445A4.984,4.984,0,0,1,38.288,23.57Zm38.6,6.119v5.944H21.716V29.689ZM58.766,77.856A9.464,9.464,0,1,1,49.3,68.392,9.474,9.474,0,0,1,58.766,77.856ZM52.825,60.379a1.142,1.142,0,0,0-.334.807v5.365a11.724,11.724,0,0,0-6.089-.08v-5a1.142,1.142,0,0,0-.334-.807L23.331,37.918H75.273Zm-3.587,9.141a1.149,1.149,0,0,1,1.169,1.115l.018.764a4.618,4.618,0,0,1,2.582,1.622A1.142,1.142,0,1,1,51.1,74.276a3.177,3.177,0,0,0-1.8-.765,1.655,1.655,0,1,0,0,3.253,4.092,4.092,0,0,1,4.243,3.911,3.98,3.98,0,0,1-3.078,3.761l.014.585a1.142,1.142,0,0,1-1.114,1.169h-.028A1.142,1.142,0,0,1,48.2,85.077l-.015-.617a4.906,4.906,0,0,1-2.258-1.375,1.142,1.142,0,1,1,1.568-1.662,2.29,2.29,0,0,0,1.81.879,1.655,1.655,0,1,0,0-3.253,4.092,4.092,0,0,1-4.243-3.911,3.98,3.98,0,0,1,3.081-3.762l-.016-.687A1.142,1.142,0,0,1,49.238,69.521ZM82.343,9A7.261,7.261,0,1,0,89.6,16.261,7.269,7.269,0,0,0,82.343,9Zm0,12.237a4.977,4.977,0,1,1,4.977-4.977A4.982,4.982,0,0,1,82.343,21.237ZM23.522,16.261a7.261,7.261,0,1,0-7.261,7.261A7.269,7.269,0,0,0,23.522,16.261Zm-7.261,4.977a4.977,4.977,0,1,1,4.977-4.977A4.982,4.982,0,0,1,16.261,21.237Z" transform="translate(1128 1783.5)" fill="#8f85b2"/>
  </g>
</svg>
