<svg xmlns="http://www.w3.org/2000/svg" width="85" height="85" viewBox="0 0 85 85">
  <g id="Grupo_1169581" data-name="Grupo 1169581" transform="translate(-1125 -3989.5)">
    <circle id="Elipse_11504" data-name="Elipse 11504" cx="42.5" cy="42.5" r="42.5" transform="translate(1125 3989.5)" fill="#ffd256"/>
    <g id="calendario" transform="translate(1144.591 4010.5)">
      <path id="Trazado_1014362" data-name="Trazado 1014362" d="M45.573,27.632V4.349a1.418,1.418,0,0,0-1.418-1.418H36.969V1.418a1.418,1.418,0,1,0-2.836,0V2.931H28.459V1.418a1.418,1.418,0,0,0-2.836,0V2.931H19.95V1.418a1.418,1.418,0,0,0-2.836,0V2.931H11.44V1.418a1.418,1.418,0,1,0-2.836,0V2.931H1.418A1.418,1.418,0,0,0,0,4.349V41.318a1.418,1.418,0,0,0,1.418,1.418H25.037a12.759,12.759,0,1,0,20.536-15.1ZM8.6,5.767V7.186a1.418,1.418,0,1,0,2.836,0V5.767h5.673V7.186a1.418,1.418,0,0,0,2.836,0V5.767h5.673V7.186a1.418,1.418,0,1,0,2.836,0V5.767h5.673V7.186a1.418,1.418,0,1,0,2.836,0V5.767h5.767V11.44H2.836V5.767ZM2.836,39.9V14.277h39.9v10.76a12.749,12.749,0,0,0-17.8,3.669,1.41,1.41,0,0,0-.637-.153H21.463a1.418,1.418,0,0,0,0,2.836h2.148a12.658,12.658,0,0,0-.651,2.836h-1.5a1.418,1.418,0,1,0,0,2.836h1.5a12.638,12.638,0,0,0,.651,2.836Zm32.809,5.673a9.928,9.928,0,1,1,9.928-9.928A9.939,9.939,0,0,1,35.645,45.573Zm0,0" fill="#7e682a"/>
      <path id="Trazado_1014363" data-name="Trazado 1014363" d="M369.091,307.673h-4.255v-4.255a1.418,1.418,0,1,0-2.836,0v5.673a1.418,1.418,0,0,0,1.418,1.418h5.673a1.418,1.418,0,1,0,0-2.836Zm0,0" transform="translate(-327.773 -273.446)" fill="#7e682a"/>
      <path id="Trazado_1014364" data-name="Trazado 1014364" d="M95.255,182H92.418a1.418,1.418,0,1,0,0,2.836h2.836a1.418,1.418,0,0,0,0-2.836Zm0,0" transform="translate(-82.396 -164.792)" fill="#7e682a"/>
      <path id="Trazado_1014365" data-name="Trazado 1014365" d="M95.255,242H92.418a1.418,1.418,0,1,0,0,2.836h2.836a1.418,1.418,0,1,0,0-2.836Zm0,0" transform="translate(-82.396 -219.119)" fill="#7e682a"/>
      <path id="Trazado_1014366" data-name="Trazado 1014366" d="M95.255,302H92.418a1.418,1.418,0,1,0,0,2.836h2.836a1.418,1.418,0,0,0,0-2.836Zm0,0" transform="translate(-82.396 -273.446)" fill="#7e682a"/>
      <path id="Trazado_1014367" data-name="Trazado 1014367" d="M213.418,184.836h2.836a1.418,1.418,0,1,0,0-2.836h-2.836a1.418,1.418,0,1,0,0,2.836Zm0,0" transform="translate(-191.956 -164.792)" fill="#7e682a"/>
      <path id="Trazado_1014368" data-name="Trazado 1014368" d="M213.418,244.836h2.836a1.418,1.418,0,1,0,0-2.836h-2.836a1.418,1.418,0,1,0,0,2.836Zm0,0" transform="translate(-191.956 -219.119)" fill="#7e682a"/>
      <path id="Trazado_1014369" data-name="Trazado 1014369" d="M95.255,362H92.418a1.418,1.418,0,1,0,0,2.836h2.836a1.418,1.418,0,1,0,0-2.836Zm0,0" transform="translate(-82.396 -327.773)" fill="#7e682a"/>
      <path id="Trazado_1014370" data-name="Trazado 1014370" d="M333.418,184.836h2.836a1.418,1.418,0,1,0,0-2.836h-2.836a1.418,1.418,0,1,0,0,2.836Zm0,0" transform="translate(-300.61 -164.792)" fill="#7e682a"/>
    </g>
  </g>
</svg>
