<svg xmlns="http://www.w3.org/2000/svg" width="85" height="85" viewBox="0 0 85 85">
  <g id="Grupo_1169578" data-name="Grupo 1169578" transform="translate(-180 -3989.5)">
    <circle id="Elipse_11501" data-name="Elipse 11501" cx="42.5" cy="42.5" r="42.5" transform="translate(180 3989.5)" fill="#ffd256"/>
    <g id="_16-express" data-name="16-express" transform="translate(191 4006.568)">
      <g id="linear_color" data-name="linear color" transform="translate(0)">
        <path id="Trazado_1014371" data-name="Trazado 1014371" d="M180.151,19l1.328-1.328a1.238,1.238,0,1,0-1.751-1.751L178.346,17.3a18.514,18.514,0,0,0-8.06-3.847V10.6h1.238a1.238,1.238,0,0,0,1.238-1.238V5.238A1.238,1.238,0,0,0,171.524,4h-9.9a1.238,1.238,0,0,0-1.238,1.238V9.365a1.238,1.238,0,0,0,1.238,1.238h1.238v2.85A18.514,18.514,0,0,0,154.8,17.3l-1.382-1.382a1.238,1.238,0,1,0-1.751,1.751L152.992,19a18.571,18.571,0,1,0,27.159,0ZM162.857,6.476h7.429V8.127h-7.429Zm2.476,4.127h2.476v2.518c-.409-.027-.822-.042-1.238-.042s-.829.015-1.238.042Zm1.238,37.143a16.1,16.1,0,1,1,16.1-16.1A16.113,16.113,0,0,1,166.571,47.746Z" transform="translate(-133.143 -4)" fill="#7e682a"/>
        <path id="Trazado_1014372" data-name="Trazado 1014372" d="M209.619,140a13.619,13.619,0,1,0,13.619,13.619A13.634,13.634,0,0,0,209.619,140Zm11.074,12.381h-9.836v-9.836A11.164,11.164,0,0,1,220.693,152.381Zm-11.074,12.381a11.143,11.143,0,0,1-1.238-22.217v11.074a1.238,1.238,0,0,0,1.238,1.238h11.074A11.158,11.158,0,0,1,209.619,164.762Z" transform="translate(-176.19 -125.968)" fill="#7e682a"/>
        <path id="Trazado_1014373" data-name="Trazado 1014373" d="M53.492,188H45.238a1.238,1.238,0,0,0,0,2.476h8.254a1.238,1.238,0,0,0,0-2.476Z" transform="translate(-39.873 -169.016)" fill="#7e682a"/>
        <path id="Trazado_1014374" data-name="Trazado 1014374" d="M38.73,285.238A1.238,1.238,0,0,0,37.492,284H29.238a1.238,1.238,0,0,0,0,2.476h8.254A1.238,1.238,0,0,0,38.73,285.238Z" transform="translate(-25.524 -255.111)" fill="#7e682a"/>
        <path id="Trazado_1014375" data-name="Trazado 1014375" d="M67.016,332H61.238a1.238,1.238,0,0,0,0,2.476h5.778a1.238,1.238,0,0,0,0-2.476Z" transform="translate(-54.222 -298.159)" fill="#7e682a"/>
        <path id="Trazado_1014376" data-name="Trazado 1014376" d="M17.206,237.238A1.238,1.238,0,0,0,15.968,236H5.238a1.238,1.238,0,0,0,0,2.476h10.73A1.238,1.238,0,0,0,17.206,237.238Z" transform="translate(-4 -212.063)" fill="#7e682a"/>
      </g>
    </g>
  </g>
</svg>
