<svg xmlns="http://www.w3.org/2000/svg" width="125" height="125" viewBox="0 0 125 125">
  <g id="Grupo_1169576" data-name="Grupo 1169576" transform="translate(4622 9890)">
    <circle id="Elipse_11499" data-name="Elipse 11499" cx="62.5" cy="62.5" r="62.5" transform="translate(-4622 -9890)" fill="#fff"/>
    <path id="fidelizacion-del-cliente" d="M28.872,18.423a38.185,38.185,0,0,0,21.266,69.9.979.979,0,0,1,0,1.958,40.139,40.139,0,0,1-22.6-73.308l-4.649-.357a.978.978,0,1,1,.145-1.95c.855.065,7.551.546,7.8.621a.978.978,0,0,1,.658,1.216l-2.128,7.07a.978.978,0,1,1-1.874-.558l1.381-4.588Zm22.2,31.561a.977.977,0,0,0-1.86-.006l-1.542,4.778-4.952-.01a.978.978,0,0,0-.645,1.767l4.067,2.943-1.561,4.773h0a.976.976,0,0,0,1.5,1.089l4.058-2.959,4,2.917A.978.978,0,0,0,55.7,64.229l-1.56-4.773,4.068-2.944v0a.977.977,0,0,0-.572-1.765l-5.023.01-1.54-4.772Zm-.1,6.046-.832-2.578-.832,2.578a.976.976,0,0,1-.929.677l-2.71-.005,2.2,1.589a.978.978,0,0,1,.356,1.093l-.843,2.578,2.174-1.586a.975.975,0,0,1,1.163-.012l2.19,1.6-.832-2.543a.978.978,0,0,1,.344-1.129l2.2-1.589-2.665.005a.976.976,0,0,1-.975-.677ZM40.423,67.9l-3.083,5.34,3.9-1.044a.978.978,0,0,1,1.2.692l1.044,3.9,3.081-5.337A13.743,13.743,0,0,1,40.424,67.9ZM34.472,74.3a.976.976,0,0,0,1.1,1.427v0l5.229-1.4,1.4,5.228a.978.978,0,0,0,1.826.17l4.564-7.9a13.922,13.922,0,0,0,3.1,0l4.58,7.932a.979.979,0,0,0,1.812-.2l1.4-5.228,5.229,1.4h0A.978.978,0,0,0,65.8,74.3L61.2,66.33a13.685,13.685,0,0,0,2.657-7.2H66.9a2.72,2.72,0,0,0,2.717-2.717V48.91a10.412,10.412,0,0,0-3.026-7.249,10.129,10.129,0,0,0-7.2-2.981H40.89a10.129,10.129,0,0,0-7.2,2.981,10.388,10.388,0,0,0-3.022,7.249l0,7.508a2.72,2.72,0,0,0,2.717,2.717h3.037a13.685,13.685,0,0,0,2.658,7.2Zm28.462-1.069-3.9-1.044a.978.978,0,0,0-1.2.692L56.8,76.776l-3.08-5.334A13.743,13.743,0,0,0,59.853,67.9l3.082,5.338Zm-12.8-26.877a11.8,11.8,0,1,0,11.8,11.8,11.8,11.8,0,0,0-11.8-11.8Zm-9.727,2.071a13.757,13.757,0,0,1,23.45,8.748H66.9a.762.762,0,0,0,.759-.759V48.91a8.289,8.289,0,0,0-8.269-8.272H40.89a8.289,8.289,0,0,0-8.272,8.272l0,7.508a.762.762,0,0,0,.759.759h3.036a13.712,13.712,0,0,1,3.995-8.748Zm9.727-30.992a9.317,9.317,0,1,0,9.317,9.317A9.317,9.317,0,0,0,50.139,17.436Zm5.2,4.113a7.359,7.359,0,1,0,0,10.407,7.359,7.359,0,0,0,0-10.407ZM71.4,81.855l1.381-4.589a.978.978,0,1,0-1.874-.558l-2.128,7.07a.978.978,0,0,0,.658,1.216c.253.075,6.949.557,7.8.621a.978.978,0,1,0,.145-1.95l-4.649-.357A40.139,40.139,0,0,0,50.139,10a.979.979,0,0,0,0,1.958A38.185,38.185,0,0,1,71.4,81.855Z" transform="translate(-4610 -9877)" fill="#8f85b2" fill-rule="evenodd"/>
  </g>
</svg>
