<svg xmlns="http://www.w3.org/2000/svg" width="85" height="85" viewBox="0 0 85 85">
  <g id="Grupo_1169579" data-name="Grupo 1169579" transform="translate(-495 -3989.5)">
    <circle id="Elipse_11502" data-name="Elipse 11502" cx="42.5" cy="42.5" r="42.5" transform="translate(495 3989.5)" fill="#ffd256"/>
    <g id="Exp-1.-O" transform="translate(476.667 3976.587)">
      <g id="Grupo_1163323" data-name="Grupo 1163323" transform="translate(37.5 28.517)">
        <path id="Trazado_1014381" data-name="Trazado 1014381" d="M64.327,113.5a21.631,21.631,0,0,1-2.883.192h-.035a1.022,1.022,0,1,0,0,2.043h.038a23.662,23.662,0,0,0,3.155-.21,1.022,1.022,0,0,0-.272-2.025Zm-7.752-.364a21.284,21.284,0,0,1-2.794-.855,1.022,1.022,0,0,0-.731,1.908,23.335,23.335,0,0,0,3.062.938,1.022,1.022,0,0,0,.462-1.99ZM71.7,111.083a21.351,21.351,0,0,1-2.655,1.221,1.021,1.021,0,1,0,.724,1.91,23.353,23.353,0,0,0,2.909-1.338,1.021,1.021,0,1,0-.978-1.793Zm-22.23-1.05a21.582,21.582,0,0,1-2.307-1.8A1.021,1.021,0,0,0,45.8,109.76a23.583,23.583,0,0,0,2.525,1.966,1.022,1.022,0,1,0,1.143-1.693Zm28.26-3.834a21.654,21.654,0,0,1-2.05,2.085,1.022,1.022,0,1,0,1.356,1.528,23.672,23.672,0,0,0,2.244-2.282,1.022,1.022,0,1,0-1.55-1.331Zm-33.808-1.593a21.5,21.5,0,0,1-1.522-2.5,1.021,1.021,0,0,0-1.813.942,23.509,23.509,0,0,0,1.667,2.733,1.022,1.022,0,0,0,1.668-1.18ZM81.635,99.5a21.345,21.345,0,0,1-1.176,2.675,1.022,1.022,0,1,0,1.81.948,23.369,23.369,0,0,0,1.289-2.931,1.022,1.022,0,0,0-1.922-.692ZM40.66,97.567a21.323,21.323,0,0,1-.529-2.874,1.021,1.021,0,1,0-2.03.232,23.361,23.361,0,0,0,.58,3.149,1.022,1.022,0,1,0,1.979-.507Zm42.233-5.725q0,.2,0,.4a21.639,21.639,0,0,1-.147,2.526A1.022,1.022,0,0,0,84.778,95a23.707,23.707,0,0,0,.161-2.764q0-.217,0-.432a1.022,1.022,0,1,0-2.043.037Zm-1.539-7.6a21.271,21.271,0,0,1,.9,2.779,1.022,1.022,0,0,0,1.982-.5,23.316,23.316,0,0,0-.989-3.046,1.021,1.021,0,1,0-1.9.763ZM77.2,77.687a21.577,21.577,0,0,1,1.834,2.277,1.022,1.022,0,1,0,1.674-1.171A23.668,23.668,0,0,0,78.7,76.3a1.022,1.022,0,1,0-1.5,1.387Z" transform="translate(-37.949 -64.338)" fill="#7e682a" fill-rule="evenodd"/>
        <path id="Trazado_1014382" data-name="Trazado 1014382" d="M39.684,72.451A21.466,21.466,0,0,1,61,48.527a1.021,1.021,0,1,0,0-2.043,23.509,23.509,0,0,0-23.341,26.2,1.022,1.022,0,0,0,2.03-.233Z" transform="translate(-37.5 -42.079)" fill="#7e682a" fill-rule="evenodd"/>
        <path id="Trazado_1014383" data-name="Trazado 1014383" d="M121.285,30.225l3.373,3.719-3.373,3.719a1.022,1.022,0,1,0,1.513,1.373l4-4.405a1.022,1.022,0,0,0,0-1.372l-4-4.4a1.021,1.021,0,0,0-1.513,1.372Z" transform="translate(-100.544 -28.517)" fill="#7e682a" fill-rule="evenodd"/>
        <path id="Trazado_1014384" data-name="Trazado 1014384" d="M115.846,93.442a1.022,1.022,0,0,0-1.022-1.022H100.043a1.022,1.022,0,0,0-1.021,1.022v3.2a8.123,8.123,0,0,0,4.2,7.114l4.035,2.224a1.021,1.021,0,0,0,1.019-.019l3.629-2.18a8.123,8.123,0,0,0,3.94-6.963ZM113.8,94.463v2.352a6.08,6.08,0,0,1-2.949,5.211L107.73,103.9l-3.52-1.941a6.08,6.08,0,0,1-3.145-5.324V94.463Z" transform="translate(-83.939 -76.753)" fill="#7e682a" fill-rule="evenodd"/>
        <path id="Trazado_1014385" data-name="Trazado 1014385" d="M110.053,92.42H90.682a1.022,1.022,0,0,0,0,2.043h19.372a1.022,1.022,0,0,0,0-2.043Z" transform="translate(-76.872 -76.753)" fill="#7e682a" fill-rule="evenodd"/>
        <path id="Trazado_1014386" data-name="Trazado 1014386" d="M114.825,153.584a1.022,1.022,0,0,0,1.022-1.022v-3.374a8.123,8.123,0,0,0-3.94-6.963l-3.629-2.18a1.021,1.021,0,0,0-1.019-.019l-4.035,2.224a8.122,8.122,0,0,0-4.2,7.114v3.2a1.021,1.021,0,0,0,1.021,1.022Zm-1.021-2.043H101.065v-2.176a6.079,6.079,0,0,1,3.145-5.324l3.52-1.94,3.124,1.877a6.08,6.08,0,0,1,2.949,5.211Z" transform="translate(-83.939 -112.592)" fill="#7e682a" fill-rule="evenodd"/>
        <path id="Trazado_1014387" data-name="Trazado 1014387" d="M110.053,187.38H90.682a1.021,1.021,0,1,0,0,2.043h19.372a1.021,1.021,0,0,0,0-2.043Z" transform="translate(-76.872 -148.432)" fill="#7e682a" fill-rule="evenodd"/>
      </g>
    </g>
  </g>
</svg>
