<svg xmlns="http://www.w3.org/2000/svg" width="125" height="125" viewBox="0 0 125 125">
  <g id="Grupo_1169577" data-name="Grupo 1169577" transform="translate(4307 9887)">
    <g id="Grupo_1162956" data-name="Grupo 1162956" transform="translate(-5421.84 -14801.679)">
      <circle id="Elipse_11496" data-name="Elipse 11496" cx="62.5" cy="62.5" r="62.5" transform="translate(1114.84 4914.679)" fill="#fff"/>
    </g>
    <g id="impuesto" transform="translate(-4285.321 -9867.004)">
      <path id="Trazado_1014355" data-name="Trazado 1014355" d="M73.3,58.883A14.851,14.851,0,0,0,62.891,44.729L70.388,18a5,5,0,0,0-3.476-6.16l-27.3-7.655a5.021,5.021,0,0,0-6.172,3.462L31.3,15.33,12.424,18.755A5.024,5.024,0,0,0,8.4,24.568l7.8,42.943a5.01,5.01,0,0,0,4.919,4.108c.121,0,.246-.024.368-.033v3.762a5.494,5.494,0,0,0,5.488,5.488H54.357a5.494,5.494,0,0,0,5.488-5.488V73.637A14.84,14.84,0,0,0,73.3,58.883ZM36.083,8.395A2.262,2.262,0,0,1,38.866,6.83l27.31,7.658a2.268,2.268,0,0,1,1.568,2.779L60.2,44.166c-.117-.014-.234-.028-.352-.039V32.675a5.494,5.494,0,0,0-5.488-5.488h-6.5l-1.721-9.471a5.025,5.025,0,0,0-5.811-4.025L34.3,14.785ZM18.895,67.02,11.1,24.077a2.254,2.254,0,0,1,1.816-2.621l27.9-5.064a2.254,2.254,0,0,1,2.621,1.814l1.632,8.98H26.97a5.494,5.494,0,0,0-5.488,5.488V68.84a2.252,2.252,0,0,1-2.587-1.82ZM54.357,78.092H26.97a2.747,2.747,0,0,1-2.744-2.744V32.675a2.747,2.747,0,0,1,2.744-2.744H54.357A2.747,2.747,0,0,1,57.1,32.675V44.128a14.818,14.818,0,0,0,0,29.509v1.711a2.747,2.747,0,0,1-2.744,2.744ZM58.5,70.962A12.1,12.1,0,0,1,46.4,58.881c.652-16.018,23.512-16.014,24.161,0A12.093,12.093,0,0,1,58.5,70.962Z" transform="translate(0 0)" fill="#8f85b2"/>
      <path id="Trazado_1014356" data-name="Trazado 1014356" d="M46.086,41.972a1.738,1.738,0,0,1,1.751,1.735,1.372,1.372,0,1,0,2.744,0,4.472,4.472,0,0,0-3.115-4.244V37.79a1.372,1.372,0,0,0-2.744,0v1.671A4.48,4.48,0,0,0,46.1,48.195a1.743,1.743,0,1,1-1.747,1.742,1.372,1.372,0,1,0-2.744,0,4.472,4.472,0,0,0,3.115,4.246v1.669a1.372,1.372,0,0,0,2.744,0V54.188a4.482,4.482,0,0,0-1.377-8.737,1.739,1.739,0,1,1,0-3.479Z" transform="translate(12.385 12.061)" fill="#8f85b2"/>
      <path id="Trazado_1014357" data-name="Trazado 1014357" d="M24.158,28.689H46.405a1.372,1.372,0,1,0,0-2.744H24.158a1.372,1.372,0,1,0,0,2.744Z" transform="translate(5.382 8.164)" fill="#8f85b2"/>
      <path id="Trazado_1014358" data-name="Trazado 1014358" d="M24.158,34.95H40.648a1.372,1.372,0,1,0,0-2.744H24.158a1.372,1.372,0,1,0,0,2.744Z" transform="translate(5.382 10.493)" fill="#8f85b2"/>
      <path id="Trazado_1014359" data-name="Trazado 1014359" d="M24.158,41.212h6.961a1.372,1.372,0,1,0,0-2.744H24.158a1.372,1.372,0,1,0,0,2.744Z" transform="translate(5.382 12.823)" fill="#8f85b2"/>
      <path id="Trazado_1014360" data-name="Trazado 1014360" d="M24.158,47.473h6.961a1.372,1.372,0,1,0,0-2.744H24.158a1.372,1.372,0,1,0,0,2.744Z" transform="translate(5.382 15.153)" fill="#8f85b2"/>
      <path id="Trazado_1014361" data-name="Trazado 1014361" d="M35.282,50.989H24.158a1.372,1.372,0,1,0,0,2.744H35.282a1.372,1.372,0,1,0,0-2.744Z" transform="translate(5.382 17.482)" fill="#8f85b2"/>
    </g>
  </g>
</svg>
