<svg xmlns="http://www.w3.org/2000/svg" width="125" height="125" viewBox="0 0 125 125"><g transform="translate(-687.307 -1356.748)"><g transform="translate(687.307 1356.748)"><circle cx="62.5" cy="62.5" r="62.5" fill="#fff"/></g><path d="M56.447,79.781H32.934A1.134,1.134,0,0,1,31.8,78.647V70.092a7.055,7.055,0,0,1,7.055-7.056h2.5a1.134,1.134,0,0,1,.786.316L44.689,65.8l2.531-2.442a1.133,1.133,0,0,1,.787-.318h2.518a7.056,7.056,0,0,1,7.056,7.056v8.555a1.134,1.134,0,0,1-1.134,1.134Zm-4.8-2.268h3.67V70.092A4.788,4.788,0,0,0,50.525,65.3h-2.06l-2.987,2.882a1.134,1.134,0,0,1-1.573,0l-3-2.884H38.856a4.788,4.788,0,0,0-4.788,4.788v7.422h3.67V71.7a1.134,1.134,0,1,1,2.268,0v5.815h9.37V71.7a1.134,1.134,0,1,1,2.268,0Zm33.531-23.6h1.7a1.134,1.134,0,1,1,0,2.268H58.471a1.134,1.134,0,0,1,0-2.268h1.7v-6.88a2.059,2.059,0,0,1,2.058-2.059h3.155a2.059,2.059,0,0,1,2.058,2.059v6.88h1.591V43.454A2.058,2.058,0,0,1,71.1,41.4h3.155a2.058,2.058,0,0,1,2.058,2.058V53.91H77.9V39.878A2.058,2.058,0,0,1,79.96,37.82h3.155a2.058,2.058,0,0,1,2.058,2.058Zm-22.731,0H65.18V47.238H62.443Zm8.863,0h2.737V43.663H71.306Zm8.863,0h2.737V40.087H80.17Zm-57.951,41.1A36.535,36.535,0,0,1,8.008,70.271,1.134,1.134,0,0,1,9.137,69l8.023.021a1.134,1.134,0,0,1,1.117.959,26.326,26.326,0,0,0,9.485,16.4,1.134,1.134,0,0,1,.257,1.469l-4.145,6.844a1.134,1.134,0,0,1-1.655.316Zm.381-2.587,2.976-4.914A28.594,28.594,0,0,1,16.2,71.289l-5.767-.015A34.266,34.266,0,0,0,22.6,92.421ZM34.99,90.529A26.358,26.358,0,0,0,69.6,73.226H64.5a1.134,1.134,0,0,1-.76-1.975l10.482-9.467a1.134,1.134,0,0,1,1.52,0l10.482,9.467a1.134,1.134,0,0,1-.76,1.975H80.109A36.569,36.569,0,0,1,29.973,99.518a1.134,1.134,0,0,1-.525-1.63L33.619,91a1.134,1.134,0,0,1,1.371-.473Zm.088,2.441-3,4.954A34.305,34.305,0,0,0,78.055,71.895a1.134,1.134,0,0,1,1.116-.936h3.348l-7.535-6.805-7.535,6.805h3.614a1.134,1.134,0,0,1,1.1,1.389,28.627,28.627,0,0,1-37.09,20.622ZM8.032,61.3A36.356,36.356,0,0,1,14.592,44.6a1.134,1.134,0,0,1,1.758-.1l5.512,6.034a1.134,1.134,0,0,1,.123,1.368A26.167,26.167,0,0,0,18.3,61.648a1.134,1.134,0,0,1-1.122.953L9.154,62.58A1.134,1.134,0,0,1,8.032,61.3Zm2.434-.989,5.767.015a28.427,28.427,0,0,1,3.382-8.9l-3.976-4.353a34.075,34.075,0,0,0-5.173,13.24ZM20.7,37.984a36.483,36.483,0,0,1,13.661-7.278,1.134,1.134,0,0,1,1.424.893l1.4,7.875a1.134,1.134,0,0,1-.776,1.28,26.3,26.3,0,0,0-8.888,4.84,1.134,1.134,0,0,1-1.56-.109l-5.363-5.871a1.134,1.134,0,0,1,.1-1.63Zm2.377.985,3.84,4.2a28.558,28.558,0,0,1,7.862-4.267l-1-5.655a34.216,34.216,0,0,0-10.7,5.717ZM43.227,29.35q.534-.015,1.071-.015A36.5,36.5,0,0,1,54.88,30.893a1.134,1.134,0,0,1,.726,1.5L52.67,39.818a1.134,1.134,0,0,1-1.356.676,26.312,26.312,0,0,0-6.661-.944,1.134,1.134,0,0,1-1.1-.936l-1.408-7.933a1.134,1.134,0,0,1,1.084-1.331ZM44.61,31.6l1.013,5.707a28.557,28.557,0,0,1,5.306.744l2.108-5.327A34.275,34.275,0,0,0,44.61,31.6Zm.073,15.414a7.033,7.033,0,1,1-7.033,7.033A7.036,7.036,0,0,1,44.683,47.018Zm0,2.268a4.765,4.765,0,1,0,4.766,4.765A4.768,4.768,0,0,0,44.683,49.286Z" transform="translate(701.988 1353.362)" fill="#8f85b2" fill-rule="evenodd"/></g></svg>