<svg xmlns="http://www.w3.org/2000/svg" width="85" height="85" viewBox="0 0 85 85"><g transform="translate(-810 -3247.413)"><circle cx="42.5" cy="42.5" r="42.5" transform="translate(810 3247.413)" fill="#ffd256"/><g transform="translate(824.692 3261.105)"><path d="M32.5,4.54A28.654,28.654,0,1,0,61.158,33.194,28.683,28.683,0,0,0,32.5,4.54Zm0,55.367A26.713,26.713,0,1,1,59.218,33.194,26.741,26.741,0,0,1,32.5,59.907Z" transform="translate(-3.85 -4.54)" fill="#b1923b"/><path d="M32.5,8.7A24.493,24.493,0,1,0,57,33.193,24.526,24.526,0,0,0,32.5,8.7Zm0,47.046A22.553,22.553,0,1,1,55.057,33.193,22.577,22.577,0,0,1,32.5,55.746Z" transform="translate(-3.85 -4.539)" fill="#b1923b"/><path d="M33.262,30.891a.967.967,0,0,0-.07,1.37.98.98,0,0,0,.72.32.966.966,0,0,0,.65-.25l4.881-4.4a.031.031,0,0,1,.01-.02,1.039,1.039,0,0,0,.17-.24.351.351,0,0,0,.05-.08.991.991,0,0,0,0-.78c-.01-.03-.04-.05-.05-.08a1.039,1.039,0,0,0-.17-.24.031.031,0,0,0-.01-.02l-4.881-4.4a.97.97,0,1,0-1.3,1.44l3.01,2.71H23.37a.97.97,0,1,0,0,1.94h12.9l-3.01,2.71Z" transform="translate(-3.847 -4.538)" fill="#b1923b"/><path d="M41.632,38.191h-12.9l3.01-2.71a.97.97,0,1,0-1.3-1.44l-4.881,4.4a.031.031,0,0,1-.01.02.807.807,0,0,0-.17.24c-.01.03-.04.05-.05.08a.991.991,0,0,0,0,.78c.01.03.04.05.05.08a1.039,1.039,0,0,0,.17.24.031.031,0,0,0,.01.02l4.881,4.4a.97.97,0,0,0,1.3-1.44l-3.01-2.71h12.9a.97.97,0,1,0,0-1.94Z" transform="translate(-3.847 -4.536)" fill="#b1923b"/></g></g></svg>