<svg xmlns="http://www.w3.org/2000/svg" width="85" height="85" viewBox="0 0 85 85"><g transform="translate(-600 -3086.413)"><circle cx="42.5" cy="42.5" r="42.5" transform="translate(600 3086.413)" fill="#ffd256"/><g transform="translate(614.818 3103.351)"><path d="M49.566.928c-1.471-.9-3.582-.449-5.933,1.263A24.83,24.83,0,0,0,37.5,9.2a28.453,28.453,0,0,0-2.543,5.26l-6.332-1.7a3.223,3.223,0,0,0-3.083.823L5.041,34.1a3.19,3.19,0,0,0,0,4.5L19.2,52.765a3.19,3.19,0,0,0,4.5,0L44.214,32.256a3.184,3.184,0,0,0,.823-3.083l-2.1-7.861A26.9,26.9,0,0,0,47.7,15.429a24.75,24.75,0,0,0,3.44-8.651c.457-2.875-.1-4.953-1.579-5.858Zm-6.49,30.2L22.566,51.635a1.575,1.575,0,0,1-2.227,0L6.179,37.466a1.575,1.575,0,0,1,0-2.227L26.688,14.731a1.588,1.588,0,0,1,1.114-.465,1.706,1.706,0,0,1,.407.05l6.257,1.679a18.819,18.819,0,0,0-.416,1.853,12.465,12.465,0,0,0-.133,1.4,3.478,3.478,0,1,0,3.947,5.6,3.394,3.394,0,0,0,.806-1.3c.008-.033.025-.066.033-.1a3.486,3.486,0,0,0-.839-3.532,3.447,3.447,0,0,0-2.327-1.005c.025-.258.05-.532.1-.814a15.677,15.677,0,0,1,.374-1.7l2.526.673A3.067,3.067,0,0,1,40.7,19.243L43.466,29.58a1.565,1.565,0,0,1-.407,1.521Zm-9.033-10a3.7,3.7,0,0,0,1.6,2.584,3.016,3.016,0,0,0,.69.307,1.864,1.864,0,0,1-2.285-2.892Zm3.224,1.421a1.624,1.624,0,0,1-.8-.208,2.379,2.379,0,0,1-.9-1.8,1.84,1.84,0,0,1,1.163.532A1.86,1.86,0,0,1,37.267,22.55ZM49.549,6.529A23.188,23.188,0,0,1,46.325,14.6a26.161,26.161,0,0,1-3.864,4.953l-.191-.706a4.683,4.683,0,0,0-3.307-3.307l-2.451-.656a26.946,26.946,0,0,1,2.36-4.836A23.227,23.227,0,0,1,44.58,3.5c1.737-1.271,3.282-1.712,4.138-1.188s1.163,2.1.831,4.23Z" transform="translate(-4.11 -0.477)" fill="#b1923b"/><path d="M27.893,28.03a.807.807,0,0,0-.839.773L26.19,48.68a.8.8,0,0,0,.773.839H27a.806.806,0,0,0,.806-.773l.864-19.877a.8.8,0,0,0-.773-.839Z" transform="translate(-7.841 -5.134)" fill="#b1923b"/><path d="M33.767,35.858a1.575,1.575,0,1,0,0-.008Zm1.546,5.352a2.192,2.192,0,0,1-3.1-3.1A2.186,2.186,0,0,1,35.3,41.2Z" transform="translate(-8.479 -6.456)" fill="#b1923b"/><path d="M17.354,38.013A3.808,3.808,0,1,0,17.363,38Zm4.238,4.238a2.192,2.192,0,1,1,0-3.1,2.187,2.187,0,0,1,0,3.091Z" transform="translate(-6.161 -6.632)" fill="#b1923b"/></g></g></svg>