<svg xmlns="http://www.w3.org/2000/svg" width="125" height="125" viewBox="0 0 125 125">
  <g id="Grupo_1162815" data-name="Grupo 1162815" transform="translate(-800 -4912)">
    <circle id="Elipse_11495" data-name="Elipse 11495" cx="62.5" cy="62.5" r="62.5" transform="translate(800 4912)" fill="#fff"/>
    <g id="out_line" data-name="out line" transform="translate(823.928 4945.271)">
      <path id="Trazado_1013977" data-name="Trazado 1013977" d="M39.129,86.067a15.373,15.373,0,0,0,2.5-.2c.263-.043.535-.095.8-.155a15.308,15.308,0,0,0,4.308-1.666c4.011-2.291,7.17-6.472,8.895-11.775a30.1,30.1,0,0,0,1.226-5.513c.572.056,1.149.087,1.731.087a22.814,22.814,0,0,0,10.891-3.016A33.889,33.889,0,0,0,81.552,52.3c7.193-11.206,7.389-24.511.469-31.635a15.179,15.179,0,0,0-4.1-3.005c-4.589-2.3-10.238-2.23-15.907.2a33.138,33.138,0,0,0-14.4,12.658,36.779,36.779,0,0,0-2.844,5.352,18.34,18.34,0,0,0-10.607-3.8,15.271,15.271,0,0,0-3.473.356,14.806,14.806,0,0,0-1.549.43c-4.869,1.627-8.8,5.681-11.08,11.415a33.124,33.124,0,0,0-1.192,19.132c2.917,13.241,12.394,22.66,22.256,22.66ZM81.108,23.211a18.072,18.072,0,0,1,3.586,11.748,31.257,31.257,0,0,1-5.138,16.063A31.516,31.516,0,0,1,68.345,61.745a20.019,20.019,0,0,1-11.119,2.662A35.439,35.439,0,0,0,70.259,42.571a33.161,33.161,0,0,1,9.5-18.045Zm-5.34-1.247,1.825-1.782c.148.087.3.177.445.271a12.83,12.83,0,0,1,1.418,1.056L78.1,22.828A35.531,35.531,0,0,0,67.921,42.166,33.068,33.068,0,0,1,57.1,61.427q-.048-1.439-.216-2.9A35.46,35.46,0,0,0,66.266,40.01,32.956,32.956,0,0,1,75.768,21.964ZM49.614,31.806c6.561-10.225,17.5-15.505,25.671-12.685l-1.174,1.146A35.312,35.312,0,0,0,63.929,39.6a33.071,33.071,0,0,1-7.513,15.918c-.052-.264-.106-.527-.165-.791a32.919,32.919,0,0,0-9.564-17.287,34.269,34.269,0,0,1,2.926-5.638ZM35.308,36.4l.019-1.883a18.08,18.08,0,0,1,10.854,5.75,31.267,31.267,0,0,1,7.756,14.976,31.575,31.575,0,0,1-.556,16.293,19.585,19.585,0,0,1-5.72,8.974,35.441,35.441,0,0,0-6.274-24.643,32.973,32.973,0,0,1-6.081-19.133c0-.111,0-.22,0-.334ZM30.675,37.42l.024-2.55q.251-.067.5-.123a12.89,12.89,0,0,1,1.751-.26l-.019,1.886c0,.121,0,.24,0,.36a35.332,35.332,0,0,0,6.516,20.5,33.079,33.079,0,0,1,5.818,23.31l-.217,1.714a12.944,12.944,0,0,1-2.226.9l.163-1.293a35.726,35.726,0,0,0,.282-4.47,35.335,35.335,0,0,0-6.517-20.508,32.949,32.949,0,0,1-6.08-19.467Zm-2.357-1.663L28.3,37.4a35.307,35.307,0,0,0,6.515,20.86A32.976,32.976,0,0,1,40.9,77.394a33.343,33.343,0,0,1-.263,4.173l-.262,2.068c-4.222.4-8.612-1.289-12.458-4.818A30.535,30.535,0,0,1,19.19,62.9c-2.616-11.864,1.363-23.341,9.128-27.14Z" transform="translate(-16.009 -15.987)" fill="#8f85b2"/>
      <path id="Trazado_1013978" data-name="Trazado 1013978" d="M283.33,94.084a1.182,1.182,0,0,0,.808-.318c.5-.463,1.021-.91,1.555-1.33a1.186,1.186,0,1,0-1.466-1.865c-.585.46-1.159.95-1.7,1.458a1.186,1.186,0,0,0,.808,2.054Z" transform="translate(-242.689 -79.299)" fill="#8f85b2"/>
      <path id="Trazado_1013979" data-name="Trazado 1013979" d="M245.489,126.105a1.185,1.185,0,0,0,1.59-.534,24.683,24.683,0,0,1,2.717-4.288,1.186,1.186,0,1,0-1.862-1.469,27.03,27.03,0,0,0-2.978,4.7A1.186,1.186,0,0,0,245.489,126.105Z" transform="translate(-210.908 -104.037)" fill="#8f85b2"/>
      <path id="Trazado_1013980" data-name="Trazado 1013980" d="M85.254,392.309a1.186,1.186,0,1,0,1.8-1.542c-.442-.517-.867-1.058-1.264-1.609a1.186,1.186,0,0,0-1.925,1.386C84.3,391.149,84.77,391.742,85.254,392.309Z" transform="translate(-73.618 -333.416)" fill="#8f85b2"/>
      <path id="Trazado_1013981" data-name="Trazado 1013981" d="M111.863,421.043a27.034,27.034,0,0,0,4.573,3.173,1.186,1.186,0,0,0,1.144-2.078,24.661,24.661,0,0,1-4.171-2.893,1.186,1.186,0,1,0-1.546,1.8Z" transform="translate(-97.301 -359.218)" fill="#8f85b2"/>
    </g>
  </g>
</svg>
