<svg xmlns="http://www.w3.org/2000/svg" width="125" height="125" viewBox="0 0 125 125">
  <g id="Grupo_1162817" data-name="Grupo 1162817" transform="translate(7027.16 6681.321)">
    <circle id="Elipse_11497" data-name="Elipse 11497" cx="62.5" cy="62.5" r="62.5" transform="translate(-7027.16 -6681.321)" fill="#fff"/>
    <g id="bolsa-de-la-compra" transform="translate(-7011.375 -6655.821)">
      <g id="Grupo_1162797" data-name="Grupo 1162797" transform="translate(37.859)">
        <g id="Grupo_1162796" data-name="Grupo 1162796" transform="translate(0)">
          <path id="Trazado_1013964" data-name="Trazado 1013964" d="M96,9.144A10.662,10.662,0,0,0,76.835,4.379a1.254,1.254,0,1,0,2.025,1.479A8.154,8.154,0,0,1,93.518,9.5a1.255,1.255,0,0,0,1.241,1.077,1.343,1.343,0,0,0,.179-.012A1.255,1.255,0,0,0,96,9.144Z" transform="translate(-76.593)" fill="#8f85b2"/>
        </g>
      </g>
      <g id="Grupo_1162799" data-name="Grupo 1162799" transform="translate(17.867 16.305)">
        <g id="Grupo_1162798" data-name="Grupo 1162798">
          <path id="Trazado_1013965" data-name="Trazado 1013965" d="M79.7,51.252l-3.763-6.271a1.253,1.253,0,0,0-1.076-.609H71.257a1.254,1.254,0,0,0,0,2.508h2.9l2.258,3.763H25.654l2.258-3.763H29.24a1.254,1.254,0,0,0,0-2.508H27.2a1.253,1.253,0,0,0-1.076.609l-3.763,6.271a1.255,1.255,0,0,0,1.076,1.9H78.626a1.255,1.255,0,0,0,1.076-1.9Z" transform="translate(-22.185 -44.372)" fill="#8f85b2"/>
        </g>
      </g>
      <g id="Grupo_1162801" data-name="Grupo 1162801" transform="translate(48.424 7.028)">
        <g id="Grupo_1162800" data-name="Grupo 1162800">
          <path id="Trazado_1013966" data-name="Trazado 1013966" d="M126.051,23.718a1.252,1.252,0,0,0-.78-.56l-17.1-4a1.253,1.253,0,0,0-1.507.936l-1.289,5.512a1.254,1.254,0,0,0,2.442.571l1-4.29,14.655,3.428-2.3,9.846a1.253,1.253,0,0,0,.936,1.506,1.268,1.268,0,0,0,.287.033,1.252,1.252,0,0,0,1.219-.968l2.589-11.067A1.249,1.249,0,0,0,126.051,23.718Z" transform="translate(-105.343 -19.126)" fill="#8f85b2"/>
        </g>
      </g>
      <g id="Grupo_1162803" data-name="Grupo 1162803" transform="translate(22.757 3.812)">
        <g id="Grupo_1162802" data-name="Grupo 1162802" transform="translate(0)">
          <path id="Trazado_1013967" data-name="Trazado 1013967" d="M60.114,21.147l-1.143-9.666a1.255,1.255,0,0,0-1.393-1.1L36.6,12.862a1.254,1.254,0,0,0-1.1,1.393l1.905,16.121a1.255,1.255,0,0,0,1.244,1.108,1.37,1.37,0,0,0,.149-.009,1.255,1.255,0,0,0,1.1-1.393L38.141,15.2,56.628,13.02l1,8.42a1.254,1.254,0,0,0,2.491-.294Z" transform="translate(-35.494 -10.374)" fill="#8f85b2"/>
        </g>
      </g>
      <g id="Grupo_1162805" data-name="Grupo 1162805" transform="translate(32.128 12.041)">
        <g id="Grupo_1162804" data-name="Grupo 1162804" transform="translate(0)">
          <path id="Trazado_1013968" data-name="Trazado 1013968" d="M86.166,44.082,83.676,33.729a1.253,1.253,0,0,0-1.513-.926L61.958,37.663a1.254,1.254,0,0,0-.926,1.513l1.244,5.174a1.254,1.254,0,1,0,2.439-.586l-.951-3.955L81.53,35.537l2.2,9.133a1.255,1.255,0,0,0,2.44-.587Z" transform="translate(-60.997 -32.769)" fill="#8f85b2"/>
        </g>
      </g>
      <g id="Grupo_1162807" data-name="Grupo 1162807" transform="translate(15.359 22.577)">
        <g id="Grupo_1162806" data-name="Grupo 1162806">
          <path id="Trazado_1013969" data-name="Trazado 1013969" d="M75.561,62.631a1.255,1.255,0,0,0-1.253-1.19H19.122a1.254,1.254,0,0,0-1.253,1.19L15.36,111.546a1.254,1.254,0,0,0,1.253,1.318h60.2a1.254,1.254,0,0,0,1.254-1.318ZM17.933,110.356l2.38-46.407h52.8l2.38,46.407Z" transform="translate(-15.359 -61.441)" fill="#8f85b2"/>
        </g>
      </g>
      <g id="Grupo_1162809" data-name="Grupo 1162809" transform="translate(52.359 27.593)">
        <g id="Grupo_1162808" data-name="Grupo 1162808">
          <path id="Trazado_1013970" data-name="Trazado 1013970" d="M119.815,75.093a3.763,3.763,0,1,0,3.763,3.763A3.767,3.767,0,0,0,119.815,75.093Zm0,5.017a1.254,1.254,0,1,1,1.254-1.254A1.255,1.255,0,0,1,119.815,80.11Z" transform="translate(-116.052 -75.093)" fill="#8f85b2"/>
        </g>
      </g>
      <g id="Grupo_1162811" data-name="Grupo 1162811" transform="translate(33.545 27.593)">
        <g id="Grupo_1162810" data-name="Grupo 1162810" transform="translate(0)">
          <path id="Trazado_1013971" data-name="Trazado 1013971" d="M68.615,75.093a3.763,3.763,0,1,0,3.763,3.763A3.767,3.767,0,0,0,68.615,75.093Zm0,5.017a1.254,1.254,0,1,1,1.254-1.254A1.255,1.255,0,0,1,68.615,80.11Z" transform="translate(-64.852 -75.093)" fill="#8f85b2"/>
        </g>
      </g>
      <g id="Grupo_1162813" data-name="Grupo 1162813" transform="translate(36.054 31.356)">
        <g id="Grupo_1162812" data-name="Grupo 1162812" transform="translate(0)">
          <path id="Trazado_1013972" data-name="Trazado 1013972" d="M91.747,85.333h-.1A1.255,1.255,0,0,0,90.4,86.587a1.24,1.24,0,0,0,.1.484v6.415a8.153,8.153,0,0,1-16.305,0v-6.9a1.254,1.254,0,0,0-2.508,0v6.9a10.661,10.661,0,0,0,21.322,0v-6.9A1.255,1.255,0,0,0,91.747,85.333Z" transform="translate(-71.679 -85.333)" fill="#8f85b2"/>
        </g>
      </g>
    </g>
  </g>
</svg>
