<svg xmlns="http://www.w3.org/2000/svg" width="125" height="125" viewBox="0 0 125 125">
  <g id="Grupo_1169573" data-name="Grupo 1169573" transform="translate(-1114.84 -4914.679)">
    <g id="Grupo_1162816" data-name="Grupo 1162816">
      <circle id="Elipse_11496" data-name="Elipse 11496" cx="62.5" cy="62.5" r="62.5" transform="translate(1114.84 4914.679)" fill="#fff"/>
    </g>
    <g id="tarjeta-de-credito" transform="translate(1144.698 4955)">
      <g id="Grupo_1162814" data-name="Grupo 1162814" transform="translate(0 0)">
        <path id="Trazado_1013973" data-name="Trazado 1013973" d="M60.87,64H13.336A4.452,4.452,0,0,0,8.9,68.432V72.9H4.432A4.452,4.452,0,0,0,0,77.336v29.724a4.452,4.452,0,0,0,4.432,4.432h50.5a4.452,4.452,0,0,0,4.432-4.432v-4.473h1.5A4.452,4.452,0,0,0,65.3,98.156V68.432A4.453,4.453,0,0,0,60.87,64ZM13.336,66.968H60.87a1.463,1.463,0,0,1,1.463,1.463V72.9H11.873V68.432a1.463,1.463,0,0,1,1.463-1.463Zm-8.9,8.9H8.9V81.81H2.968V77.336a1.463,1.463,0,0,1,1.463-1.463ZM56.4,107.061a1.463,1.463,0,0,1-1.463,1.463H4.432a1.463,1.463,0,0,1-1.463-1.463V84.778H8.9V98.156a4.452,4.452,0,0,0,4.432,4.432H56.4v4.473Zm4.473-7.441H13.336a1.463,1.463,0,0,1-1.463-1.463V75.873h50.46V98.156A1.463,1.463,0,0,1,60.87,99.619Z" transform="translate(0 -64)" fill="#8f85b2"/>
        <path id="Trazado_1013974" data-name="Trazado 1013974" d="M348.755,234.667h-2.968a4.452,4.452,0,1,0,0,8.9h2.968a4.452,4.452,0,0,0,0-8.9Zm0,5.936h-2.968a1.484,1.484,0,1,1,0-2.968h2.968a1.484,1.484,0,0,1,0,2.968Z" transform="translate(-293.842 -210.921)" fill="#8f85b2"/>
        <path id="Trazado_1013975" data-name="Trazado 1013975" d="M108.15,173.634h2.968a1.484,1.484,0,1,0,0-2.968H108.15a1.484,1.484,0,1,0,0,2.968Z" transform="translate(-91.825 -155.825)" fill="#8f85b2"/>
        <path id="Trazado_1013976" data-name="Trazado 1013976" d="M117.055,213.333h-8.9a1.484,1.484,0,1,0,0,2.968h8.9a1.484,1.484,0,1,0,0-2.968Z" transform="translate(-91.825 -192.555)" fill="#8f85b2"/>
      </g>
    </g>
  </g>
</svg>
