<svg xmlns="http://www.w3.org/2000/svg" xmlns:xlink="http://www.w3.org/1999/xlink" width="80.243" height="63.617" viewBox="0 0 80.243 63.617">
  <defs>
    <clipPath id="clip-path">
      <rect id="Rectángulo_401483" data-name="Rectángulo 401483" width="80.243" height="63.617" fill="none"/>
    </clipPath>
    <clipPath id="clip-path-2">
      <rect id="Rectángulo_401462" data-name="Rectángulo 401462" width="18.704" height="18.704" fill="none"/>
    </clipPath>
    <clipPath id="clip-path-3">
      <rect id="Rectángulo_401475" data-name="Rectángulo 401475" width="33.916" height="57.398" fill="none"/>
    </clipPath>
    <clipPath id="clip-path-4">
      <rect id="Rectángulo_401476" data-name="Rectángulo 401476" width="57.398" height="57.397" fill="none"/>
    </clipPath>
    <clipPath id="clip-path-5">
      <rect id="Rectángulo_401477" data-name="Rectángulo 401477" width="44.825" height="44.825" fill="none"/>
    </clipPath>
    <clipPath id="clip-path-6">
      <rect id="Rectángulo_401478" data-name="Rectángulo 401478" width="31.732" height="31.732" fill="none"/>
    </clipPath>
    <clipPath id="clip-path-7">
      <rect id="Rectángulo_401479" data-name="Rectángulo 401479" width="18.029" height="18.029" fill="none"/>
    </clipPath>
    <clipPath id="clip-path-8">
      <rect id="Rectángulo_401480" data-name="Rectángulo 401480" width="39.151" height="24.074" fill="none"/>
    </clipPath>
    <clipPath id="clip-path-9">
      <rect id="Rectángulo_401481" data-name="Rectángulo 401481" width="8.26" height="7.486" fill="none"/>
    </clipPath>
    <clipPath id="clip-path-10">
      <rect id="Rectángulo_401482" data-name="Rectángulo 401482" width="75.758" height="59.675" fill="none"/>
    </clipPath>
  </defs>
  <g id="Grupo_1099567" data-name="Grupo 1099567" clip-path="url(#clip-path)">
    <path id="Trazado_873404" data-name="Trazado 873404" d="M791.128,499.776l-.683-.15a.644.644,0,0,1-.475-.463,7.928,7.928,0,0,0-.736-1.766.647.647,0,0,1,.007-.661l.378-.6a.538.538,0,0,0-.068-.661l-1.4-1.4a.538.538,0,0,0-.661-.068l-.6.376a.646.646,0,0,1-.664.01,7.882,7.882,0,0,0-1.763-.729.647.647,0,0,1-.465-.475l-.155-.69a.524.524,0,0,0-.516-.412h-1.988a.526.526,0,0,0-.514.412l-.157.69a.647.647,0,0,1-.465.475,7.781,7.781,0,0,0-1.756.727.641.641,0,0,1-.664-.007l-.6-.376a.538.538,0,0,0-.661.068l-1.4,1.4a.542.542,0,0,0-.073.668l.375.586a.644.644,0,0,1,.01.669,7.817,7.817,0,0,0-.732,1.766.646.646,0,0,1-.477.465l-.685.153a.526.526,0,0,0-.414.514v1.981a.536.536,0,0,0,.419.523l.681.15a.638.638,0,0,1,.477.465,7.659,7.659,0,0,0,.729,1.759.638.638,0,0,1-.007.668l-.378.593a.535.535,0,0,0,.075.659l1.4,1.4a.539.539,0,0,0,.661.075l.6-.38a.645.645,0,0,1,.666-.01,7.873,7.873,0,0,0,1.761.732.647.647,0,0,1,.463.477l.153.683a.531.531,0,0,0,.518.419h1.984a.531.531,0,0,0,.516-.419l.15-.683a.65.65,0,0,1,.465-.477,7.8,7.8,0,0,0,1.761-.729.645.645,0,0,1,.666.007l.6.38a.528.528,0,0,0,.656-.073l1.4-1.4a.534.534,0,0,0,.068-.659l-.375-.6a.641.641,0,0,1-.007-.664,7.9,7.9,0,0,0,.734-1.761.638.638,0,0,1,.477-.465l.681-.153a.524.524,0,0,0,.412-.511v-1.993a.526.526,0,0,0-.412-.513M782.34,505.3a4.017,4.017,0,1,1,4.016-4.018,4.019,4.019,0,0,1-4.016,4.018" transform="translate(-717.257 -456.928)" fill="#fff"/>
    <g id="Grupo_1099524" data-name="Grupo 1099524" transform="translate(55.579 35.157)" opacity="0.6" style="isolation: isolate">
      <g id="Grupo_1099523" data-name="Grupo 1099523">
        <g id="Grupo_1099522" data-name="Grupo 1099522" clip-path="url(#clip-path-2)">
          <path id="Trazado_873405" data-name="Trazado 873405" d="M753.457,488.762h-1.984a.687.687,0,0,1-.666-.538l-.152-.682a.5.5,0,0,0-.356-.364,8.03,8.03,0,0,1-1.794-.745.5.5,0,0,0-.51.005l-.6.38a.691.691,0,0,1-.847-.093l-1.4-1.4a.686.686,0,0,1-.1-.848l.378-.593a.487.487,0,0,0,0-.511,7.83,7.83,0,0,1-.744-1.794.488.488,0,0,0-.363-.357l-.681-.15a.686.686,0,0,1-.538-.671v-1.981a.674.674,0,0,1,.533-.662l.685-.152a.5.5,0,0,0,.364-.357,8,8,0,0,1,.746-1.8.489.489,0,0,0-.005-.512l-.376-.586a.692.692,0,0,1,.093-.857l1.4-1.4a.691.691,0,0,1,.85-.089l.6.375a.49.49,0,0,0,.508,0,7.949,7.949,0,0,1,1.791-.741.5.5,0,0,0,.358-.362l.157-.69a.682.682,0,0,1,.661-.53h1.988a.678.678,0,0,1,.664.532l.154.688a.494.494,0,0,0,.357.362,8.032,8.032,0,0,1,1.8.743.492.492,0,0,0,.508-.006l.6-.376a.69.69,0,0,1,.846.086l1.4,1.4a.691.691,0,0,1,.088.85l-.377.6a.5.5,0,0,0,0,.507,8.092,8.092,0,0,1,.75,1.8.494.494,0,0,0,.363.356l.682.15h0a.682.682,0,0,1,.531.661v1.994a.672.672,0,0,1-.531.659l-.68.152a.488.488,0,0,0-.364.357,8.059,8.059,0,0,1-.748,1.8.49.49,0,0,0,0,.507l.376.6a.685.685,0,0,1-.087.845l-1.4,1.4a.682.682,0,0,1-.845.093l-.6-.38a.5.5,0,0,0-.51,0,7.979,7.979,0,0,1-1.8.743.5.5,0,0,0-.358.365l-.15.682a.681.681,0,0,1-.664.538m-5.208-2.7a.824.824,0,0,1,.4.107,7.733,7.733,0,0,0,1.727.718.8.8,0,0,1,.57.591l.152.682a.382.382,0,0,0,.37.3h1.984a.377.377,0,0,0,.368-.3l.15-.685a.8.8,0,0,1,.572-.591,7.677,7.677,0,0,0,1.727-.715.8.8,0,0,1,.822.011l.6.38a.378.378,0,0,0,.468-.052l1.4-1.4a.382.382,0,0,0,.047-.47l-.376-.6a.792.792,0,0,1-.011-.82,7.745,7.745,0,0,0,.72-1.727.79.79,0,0,1,.591-.572l.68-.152a.371.371,0,0,0,.293-.363v-1.994a.377.377,0,0,0-.293-.365l-.683-.15a.8.8,0,0,1-.588-.571,7.8,7.8,0,0,0-.722-1.731.8.8,0,0,1,.011-.816l.378-.6a.388.388,0,0,0-.049-.476l-1.395-1.395a.386.386,0,0,0-.472-.047l-.6.376a.8.8,0,0,1-.818.014,7.729,7.729,0,0,0-1.73-.715.8.8,0,0,1-.572-.587l-.155-.691a.374.374,0,0,0-.368-.293h-1.988a.377.377,0,0,0-.365.293l-.158.691a.8.8,0,0,1-.573.587,7.638,7.638,0,0,0-1.721.712.791.791,0,0,1-.82-.011l-.6-.375a.387.387,0,0,0-.476.05l-1.395,1.395a.389.389,0,0,0-.051.481l.375.585a.8.8,0,0,1,.014.825,7.688,7.688,0,0,0-.717,1.732.8.8,0,0,1-.59.572l-.686.153a.373.373,0,0,0-.3.366V480.4a.384.384,0,0,0,.3.375l.68.15a.79.79,0,0,1,.591.573,7.511,7.511,0,0,0,.714,1.723.788.788,0,0,1-.012.826l-.377.593a.384.384,0,0,0,.057.472l1.4,1.4a.387.387,0,0,0,.472.054l.6-.38a.776.776,0,0,1,.418-.121m4.215-2.482a4.169,4.169,0,1,1,4.167-4.17,4.175,4.175,0,0,1-4.167,4.17m0-8.034a3.865,3.865,0,1,0,3.864,3.864,3.87,3.87,0,0,0-3.864-3.864" transform="translate(-743.111 -470.058)"/>
        </g>
      </g>
    </g>
    <path id="Trazado_873413" data-name="Trazado 873413" d="M452.31,970.725a1.952,1.952,0,0,1-.567.08H447.96a2.1,2.1,0,0,1-2.055-2.5l1.547-7.892h1.358l-1.533,7.812a2.1,2.1,0,0,0,2.055,2.5Z" transform="translate(-412.519 -888.585)" fill="#fff"/>
    <rect id="Rectángulo_401470" data-name="Rectángulo 401470" width="25.701" height="1.256" transform="translate(21.618 70.912) rotate(-53.42)" fill="#fff"/>
    <path id="Trazado_873417" data-name="Trazado 873417" d="M210.957,950.938l-.056.12-2.972-2.2-5.944,5.417a2.1,2.1,0,0,0-.343,2.692l-.324-.24a2.1,2.1,0,0,1-.161-3.229l5.944-5.417Z" transform="translate(-185.48 -877.169)" fill="#fff"/>
    <path id="Trazado_873421" data-name="Trazado 873421" d="M657.684,950.938l.056.12,2.972-2.2,5.944,5.417a2.1,2.1,0,0,1,.343,2.692l.324-.24a2.1,2.1,0,0,0,.161-3.229l-5.944-5.417Z" transform="translate(-608.494 -877.169)" fill="#fff"/>
    <g id="Grupo_1099545" data-name="Grupo 1099545" transform="translate(35.452 4.244)" opacity="0.6" style="isolation: isolate">
      <g id="Grupo_1099544" data-name="Grupo 1099544">
        <g id="Grupo_1099543" data-name="Grupo 1099543" clip-path="url(#clip-path-3)">
          <path id="Trazado_873424" data-name="Trazado 873424" d="M481.094,58.782a28.714,28.714,0,0,0-5.066.448v56.2a28.549,28.549,0,1,0,5.066-56.646" transform="translate(-475.876 -58.63)"/>
          <path id="Trazado_873425" data-name="Trazado 873425" d="M479.218,114.153a28.962,28.962,0,0,1-5.092-.451.152.152,0,0,1-.125-.149v-56.2a.152.152,0,0,1,.125-.149,28.7,28.7,0,1,1,5.092,56.947m-4.914-.727a28.4,28.4,0,1,0,0-55.944Z" transform="translate(-474.001 -56.755)"/>
        </g>
      </g>
    </g>
    <path id="Trazado_873426" data-name="Trazado 873426" d="M174.563,87.33a28.547,28.547,0,1,1-28.547-28.547A28.547,28.547,0,0,1,174.563,87.33" transform="translate(-108.683 -54.387)" fill="#ffd256"/>
    <path id="Trazado_873427" data-name="Trazado 873427" d="M119.14,88.544a28.5,28.5,0,0,0,10.951,22.483,28.55,28.55,0,1,1,33.525-46.177A28.553,28.553,0,0,0,119.14,88.544" transform="translate(-108.686 -54.388)" fill="#fff"/>
    <path id="Trazado_873428" data-name="Trazado 873428" d="M246.039,165.093a22.261,22.261,0,1,1-22.261-22.261,22.261,22.261,0,0,1,22.261,22.261" transform="translate(-186.445 -132.149)" fill="#fff"/>
    <path id="Trazado_873429" data-name="Trazado 873429" d="M242.04,152.378a22.262,22.262,0,0,0-35.623,26.666,22.262,22.262,0,1,1,35.623-26.666" transform="translate(-186.437 -132.157)" fill="#4c6f59"/>
    <path id="Trazado_873430" data-name="Trazado 873430" d="M320.477,246.077a15.714,15.714,0,1,1-15.714-15.714,15.714,15.714,0,0,1,15.714,15.714" transform="translate(-267.429 -213.134)" fill="#9ae1b4"/>
    <path id="Trazado_873431" data-name="Trazado 873431" d="M317.479,236.84a15.715,15.715,0,0,0-24.521,19.606,15.714,15.714,0,1,1,24.521-19.606" transform="translate(-267.432 -213.133)" fill="#fff"/>
    <path id="Trazado_873432" data-name="Trazado 873432" d="M398.382,330.834a8.863,8.863,0,1,1-8.863-8.863,8.863,8.863,0,0,1,8.863,8.863" transform="translate(-352.187 -297.89)" fill="#fff"/>
    <path id="Trazado_873433" data-name="Trazado 873433" d="M396.322,325.17a8.862,8.862,0,0,0-12.483,12.481,8.863,8.863,0,1,1,12.483-12.481" transform="translate(-352.179 -297.899)" fill="#4c6f59"/>
    <g id="Grupo_1099548" data-name="Grupo 1099548" transform="translate(8.634 4.245)" opacity="0.6" style="isolation: isolate">
      <g id="Grupo_1099547" data-name="Grupo 1099547">
        <g id="Grupo_1099546" data-name="Grupo 1099546" clip-path="url(#clip-path-4)">
          <path id="Trazado_873434" data-name="Trazado 873434" d="M144.14,114.153a28.7,28.7,0,1,1,28.7-28.7,28.731,28.731,0,0,1-28.7,28.7m0-57.094a28.4,28.4,0,1,0,28.4,28.4,28.428,28.428,0,0,0-28.4-28.4" transform="translate(-115.441 -56.755)"/>
        </g>
      </g>
    </g>
    <g id="Grupo_1099551" data-name="Grupo 1099551" transform="translate(14.92 10.531)" opacity="0.6" style="isolation: isolate">
      <g id="Grupo_1099550" data-name="Grupo 1099550">
        <g id="Grupo_1099549" data-name="Grupo 1099549" clip-path="url(#clip-path-5)">
          <path id="Trazado_873435" data-name="Trazado 873435" d="M221.9,185.629a22.413,22.413,0,0,1-16.967-37.058.152.152,0,1,1,.23.2,22.091,22.091,0,1,0,3.763-3.457.152.152,0,1,1-.178-.245A22.413,22.413,0,1,1,221.9,185.629" transform="translate(-199.49 -140.804)"/>
        </g>
      </g>
    </g>
    <g id="Grupo_1099554" data-name="Grupo 1099554" transform="translate(21.467 17.078)" opacity="0.6" style="isolation: isolate">
      <g id="Grupo_1099553" data-name="Grupo 1099553">
        <g id="Grupo_1099552" data-name="Grupo 1099552" clip-path="url(#clip-path-6)">
          <path id="Trazado_873436" data-name="Trazado 873436" d="M302.886,260.066a15.866,15.866,0,0,1,0-31.732c.23,0,.463.005.692.015a.152.152,0,0,1-.013.3c-.225-.01-.454-.015-.679-.015a15.546,15.546,0,1,0,4.038.529.152.152,0,0,1,.078-.293,15.868,15.868,0,0,1-4.117,31.193" transform="translate(-287.02 -228.334)"/>
        </g>
      </g>
    </g>
    <g id="Grupo_1099557" data-name="Grupo 1099557" transform="translate(28.319 23.929)" opacity="0.6" style="isolation: isolate">
      <g id="Grupo_1099556" data-name="Grupo 1099556">
        <g id="Grupo_1099555" data-name="Grupo 1099555" clip-path="url(#clip-path-7)">
          <path id="Trazado_873437" data-name="Trazado 873437" d="M387.642,337.972a9.014,9.014,0,1,1,9.014-9.014,9.025,9.025,0,0,1-9.014,9.014m0-17.725a8.711,8.711,0,1,0,8.711,8.711,8.721,8.721,0,0,0-8.711-8.711" transform="translate(-378.628 -319.943)"/>
        </g>
      </g>
    </g>
    <path id="Trazado_873438" data-name="Trazado 873438" d="M528.047,141.858a.921.921,0,0,1-.435.556l-35.078,19.949.917.279a.926.926,0,0,1-.27,1.812.916.916,0,0,1-.271-.041l-2.861-.875a.878.878,0,0,1-.306-.108l-.012-.006a.923.923,0,0,1-.456-1.09l.923-3.022a.925.925,0,0,1,1.157-.614.924.924,0,0,1,.614,1.155l-.258.846L526.7,140.8a.928.928,0,0,1,1.263.349.917.917,0,0,1,.088.705" transform="translate(-452.642 -130.162)" fill="#fff"/>
    <g id="Grupo_1099560" data-name="Grupo 1099560" transform="translate(36.44 10.371)" opacity="0.6" style="isolation: isolate">
      <g id="Grupo_1099559" data-name="Grupo 1099559">
        <g id="Grupo_1099558" data-name="Grupo 1099558" clip-path="url(#clip-path-8)">
          <path id="Trazado_873439" data-name="Trazado 873439" d="M491.31,162.735a1.065,1.065,0,0,1-.316-.048l-2.851-.872a1.028,1.028,0,0,1-.344-.122l0,0-.006,0a1.077,1.077,0,0,1-.531-1.269l.923-3.022a1.077,1.077,0,0,1,1.347-.715,1.076,1.076,0,0,1,.715,1.345l-.147.482L524.749,138.8a1.081,1.081,0,0,1,1.47.405,1.075,1.075,0,0,1-.4,1.469L491.043,160.45l.58.176a1.078,1.078,0,0,1-.314,2.109m-3.375-1.313.013.007a.729.729,0,0,0,.254.089l.02,0,2.861.875a.774.774,0,0,0,.968-.514.778.778,0,0,0-.515-.968l-.917-.279a.152.152,0,0,1-.031-.277l35.077-19.949a.775.775,0,0,0-.766-1.347l-34.985,19.9a.152.152,0,0,1-.22-.176l.258-.846a.775.775,0,0,0-1.1-.91.775.775,0,0,0-.378.458l-.923,3.022a.774.774,0,0,0,.381.911l.006,0m38.24-21.436h0Z" transform="translate(-487.21 -138.661)"/>
        </g>
      </g>
    </g>
    <path id="Trazado_873440" data-name="Trazado 873440" d="M906.051,130.246l-3.79,2.079a.472.472,0,0,1-.364.039l-3.2-.937a.483.483,0,0,1-.328-.6l.936-3.2a.481.481,0,0,1,.229-.288l3.788-2.076a.483.483,0,0,1,.7.557l-.667,2.278a.483.483,0,0,0,.328.6l2.278.667a.48.48,0,0,1,.1.884" transform="translate(-831.156 -115.838)" fill="#fff"/>
    <path id="Trazado_873441" data-name="Trazado 873441" d="M950.408,130.242l-3.789,2.079a.472.472,0,0,1-.331.047l3.463-1.9a.48.48,0,0,0-.1-.884l-2.278-.667a.482.482,0,0,1-.329-.6l.667-2.278a.484.484,0,0,0-.362-.608l.323-.177a.483.483,0,0,1,.7.558l-.667,2.278a.482.482,0,0,0,.329.6l2.278.667a.48.48,0,0,1,.1.884" transform="translate(-875.513 -115.833)" fill="#fff"/>
    <g id="Grupo_1099563" data-name="Grupo 1099563" transform="translate(67.038 9.212)" opacity="0.6" style="isolation: isolate">
      <g id="Grupo_1099562" data-name="Grupo 1099562">
        <g id="Grupo_1099561" data-name="Grupo 1099561" clip-path="url(#clip-path-9)">
          <path id="Trazado_873442" data-name="Trazado 873442" d="M900.153,130.657a.614.614,0,0,1-.179-.026l-3.2-.936a.624.624,0,0,1-.378-.3.634.634,0,0,1-.054-.482l.937-3.2a.632.632,0,0,1,.3-.377l3.791-2.077a.634.634,0,0,1,.916.732l-.668,2.279a.331.331,0,0,0,.225.409l2.279.668a.632.632,0,0,1,.127,1.162l-3.79,2.079a.624.624,0,0,1-.3.078m1.522-7.183a.337.337,0,0,0-.162.043l-3.788,2.076a.329.329,0,0,0-.156.2l-.937,3.206a.332.332,0,0,0,.028.252.323.323,0,0,0,.2.157l3.2.937a.32.32,0,0,0,.248-.026l3.791-2.079h0a.329.329,0,0,0-.066-.605l-2.279-.667a.634.634,0,0,1-.432-.785l.668-2.279a.323.323,0,0,0-.111-.35.326.326,0,0,0-.205-.074" transform="translate(-896.315 -123.17)"/>
        </g>
      </g>
    </g>
    <g id="Grupo_1099566" data-name="Grupo 1099566" transform="translate(2.242 2.242)" opacity="0.6" style="isolation: isolate">
      <g id="Grupo_1099565" data-name="Grupo 1099565">
        <g id="Grupo_1099564" data-name="Grupo 1099564" clip-path="url(#clip-path-10)">
          <path id="Trazado_873443" data-name="Trazado 873443" d="M802.322,33.743a.152.152,0,0,1-.109-.257l3.355-3.456a.152.152,0,0,1,.218.211L802.43,33.7a.151.151,0,0,1-.109.046" transform="translate(-744.416 -29.983)"/>
          <path id="Trazado_873444" data-name="Trazado 873444" d="M754.323,41.072a.152.152,0,0,1-.109-.257l3.355-3.456a.152.152,0,0,1,.218.211l-3.355,3.456a.152.152,0,0,1-.109.046" transform="translate(-700.007 -36.764)"/>
          <path id="Trazado_873445" data-name="Trazado 873445" d="M30.127,557.394a.152.152,0,0,1-.108-.258l4.247-4.338a.152.152,0,1,1,.217.212l-4.247,4.337a.151.151,0,0,1-.108.046" transform="translate(-29.976 -513.654)"/>
          <path id="Trazado_873446" data-name="Trazado 873446" d="M34.96,609.127a.152.152,0,0,1-.106-.26l2.349-2.3a.152.152,0,1,1,.212.216l-2.349,2.3a.151.151,0,0,1-.106.043" transform="translate(-34.447 -563.398)"/>
          <path id="Trazado_873447" data-name="Trazado 873447" d="M961.659,761.934a.152.152,0,0,1-.107-.259l3.073-3.072a.152.152,0,0,1,.214.214l-3.073,3.072a.151.151,0,0,1-.107.044" transform="translate(-891.836 -704.066)"/>
          <path id="Trazado_873448" data-name="Trazado 873448" d="M965.284,757.594a.152.152,0,0,1-.106-.26l5.512-5.377a.152.152,0,1,1,.212.217l-5.512,5.377a.151.151,0,0,1-.106.043" transform="translate(-895.19 -697.919)"/>
        </g>
      </g>
    </g>
    <path id="Trazado_873449" data-name="Trazado 873449" d="M445.088,65.547c-1.261.953-2.133,1.923-1.949,2.167s1.355-.331,2.616-1.284,2.133-1.923,1.949-2.167-1.355.331-2.616,1.284" transform="translate(-409.973 -59.405)" fill="#fff"/>
    <path id="Trazado_873450" data-name="Trazado 873450" d="M465.992,235.982c-1.261.953-2.133,1.923-1.949,2.167s1.355-.331,2.616-1.284,2.133-1.923,1.949-2.167-1.355.331-2.616,1.284" transform="translate(-429.313 -217.092)" fill="#fff"/>
  </g>
</svg>
