<svg xmlns="http://www.w3.org/2000/svg" width="85" height="85" viewBox="0 0 85 85">
  <g id="Grupo_1169584" data-name="Grupo 1169584" transform="translate(-810 -2081.5)">
    <circle id="Elipse_11505" data-name="Elipse 11505" cx="42.5" cy="42.5" r="42.5" transform="translate(810 2081.5)" fill="#ffd256"/>
    <g id="visibilidad" transform="translate(821.973 2096.586)">
      <path id="Trazado_1016520" data-name="Trazado 1016520" d="M248.384,4.768V1.192a1.192,1.192,0,1,0-2.384,0V4.768a1.192,1.192,0,1,0,2.384,0Zm0,0" transform="translate(-216.679)" fill="#b1923b"/>
      <path id="Trazado_1016521" data-name="Trazado 1016521" d="M248.384,414.768v-3.576a1.192,1.192,0,1,0-2.384,0v3.576a1.192,1.192,0,1,0,2.384,0Zm0,0" transform="translate(-216.679 -361.131)" fill="#b1923b"/>
      <path id="Trazado_1016522" data-name="Trazado 1016522" d="M136.595,29.629a1.192,1.192,0,0,0-.436,1.628l1.788,3.1a1.192,1.192,0,0,0,2.064-1.192l-1.788-3.1A1.192,1.192,0,0,0,136.595,29.629Zm0,0" transform="translate(-119.789 -25.957)" fill="#b1923b"/>
      <path id="Trazado_1016523" data-name="Trazado 1016523" d="M344.575,389.86a1.192,1.192,0,0,0,.437-1.628l-1.788-3.1a1.192,1.192,0,1,0-2.065,1.191l1.788,3.1A1.192,1.192,0,0,0,344.575,389.86Zm0,0" transform="translate(-300.355 -338.704)" fill="#b1923b"/>
      <path id="Trazado_1016524" data-name="Trazado 1016524" d="M342.947,30.066l-1.788,3.1a1.192,1.192,0,0,0,2.065,1.192l1.788-3.1a1.192,1.192,0,0,0-2.065-1.191Zm0,0" transform="translate(-300.355 -25.957)" fill="#b1923b"/>
      <path id="Trazado_1016525" data-name="Trazado 1016525" d="M138.223,389.423l1.788-3.1a1.192,1.192,0,1,0-2.064-1.191l-1.788,3.1a1.192,1.192,0,1,0,2.064,1.191Zm0,0" transform="translate(-119.789 -338.704)" fill="#b1923b"/>
      <path id="Trazado_1016526" data-name="Trazado 1016526" d="M225.535,144.768a4.768,4.768,0,1,0-4.768,4.768A4.773,4.773,0,0,0,225.535,144.768Zm-4.768,2.384a2.384,2.384,0,1,1,2.384-2.384A2.387,2.387,0,0,1,220.768,147.152Zm0,0" transform="translate(-190.255 -123.313)" fill="#b1923b"/>
      <path id="Trazado_1016527" data-name="Trazado 1016527" d="M196,227.152v1.192a1.192,1.192,0,0,0,1.192,1.192h11.919a1.192,1.192,0,0,0,1.192-1.192v-1.192a7.152,7.152,0,1,0-14.3,0Zm7.152-4.768a4.773,4.773,0,0,1,4.768,4.768h-9.535A4.773,4.773,0,0,1,203.152,222.384Zm0,0" transform="translate(-172.639 -193.778)" fill="#b1923b"/>
      <path id="Trazado_1016528" data-name="Trazado 1016528" d="M248.384,101.192A1.192,1.192,0,1,1,247.192,100,1.192,1.192,0,0,1,248.384,101.192Zm0,0" transform="translate(-216.679 -88.081)" fill="#b1923b"/>
      <path id="Trazado_1016529" data-name="Trazado 1016529" d="M36.077,104.41a1.189,1.189,0,0,0-.917.2,1.655,1.655,0,0,0-.556,1.281,1.191,1.191,0,0,0,.74,1.277,13.111,13.111,0,1,1-9.661,0,1.191,1.191,0,0,0,.74-1.277,1.65,1.65,0,0,0-.556-1.281,1.194,1.194,0,0,0-.917-.2C15.347,106.256,5.38,113.2.327,118.541a1.192,1.192,0,0,0,0,1.638c6.837,7.23,19.076,14.676,30.187,14.676,11.16,0,23.418-7.518,30.188-14.676a1.192,1.192,0,0,0,0-1.638c-4.349-4.6-14.232-12.133-24.624-14.131ZM2.887,119.361A54.613,54.613,0,0,1,19.458,108.5a15.486,15.486,0,0,0,.012,21.718A53.072,53.072,0,0,1,2.887,119.361Zm38.668,10.86A15.487,15.487,0,0,0,41.57,108.5a54.6,54.6,0,0,1,16.57,10.86,54.506,54.506,0,0,1-16.586,10.861Zm0,0" transform="translate(-0.001 -91.946)" fill="#b1923b"/>
    </g>
  </g>
</svg>
