<svg xmlns="http://www.w3.org/2000/svg" width="85" height="85" viewBox="0 0 85 85">
  <g id="Grupo_1169585" data-name="Grupo 1169585" transform="translate(-1125 -2081.5)">
    <circle id="Elipse_11506" data-name="Elipse 11506" cx="42.5" cy="42.5" r="42.5" transform="translate(1125 2081.5)" fill="#ffd256"/>
    <path id="gestion-de-riesgos" d="M71.753,19.595l-3.236-1.246a19,19,0,0,0-2.561-6.178L67.364,9a.787.787,0,0,0-.163-.876L64.133,5.056a.787.787,0,0,0-.876-.163L60.084,6.3a19,19,0,0,0-6.176-2.561L52.662.5a.787.787,0,0,0-.734-.5h-4.34a.787.787,0,0,0-.734.5L45.608,3.741A19,19,0,0,0,39.431,6.3L36.259,4.893a.787.787,0,0,0-.876.163L32.314,8.124A.787.787,0,0,0,32.152,9l1.409,3.172A18.992,18.992,0,0,0,31,18.349l-3.237,1.246a.787.787,0,0,0-.5.734v4.34a.787.787,0,0,0,.5.734L31,26.649a19,19,0,0,0,2.561,6.178L32.152,36a.787.787,0,0,0,.163.876L33.56,38.12,32.011,40.8a6.371,6.371,0,0,0,5.518,9.557H61.987A6.371,6.371,0,0,0,67.5,40.8L65.955,38.12,67.2,36.874A.787.787,0,0,0,67.364,36l-1.409-3.173a19,19,0,0,0,2.561-6.176L71.753,25.4a.787.787,0,0,0,.5-.734v-4.34A.787.787,0,0,0,71.753,19.595ZM66.142,46.388a4.749,4.749,0,0,1-4.155,2.4H37.529a4.8,4.8,0,0,1-4.155-7.2L45.6,20.409a4.8,4.8,0,0,1,8.31,0L66.142,41.59A4.749,4.749,0,0,1,66.142,46.388ZM55.276,19.622a6.371,6.371,0,0,0-11.035,0l-4.813,8.336a11.682,11.682,0,1,1,20.661,0Zm15.408,4.506L67.55,25.335a.787.787,0,0,0-.489.583,17.455,17.455,0,0,1-2.652,6.4.787.787,0,0,0-.066.758l1.364,3.071-.566.566L61,29.531a13.256,13.256,0,1,0-22.477,0l-4.144,7.178-.566-.566,1.363-3.07a.787.787,0,0,0-.066-.758,17.455,17.455,0,0,1-2.652-6.4.787.787,0,0,0-.489-.583l-3.132-1.206V20.869l3.133-1.206a.787.787,0,0,0,.489-.583,17.451,17.451,0,0,1,2.652-6.4.787.787,0,0,0,.066-.758l-1.364-3.07,2.3-2.3,3.071,1.364a.787.787,0,0,0,.758-.066A17.454,17.454,0,0,1,46.34,5.2a.787.787,0,0,0,.583-.489l1.206-3.133h3.259l1.206,3.133a.787.787,0,0,0,.583.49,17.455,17.455,0,0,1,6.4,2.652.787.787,0,0,0,.758.066L63.4,6.55l2.3,2.3-1.363,3.07a.787.787,0,0,0,.066.758,17.453,17.453,0,0,1,2.652,6.4.787.787,0,0,0,.49.583l3.132,1.206ZM49.758,40.991a2.66,2.66,0,1,0,2.66,2.66,2.663,2.663,0,0,0-2.66-2.66Zm0,3.746a1.086,1.086,0,1,1,1.086-1.086A1.087,1.087,0,0,1,49.758,44.737Zm-2.247-7.683a2.249,2.249,0,0,0,4.495,0l.37-10.234a2.249,2.249,0,0,0-2.247-2.33h-.739a2.249,2.249,0,0,0-2.247,2.33ZM48.9,26.27a.628.628,0,0,1,.486-.206h.739a.675.675,0,0,1,.675.7L50.433,37a.675.675,0,0,1-1.349,0l-.37-10.234A.628.628,0,0,1,48.9,26.27Z" transform="translate(1118.241 2097.486)" fill="#b1923b"/>
  </g>
</svg>
