<svg id="Page-1" xmlns="http://www.w3.org/2000/svg" width="57.999" height="60" viewBox="0 0 57.999 60">
  <g id="_091---Search-File" data-name="091---Search-File">
    <path id="Shape" d="M0,24V55a5.006,5.006,0,0,0,5,5H41a4.968,4.968,0,0,0,3.536-1.464,1,1,0,0,0-1.414-1.414A2.983,2.983,0,0,1,41,58H5a3,3,0,0,1-3-3V24.454L14.1,13.865a5,5,0,0,0-.126-7.633L8.8,2H41a3,3,0,0,1,3,3V19a1,1,0,0,0,2,0V5a5.006,5.006,0,0,0-5-5H6a1,1,0,0,0-.977.787l-5,23A1.021,1.021,0,0,0,0,24ZM6.63,2.808l6.078,4.973a3,3,0,0,1,.076,4.578L2.621,21.252Z" fill="#ff926d"/>
    <path id="Shape-2" data-name="Shape" d="M6,26a1,1,0,0,0-2,0v2a1,1,0,0,0,2,0Z" fill="#ff926d"/>
    <path id="Shape-3" data-name="Shape" d="M5,31a1,1,0,0,0-1,1V50a1,1,0,0,0,2,0V32A1,1,0,0,0,5,31Z" fill="#ff926d"/>
    <path id="Shape-4" data-name="Shape" d="M21,9a1,1,0,0,0,0-2H19a1,1,0,0,0,0,2Z" fill="#ff926d"/>
    <path id="Shape-5" data-name="Shape" d="M39,7H25a1,1,0,0,0,0,2H39a1,1,0,0,0,0-2Z" fill="#ff926d"/>
    <path id="Shape-6" data-name="Shape" d="M17,14a1,1,0,0,0,1,1h4a1,1,0,0,0,0-2H18A1,1,0,0,0,17,14Z" fill="#ff926d"/>
    <path id="Shape-7" data-name="Shape" d="M39,13H26a1,1,0,0,0,0,2H39a1,1,0,0,0,0-2Z" fill="#ff926d"/>
    <path id="Shape-8" data-name="Shape" d="M40.565,25.6a11.915,11.915,0,0,0-6.417-3.332,1,1,0,1,0-.343,1.97,9.979,9.979,0,1,1-5.742.688,1,1,0,0,0-.8-1.832,12,12,0,1,0,13.3,2.506Z" fill="#ff926d"/>
    <path id="Shape-9" data-name="Shape" d="M48.54,44.883l-2.69-2.691a16.016,16.016,0,1,0-5.657,5.658l2.69,2.689a1.992,1.992,0,0,0,.511,1.926l6.363,6.363a4,4,0,0,0,5.657,0l1.414-1.414a4,4,0,0,0,0-5.656l-6.364-6.364a1.993,1.993,0,0,0-1.924-.511Zm-26.36-.9a14,14,0,1,1,19.8,0,14,14,0,0,1-19.8,0ZM43.394,45.4a15.961,15.961,0,0,0,1.316-1.513l2.219,2.22-1.414,1.414L44.1,48.929,41.88,46.71a16.105,16.105,0,0,0,1.514-1.316ZM56,54.586A1.986,1.986,0,0,1,55.414,56L54,57.414a2.048,2.048,0,0,1-2.829,0L44.808,51.05l4.242-4.242,6.364,6.364A1.986,1.986,0,0,1,56,54.586Z" fill="#ff926d"/>
  </g>
</svg>
