<svg xmlns="http://www.w3.org/2000/svg" width="85" height="85" viewBox="0 0 85 85">
  <g id="Grupo_1168044" data-name="Grupo 1168044" transform="translate(-285 -2854)">
    <circle id="Elipse_11490" data-name="Elipse 11490" cx="42.5" cy="42.5" r="42.5" transform="translate(285 2854)" fill="#fffaed"/>
    <g id="investigacion_1_" data-name="investigacion (1)" transform="translate(303.999 2872)">
      <g id="Grupo_1168153" data-name="Grupo 1168153" transform="translate(0.001)">
        <g id="Grupo_1168152" data-name="Grupo 1168152">
          <path id="Trazado_1016993" data-name="Trazado 1016993" d="M39.314,0H3.189A3.188,3.188,0,0,0,0,3.188v25.5a3.188,3.188,0,0,0,3.188,3.188H17V29.75H3.189a1.063,1.063,0,0,1-1.063-1.063V3.188A1.063,1.063,0,0,1,3.189,2.125H39.314a1.063,1.063,0,0,1,1.063,1.063V22.313H42.5V3.188A3.188,3.188,0,0,0,39.314,0Z" transform="translate(-0.001)" fill="#ffd256"/>
        </g>
      </g>
      <g id="Grupo_1168155" data-name="Grupo 1168155" transform="translate(12.751 30.813)">
        <g id="Grupo_1168154" data-name="Grupo 1168154">
          <rect id="Rectángulo_420340" data-name="Rectángulo 420340" width="2.125" height="6.375" fill="#ffd256"/>
        </g>
      </g>
      <g id="Grupo_1168157" data-name="Grupo 1168157" transform="translate(4.251 22.313)">
        <g id="Grupo_1168156" data-name="Grupo 1168156">
          <path id="Trazado_1016994" data-name="Trazado 1016994" d="M45.856,227.188a1.063,1.063,0,0,1-1.063-1.063V224H42.668v2.125a3.188,3.188,0,0,0,3.188,3.188H47.98v-2.125Z" transform="translate(-42.668 -224)" fill="#ffd256"/>
        </g>
      </g>
      <g id="Grupo_1168159" data-name="Grupo 1168159" transform="translate(4.251 18.063)">
        <g id="Grupo_1168158" data-name="Grupo 1168158">
          <rect id="Rectángulo_420341" data-name="Rectángulo 420341" width="2.125" height="2.125" fill="#ffd256"/>
        </g>
      </g>
      <g id="Grupo_1168161" data-name="Grupo 1168161" transform="translate(19.125 19.124)">
        <g id="Grupo_1168160" data-name="Grupo 1168160">
          <path id="Trazado_1016995" data-name="Trazado 1016995" d="M211.694,195.371a11.544,11.544,0,1,0,0,16.326A11.544,11.544,0,0,0,211.694,195.371Zm-8.17,17.582a9.419,9.419,0,1,1,9.422-9.416A9.419,9.419,0,0,1,203.524,212.953Z" transform="translate(-191.986 -191.989)" fill="#ffd256"/>
        </g>
      </g>
      <g id="Grupo_1168163" data-name="Grupo 1168163" transform="translate(39.243 39.24)">
        <g id="Grupo_1168162" data-name="Grupo 1168162">
          <path id="Trazado_1016996" data-name="Trazado 1016996" d="M405.4,400.921l-6.669-6.667a1.062,1.062,0,0,0-1.5,0l-2.964,2.964a1.063,1.063,0,0,0,0,1.5l6.669,6.67a1.062,1.062,0,0,0,.751.311h0a1.062,1.062,0,0,0,.751-.314l2.964-2.964A1.063,1.063,0,0,0,405.4,400.921Zm-3.716,2.216-5.167-5.168,1.462-1.462,5.167,5.168Z" transform="translate(-393.956 -393.942)" fill="#ffd256"/>
        </g>
      </g>
      <g id="Grupo_1168165" data-name="Grupo 1168165" transform="translate(37.33 37.328)">
        <g id="Grupo_1168164" data-name="Grupo 1168164" transform="translate(0 0)">
          <rect id="Rectángulo_420342" data-name="Rectángulo 420342" width="2.125" height="5.24" transform="translate(0 1.503) rotate(-45)" fill="#ffd256"/>
        </g>
      </g>
      <g id="Grupo_1168167" data-name="Grupo 1168167" transform="translate(30.814 23.375)">
        <g id="Grupo_1168166" data-name="Grupo 1168166">
          <path id="Trazado_1016997" data-name="Trazado 1016997" d="M309.334,234.667v2.125a5.319,5.319,0,0,1,5.312,5.312h2.125A7.446,7.446,0,0,0,309.334,234.667Z" transform="translate(-309.334 -234.667)" fill="#ffd256"/>
        </g>
      </g>
      <g id="Grupo_1168169" data-name="Grupo 1168169" transform="translate(10.626 36.125)">
        <g id="Grupo_1168168" data-name="Grupo 1168168">
          <rect id="Rectángulo_420343" data-name="Rectángulo 420343" width="8.5" height="2.125" fill="#ffd256"/>
        </g>
      </g>
      <g id="Grupo_1168171" data-name="Grupo 1168171" transform="translate(12.751 4.25)">
        <g id="Grupo_1168170" data-name="Grupo 1168170">
          <path id="Trazado_1016998" data-name="Trazado 1016998" d="M131.189,42.667a3.188,3.188,0,1,0,3.188,3.188A3.188,3.188,0,0,0,131.189,42.667Zm0,4.25a1.063,1.063,0,1,1,1.063-1.063A1.063,1.063,0,0,1,131.189,46.917Z" transform="translate(-128.001 -42.667)" fill="#ffd256"/>
        </g>
      </g>
      <g id="Grupo_1168173" data-name="Grupo 1168173" transform="translate(20.189 11.688)">
        <g id="Grupo_1168172" data-name="Grupo 1168172">
          <path id="Trazado_1016999" data-name="Trazado 1016999" d="M205.856,117.333a3.188,3.188,0,1,0,3.188,3.188A3.188,3.188,0,0,0,205.856,117.333Zm0,4.25a1.063,1.063,0,1,1,1.063-1.063A1.063,1.063,0,0,1,205.856,121.583Z" transform="translate(-202.668 -117.333)" fill="#ffd256"/>
        </g>
      </g>
      <g id="Grupo_1168175" data-name="Grupo 1168175" transform="translate(8.812 7.749)">
        <g id="Grupo_1168174" data-name="Grupo 1168174" transform="translate(0 0)">
          <rect id="Rectángulo_420344" data-name="Rectángulo 420344" width="7.513" height="2.125" transform="translate(0 5.312) rotate(-45)" fill="#ffd256"/>
        </g>
      </g>
      <g id="Grupo_1168177" data-name="Grupo 1168177" transform="translate(16.245 7.752)">
        <g id="Grupo_1168176" data-name="Grupo 1168176" transform="translate(0 0)">
          <rect id="Rectángulo_420345" data-name="Rectángulo 420345" width="2.125" height="7.513" transform="translate(0 1.503) rotate(-45)" fill="#ffd256"/>
        </g>
      </g>
      <g id="Grupo_1168179" data-name="Grupo 1168179" transform="translate(27.626 4.25)">
        <g id="Grupo_1168178" data-name="Grupo 1168178">
          <path id="Trazado_1017000" data-name="Trazado 1017000" d="M280.522,42.667a3.188,3.188,0,1,0,3.188,3.188A3.188,3.188,0,0,0,280.522,42.667Zm0,4.25a1.063,1.063,0,1,1,1.063-1.063A1.063,1.063,0,0,1,280.522,46.917Z" transform="translate(-277.334 -42.667)" fill="#ffd256"/>
        </g>
      </g>
      <g id="Grupo_1168181" data-name="Grupo 1168181" transform="translate(23.687 7.753)">
        <g id="Grupo_1168180" data-name="Grupo 1168180" transform="translate(0 0)">
          <rect id="Rectángulo_420346" data-name="Rectángulo 420346" width="7.513" height="2.125" transform="translate(0 5.312) rotate(-45)" fill="#ffd256"/>
        </g>
      </g>
    </g>
  </g>
</svg>
