<svg id="Grupo_1099991" data-name="Grupo 1099991" xmlns="http://www.w3.org/2000/svg" xmlns:xlink="http://www.w3.org/1999/xlink" width="133.303" height="133.129" viewBox="0 0 133.303 133.129">
  <defs>
    <clipPath id="clip-path">
      <rect id="Rectángulo_401461" data-name="Rectángulo 401461" width="133.303" height="133.129" fill="none"/>
    </clipPath>
    <clipPath id="clip-path-3">
      <rect id="Rectángulo_401428" data-name="Rectángulo 401428" width="33.717" height="33.717" fill="none"/>
    </clipPath>
    <clipPath id="clip-path-5">
      <rect id="Rectángulo_401430" data-name="Rectángulo 401430" width="33.717" height="14.82" fill="none"/>
    </clipPath>
    <clipPath id="clip-path-6">
      <rect id="Rectángulo_401431" data-name="Rectángulo 401431" width="19.447" height="33.717" fill="none"/>
    </clipPath>
    <clipPath id="clip-path-7">
      <rect id="Rectángulo_401432" data-name="Rectángulo 401432" width="0.485" height="33.717" fill="none"/>
    </clipPath>
    <clipPath id="clip-path-8">
      <rect id="Rectángulo_401433" data-name="Rectángulo 401433" width="33.717" height="0.486" fill="none"/>
    </clipPath>
    <clipPath id="clip-path-9">
      <rect id="Rectángulo_401434" data-name="Rectángulo 401434" width="19.375" height="111.663" fill="none"/>
    </clipPath>
    <clipPath id="clip-path-10">
      <rect id="Rectángulo_401435" data-name="Rectángulo 401435" width="68.124" height="111.663" fill="none"/>
    </clipPath>
    <clipPath id="clip-path-11">
      <rect id="Rectángulo_401436" data-name="Rectángulo 401436" width="59.48" height="97.349" fill="none"/>
    </clipPath>
    <clipPath id="clip-path-12">
      <rect id="Rectángulo_401437" data-name="Rectángulo 401437" width="19.787" height="3.702" fill="none"/>
    </clipPath>
    <clipPath id="clip-path-13">
      <rect id="Rectángulo_401438" data-name="Rectángulo 401438" width="30.173" height="15.109" fill="none"/>
    </clipPath>
    <clipPath id="clip-path-14">
      <rect id="Rectángulo_401439" data-name="Rectángulo 401439" width="14.588" height="0.485" fill="none"/>
    </clipPath>
    <clipPath id="clip-path-15">
      <rect id="Rectángulo_401440" data-name="Rectángulo 401440" width="17.689" height="15.707" fill="none"/>
    </clipPath>
    <clipPath id="clip-path-16">
      <rect id="Rectángulo_401441" data-name="Rectángulo 401441" width="12.376" height="4.717" fill="none"/>
    </clipPath>
    <clipPath id="clip-path-17">
      <rect id="Rectángulo_401442" data-name="Rectángulo 401442" width="11.581" height="6.883" fill="none"/>
    </clipPath>
    <clipPath id="clip-path-18">
      <rect id="Rectángulo_401443" data-name="Rectángulo 401443" width="7.271" height="10.591" fill="none"/>
    </clipPath>
    <clipPath id="clip-path-19">
      <rect id="Rectángulo_401444" data-name="Rectángulo 401444" width="5.394" height="5.394" fill="none"/>
    </clipPath>
    <clipPath id="clip-path-20">
      <rect id="Rectángulo_401445" data-name="Rectángulo 401445" width="9.292" height="9.075" fill="none"/>
    </clipPath>
    <clipPath id="clip-path-21">
      <rect id="Rectángulo_401446" data-name="Rectángulo 401446" width="38.462" height="24.111" fill="none"/>
    </clipPath>
    <clipPath id="clip-path-22">
      <rect id="Rectángulo_401447" data-name="Rectángulo 401447" width="39.859" height="19.118" fill="none"/>
    </clipPath>
    <clipPath id="clip-path-23">
      <rect id="Rectángulo_401448" data-name="Rectángulo 401448" width="24.23" height="3.407" fill="none"/>
    </clipPath>
    <clipPath id="clip-path-24">
      <rect id="Rectángulo_401457" data-name="Rectángulo 401457" width="21.134" height="21.134" fill="none"/>
    </clipPath>
    <clipPath id="clip-path-25">
      <rect id="Rectángulo_401458" data-name="Rectángulo 401458" width="21.134" height="21.915" fill="none"/>
    </clipPath>
    <clipPath id="clip-path-26">
      <rect id="Rectángulo_401459" data-name="Rectángulo 401459" width="10.921" height="9.531" fill="none"/>
    </clipPath>
  </defs>
  <g id="Grupo_1099520" data-name="Grupo 1099520" clip-path="url(#clip-path)">
    <g id="Grupo_1099519" data-name="Grupo 1099519">
      <g id="Grupo_1099518" data-name="Grupo 1099518" clip-path="url(#clip-path)">
        <path id="Trazado_873347" data-name="Trazado 873347" d="M126.091,101.787H114.086a4.606,4.606,0,0,0,1.87-1.111l8.8-8.587a4.627,4.627,0,0,0-3.17-7.943h-.059a4.591,4.591,0,0,0-2.9,1.02,4.633,4.633,0,0,0-4.7,1.129l-4.054,4.054V42.489q.269-.014.537-.035c.55.043,1.1.064,1.648.064a21.244,21.244,0,0,0,0-42.487c-.545,0-1.1.022-1.648.064-.55-.043-1.1-.064-1.648-.064A21.242,21.242,0,0,0,89.327,12.694H83.2l3.82-3.936a4.627,4.627,0,1,0-6.64-6.446l-.094.1a4.637,4.637,0,0,0-5.642.779L69.284,8.713a4.625,4.625,0,0,0-1.239,3.981h-29.1a12.035,12.035,0,0,0-7.026,2.258V0H19.742V9.817H18.92V6.42H6.743v6.133H.242V26.574h26.6V95a14.894,14.894,0,0,0-10.035-3.877c-.3,0-.608.01-.927.031-.319-.021-.626-.031-.929-.031a14.952,14.952,0,0,0,0,29.9c.312,0,.628-.01.943-.03.315.02.617.03.913.03a15.012,15.012,0,0,0,2.38-.189,7.3,7.3,0,0,0,3.652.97,7.4,7.4,0,0,0,1.3-.116,7.31,7.31,0,0,0,2.7-1.067v.4a12.118,12.118,0,0,0,12.1,12.1H86.039l.017,0H97.774a12.117,12.117,0,0,0,11.242-7.632,6.141,6.141,0,0,0,2.977.766h9.417a4.606,4.606,0,0,0,1.479-.242h.041a4.608,4.608,0,0,0,1.479.242h1.683a6.187,6.187,0,0,0,6.18-6.18V107.967a6.187,6.187,0,0,0-6.18-6.18M82.124,9.362a4.145,4.145,0,0,1-.431-.208c.063-.086.125-.174.182-.263a4.119,4.119,0,0,1,.249.471m27.751,91.644a4.67,4.67,0,0,0,1.586.805,6.138,6.138,0,0,0-1.586.35Zm3.324-10.57-.038.037c0-.017-.009-.033-.012-.049l.05.013M74.62,8.312c-.064.087-.126.175-.183.265a4.1,4.1,0,0,1-.251-.476,4.107,4.107,0,0,1,.435.211" transform="translate(0 -0.001)" fill="#fff"/>
        <path id="Trazado_873348" data-name="Trazado 873348" d="M25.778,272.025a4.6,4.6,0,0,0-1.39-3.257l0,0a4.636,4.636,0,0,0-6.54.073l-6.784,6.928a4.629,4.629,0,0,0-.672,5.609,4.625,4.625,0,0,0,7.793,4.111l3.753-3.68A4.636,4.636,0,0,0,23,276.8l1.453-1.484a4.6,4.6,0,0,0,1.323-3.289m-6.718,10.6a4.185,4.185,0,0,1-1.607-.175c.075-.067.148-.135.218-.207l1.235-1.261a4.171,4.171,0,0,1,.154,1.643" transform="translate(-8.314 -228.357)" fill="#fff"/>
        <g id="Grupo_1099448" data-name="Grupo 1099448" transform="translate(95.201 4.415)" opacity="0.6" style="isolation: isolate">
          <g id="Grupo_1099447" data-name="Grupo 1099447">
            <g id="Grupo_1099446" data-name="Grupo 1099446" clip-path="url(#clip-path-3)">
              <path id="Trazado_873349" data-name="Trazado 873349" d="M686.2,48.477a16.616,16.616,0,1,1-16.616-16.616A16.616,16.616,0,0,1,686.2,48.477" transform="translate(-652.721 -31.619)"/>
              <path id="Trazado_873350" data-name="Trazado 873350" d="M668.165,63.92a16.859,16.859,0,1,1,16.859-16.858A16.878,16.878,0,0,1,668.165,63.92m0-33.233a16.374,16.374,0,1,0,16.374,16.374,16.392,16.392,0,0,0-16.374-16.374" transform="translate(-651.306 -30.203)"/>
            </g>
          </g>
        </g>
        <path id="Trazado_873351" data-name="Trazado 873351" d="M663.652,48.477a16.616,16.616,0,1,1-16.616-16.616,16.616,16.616,0,0,1,16.616,16.616" transform="translate(-538.271 -27.204)" fill="#fff"/>
        <g id="Grupo_1099451" data-name="Grupo 1099451" transform="translate(91.906 4.415)" opacity="0.6" style="isolation: isolate">
          <g id="Grupo_1099450" data-name="Grupo 1099450">
            <g id="Grupo_1099449" data-name="Grupo 1099449" clip-path="url(#clip-path-3)">
              <path id="Trazado_873352" data-name="Trazado 873352" d="M645.62,63.92a16.859,16.859,0,1,1,16.859-16.858A16.878,16.878,0,0,1,645.62,63.92m0-33.233a16.374,16.374,0,1,0,16.374,16.374A16.393,16.393,0,0,0,645.62,30.688" transform="translate(-628.762 -30.203)"/>
            </g>
          </g>
        </g>
        <g id="Grupo_1099454" data-name="Grupo 1099454" transform="translate(91.906 13.863)" opacity="0.6" style="isolation: isolate">
          <g id="Grupo_1099453" data-name="Grupo 1099453">
            <g id="Grupo_1099452" data-name="Grupo 1099452" clip-path="url(#clip-path-5)">
              <path id="Trazado_873353" data-name="Trazado 873353" d="M645.62,109.664c-9.3,0-16.858-3.324-16.858-7.41s7.563-7.41,16.858-7.41,16.859,3.324,16.859,7.41-7.563,7.41-16.859,7.41m0-14.336c-9.029,0-16.374,3.107-16.374,6.926s7.345,6.926,16.374,6.926,16.374-3.107,16.374-6.926-7.345-6.926-16.374-6.926" transform="translate(-628.762 -94.844)"/>
            </g>
          </g>
        </g>
        <g id="Grupo_1099457" data-name="Grupo 1099457" transform="translate(99.041 4.415)" opacity="0.6" style="isolation: isolate">
          <g id="Grupo_1099456" data-name="Grupo 1099456">
            <g id="Grupo_1099455" data-name="Grupo 1099455" clip-path="url(#clip-path-6)">
              <path id="Trazado_873354" data-name="Trazado 873354" d="M687.3,63.92c-5.361,0-9.723-7.563-9.723-16.858S681.938,30.2,687.3,30.2s9.723,7.563,9.723,16.859S692.661,63.92,687.3,63.92m0-33.233c-5.094,0-9.239,7.345-9.239,16.374s4.145,16.374,9.239,16.374,9.239-7.345,9.239-16.374-4.145-16.374-9.239-16.374" transform="translate(-677.576 -30.203)"/>
            </g>
          </g>
        </g>
        <g id="Grupo_1099460" data-name="Grupo 1099460" transform="translate(108.522 4.415)" opacity="0.6" style="isolation: isolate">
          <g id="Grupo_1099459" data-name="Grupo 1099459">
            <g id="Grupo_1099458" data-name="Grupo 1099458" clip-path="url(#clip-path-7)">
              <path id="Trazado_873355" data-name="Trazado 873355" d="M742.682,63.919a.242.242,0,0,1-.242-.242V30.444a.242.242,0,1,1,.484,0V63.677a.242.242,0,0,1-.242.242" transform="translate(-742.44 -30.202)"/>
            </g>
          </g>
        </g>
        <g id="Grupo_1099463" data-name="Grupo 1099463" transform="translate(91.906 21.031)" opacity="0.6" style="isolation: isolate">
          <g id="Grupo_1099462" data-name="Grupo 1099462">
            <g id="Grupo_1099461" data-name="Grupo 1099461" clip-path="url(#clip-path-8)">
              <path id="Trazado_873356" data-name="Trazado 873356" d="M662.237,144.367h0l-33.232,0a.242.242,0,1,1,0-.485l33.232,0a.242.242,0,0,1,0,.485" transform="translate(-628.762 -143.881)"/>
            </g>
          </g>
        </g>
        <path id="Trazado_873357" data-name="Trazado 873357" d="M652.615,233.533h-9.407a.242.242,0,1,1,0-.485h9.407a.242.242,0,0,1,0,.485" transform="translate(-548.984 -198.984)" fill="#fff"/>
        <g id="Grupo_1099466" data-name="Grupo 1099466" transform="translate(86.114 17.081)" opacity="0.6" style="isolation: isolate">
          <g id="Grupo_1099465" data-name="Grupo 1099465">
            <g id="Grupo_1099464" data-name="Grupo 1099464" clip-path="url(#clip-path-9)">
              <path id="Trazado_873358" data-name="Trazado 873358" d="M606.292,119.727a7.44,7.44,0,0,0-4.078-1.212H590.8V229.693h11.418a7.474,7.474,0,0,0,7.473-7.473V125.988a7.465,7.465,0,0,0-3.4-6.261" transform="translate(-590.554 -118.273)"/>
              <path id="Trazado_873359" data-name="Trazado 873359" d="M600.8,228.521H589.381a.242.242,0,0,1-.242-.242V117.1a.242.242,0,0,1,.242-.242H600.8a7.705,7.705,0,0,1,4.21,1.251h0a7.7,7.7,0,0,1,3.505,6.464v96.232a7.724,7.724,0,0,1-7.715,7.715m-11.176-.484H600.8a7.239,7.239,0,0,0,7.231-7.231V124.573a7.233,7.233,0,0,0-7.231-7.231H589.624Z" transform="translate(-589.139 -116.858)"/>
            </g>
          </g>
        </g>
        <path id="Trazado_873360" data-name="Trazado 873360" d="M282.92,125.988V222.22a7.475,7.475,0,0,1-7.473,7.473h-52.7a7.315,7.315,0,0,1-4.068-1.221,7.422,7.422,0,0,1-3.4-6.252V125.988a7.475,7.475,0,0,1,7.473-7.473h52.7a7.475,7.475,0,0,1,7.473,7.473" transform="translate(-183.811 -101.192)" fill="#cdbeff"/>
        <path id="Trazado_873361" data-name="Trazado 873361" d="M303.871,156.693v88.963a3.96,3.96,0,0,1-3.944,3.954h-51.1a3.961,3.961,0,0,1-3.947-3.954V156.693a3.962,3.962,0,0,1,3.947-3.954h9.128a3.518,3.518,0,0,0,3.507,3.517h28.639a3.512,3.512,0,0,0,3.515-3.517h6.306a3.962,3.962,0,0,1,3.944,3.954" transform="translate(-209.09 -130.413)" fill="#fff"/>
        <path id="Trazado_873362" data-name="Trazado 873362" d="M257.956,152.744a3.488,3.488,0,0,0,.735,2.147h-7.226a3.962,3.962,0,0,0-3.947,3.954v88.964a3.93,3.93,0,0,0,.383,1.693,3.963,3.963,0,0,1-3.02-3.842V156.7a3.962,3.962,0,0,1,3.947-3.954Z" transform="translate(-209.087 -130.418)" fill="#fff"/>
        <g id="Grupo_1099469" data-name="Grupo 1099469" transform="translate(31.228 17.079)" opacity="0.6" style="isolation: isolate">
          <g id="Grupo_1099468" data-name="Grupo 1099468">
            <g id="Grupo_1099467" data-name="Grupo 1099467" clip-path="url(#clip-path-10)">
              <path id="Trazado_873363" data-name="Trazado 873363" d="M274.048,228.5H221.363a7.728,7.728,0,0,1-7.719-7.719V124.561a7.728,7.728,0,0,1,7.719-7.719h52.685a7.728,7.728,0,0,1,7.719,7.719v96.225a7.728,7.728,0,0,1-7.719,7.719M221.363,117.327a7.243,7.243,0,0,0-7.234,7.235v96.225a7.243,7.243,0,0,0,7.234,7.234h52.685a7.243,7.243,0,0,0,7.235-7.234V124.561a7.243,7.243,0,0,0-7.235-7.235Z" transform="translate(-213.644 -116.842)"/>
            </g>
          </g>
        </g>
        <g id="Grupo_1099472" data-name="Grupo 1099472" transform="translate(35.551 22.084)" opacity="0.6" style="isolation: isolate">
          <g id="Grupo_1099471" data-name="Grupo 1099471">
            <g id="Grupo_1099470" data-name="Grupo 1099470" clip-path="url(#clip-path-11)">
              <path id="Trazado_873364" data-name="Trazado 873364" d="M298.5,248.435H247.415a4.2,4.2,0,0,1-4.2-4.2v-65.8a.242.242,0,1,1,.485,0v65.8a3.717,3.717,0,0,0,3.713,3.713H298.5a3.717,3.717,0,0,0,3.713-3.713V155.284a3.717,3.717,0,0,0-3.713-3.713h-6.068a3.759,3.759,0,0,1-3.744,3.515h-28.64a3.763,3.763,0,0,1-3.75-3.515h-8.883a3.717,3.717,0,0,0-3.713,3.713v15.831a.242.242,0,1,1-.485,0V155.284a4.2,4.2,0,0,1,4.2-4.2h9.118a.242.242,0,0,1,.242.242,3.277,3.277,0,0,0,3.273,3.273h28.64a3.274,3.274,0,0,0,3.267-3.273.242.242,0,0,1,.242-.242h6.3a4.2,4.2,0,0,1,4.2,4.2v88.954a4.2,4.2,0,0,1-4.2,4.2" transform="translate(-243.217 -151.086)"/>
            </g>
          </g>
        </g>
        <g id="Grupo_1099475" data-name="Grupo 1099475" transform="translate(55.395 121.896)" opacity="0.6" style="isolation: isolate">
          <g id="Grupo_1099474" data-name="Grupo 1099474">
            <g id="Grupo_1099473" data-name="Grupo 1099473" clip-path="url(#clip-path-12)">
              <path id="Trazado_873365" data-name="Trazado 873365" d="M396.913,837.642H380.826a1.85,1.85,0,0,1-1.307-3.159,1.827,1.827,0,0,1,1.307-.543H391.5a.242.242,0,1,1,0,.484H380.826a1.371,1.371,0,0,0-1.365,1.368,1.367,1.367,0,0,0,1.365,1.365h16.087a1.371,1.371,0,0,0,1.365-1.365,1.368,1.368,0,0,0-1.365-1.368h-2.645a.242.242,0,0,1,0-.484h2.645a1.853,1.853,0,0,1,1.85,1.852,1.855,1.855,0,0,1-1.85,1.85" transform="translate(-378.976 -833.939)"/>
            </g>
          </g>
        </g>
        <path id="Trazado_873366" data-name="Trazado 873366" d="M374.8,682.346v8.962a2.832,2.832,0,0,1-2.831,2.831H347.94a2.829,2.829,0,0,1-2.828-2.831v-8.962a2.829,2.829,0,0,1,2.828-2.831h24.028a2.832,2.832,0,0,1,2.831,2.831" transform="translate(-294.667 -580.191)" fill="#ff926d"/>
        <path id="Trazado_873367" data-name="Trazado 873367" d="M374.793,682.346v1.447a2.831,2.831,0,0,0-2.832-2.83H347.934a2.829,2.829,0,0,0-2.83,2.83v-1.447a2.831,2.831,0,0,1,2.83-2.832h24.027a2.833,2.833,0,0,1,2.832,2.832" transform="translate(-294.66 -580.19)" fill="#fff"/>
        <g id="Grupo_1099478" data-name="Grupo 1099478" transform="translate(50.202 99.082)" opacity="0.6" style="isolation: isolate">
          <g id="Grupo_1099477" data-name="Grupo 1099477">
            <g id="Grupo_1099476" data-name="Grupo 1099476" clip-path="url(#clip-path-13)">
              <path id="Trazado_873368" data-name="Trazado 873368" d="M370.552,692.966H346.524a3.076,3.076,0,0,1-3.071-3.074v-8.962a3.076,3.076,0,0,1,3.071-3.074h24.028a3.077,3.077,0,0,1,3.074,3.074v8.962a3.077,3.077,0,0,1-3.074,3.074m-24.028-14.625a2.591,2.591,0,0,0-2.586,2.589v8.962a2.591,2.591,0,0,0,2.586,2.589h24.028a2.592,2.592,0,0,0,2.589-2.589v-8.962a2.592,2.592,0,0,0-2.589-2.589Z" transform="translate(-343.453 -677.857)"/>
            </g>
          </g>
        </g>
        <g id="Grupo_1099481" data-name="Grupo 1099481" transform="translate(57.994 22.084)" opacity="0.6" style="isolation: isolate">
          <g id="Grupo_1099480" data-name="Grupo 1099480">
            <g id="Grupo_1099479" data-name="Grupo 1099479" clip-path="url(#clip-path-14)">
              <path id="Trazado_873369" data-name="Trazado 873369" d="M407.849,151.571H397a.242.242,0,0,1,0-.485h10.847a.242.242,0,1,1,0,.485" transform="translate(-396.76 -151.086)"/>
              <path id="Trazado_873370" data-name="Trazado 873370" d="M488.153,151.571h-.913a.242.242,0,1,1,0-.485h.913a.242.242,0,0,1,0,.485" transform="translate(-473.807 -151.086)"/>
            </g>
          </g>
        </g>
        <path id="Trazado_873371" data-name="Trazado 873371" d="M772.766,729.566v12.117a1.553,1.553,0,0,1-1.553,1.553h-14.1a1.553,1.553,0,0,1-1.553-1.553V729.566a1.553,1.553,0,0,1,1.553-1.553h14.1a1.553,1.553,0,0,1,1.553,1.553" transform="translate(-645.122 -621.6)" fill="#fff"/>
        <path id="Trazado_873372" data-name="Trazado 873372" d="M772.766,731.008v-1.441a1.553,1.553,0,0,0-1.553-1.553h-14.1a1.553,1.553,0,0,0-1.553,1.553v1.441Z" transform="translate(-645.122 -621.6)" fill="#ffd256"/>
        <g id="Grupo_1099484" data-name="Grupo 1099484" transform="translate(110.198 106.171)" opacity="0.6" style="isolation: isolate">
          <g id="Grupo_1099483" data-name="Grupo 1099483">
            <g id="Grupo_1099482" data-name="Grupo 1099482" clip-path="url(#clip-path-15)">
              <path id="Trazado_873373" data-name="Trazado 873373" d="M769.8,742.063h-1.683a.242.242,0,1,1,0-.484H769.8a1.312,1.312,0,0,0,1.311-1.311V728.151a1.312,1.312,0,0,0-1.311-1.311H755.7a1.312,1.312,0,0,0-1.311,1.311v12.117a1.312,1.312,0,0,0,1.311,1.311h9.417a.242.242,0,0,1,0,.484H755.7a1.8,1.8,0,0,1-1.8-1.8V728.151a1.8,1.8,0,0,1,1.8-1.8h14.1a1.8,1.8,0,0,1,1.8,1.8v12.117a1.8,1.8,0,0,1-1.8,1.8" transform="translate(-753.905 -726.356)"/>
            </g>
          </g>
        </g>
        <g id="Grupo_1099487" data-name="Grupo 1099487" transform="translate(112.854 113.095)" opacity="0.6" style="isolation: isolate">
          <g id="Grupo_1099486" data-name="Grupo 1099486">
            <g id="Grupo_1099485" data-name="Grupo 1099485" clip-path="url(#clip-path-16)">
              <path id="Trazado_873374" data-name="Trazado 873374" d="M772.324,778.009a1.989,1.989,0,0,1,.833-.8l.617-.356a2.909,2.909,0,0,0,.581-.411.9.9,0,0,0,.022-1.248.878.878,0,0,0-.642-.236.84.84,0,0,0-.822.45,1.612,1.612,0,0,0-.135.668h-.588a2.064,2.064,0,0,1,.222-.979,1.391,1.391,0,0,1,1.326-.668,1.364,1.364,0,0,1,1.519,1.378,1.292,1.292,0,0,1-.389.944,3.813,3.813,0,0,1-.806.552l-.44.244a2.855,2.855,0,0,0-.495.331,1.207,1.207,0,0,0-.4.62h2.511v.546h-3.157a2.681,2.681,0,0,1,.246-1.034" transform="translate(-772.078 -774.325)"/>
              <path id="Trazado_873375" data-name="Trazado 873375" d="M798.855,779.061v-1.124h-2.017v-.565l2.107-2.922h.488v2.984h.677v.5h-.677v1.124Zm-.01-1.628v-2.084l-1.474,2.084Z" transform="translate(-793.219 -774.344)"/>
              <path id="Trazado_873376" data-name="Trazado 873376" d="M822.215,773.725h.488l-1.5,4.717h-.488Z" transform="translate(-813.609 -773.725)"/>
              <path id="Trazado_873377" data-name="Trazado 873377" d="M838.065,775.065v.5a5.383,5.383,0,0,0-.589.748,7.565,7.565,0,0,0-.65,1.149,7.836,7.836,0,0,0-.424,1.1q-.093.318-.241,1.024h-.639a7.871,7.871,0,0,1,.964-2.62,8.306,8.306,0,0,1,.925-1.32h-2.543v-.581Z" transform="translate(-825.689 -774.869)"/>
            </g>
          </g>
        </g>
        <g id="Grupo_1099490" data-name="Grupo 1099490" transform="translate(72.366 5.292)" opacity="0.6" style="isolation: isolate">
          <g id="Grupo_1099489" data-name="Grupo 1099489">
            <g id="Grupo_1099488" data-name="Grupo 1099488" clip-path="url(#clip-path-17)">
              <path id="Trazado_873378" data-name="Trazado 873378" d="M534.564,42.209a.242.242,0,0,1-.174-.411l5.36-5.523a.242.242,0,0,1,.348.338l-5.36,5.523a.242.242,0,0,1-.174.074" transform="translate(-528.586 -36.202)"/>
              <path id="Trazado_873379" data-name="Trazado 873379" d="M495.322,48.2a.242.242,0,0,1-.174-.411l5.36-5.523a.242.242,0,1,1,.348.338l-5.36,5.523a.242.242,0,0,1-.174.074" transform="translate(-495.08 -41.318)"/>
            </g>
          </g>
        </g>
        <g id="Grupo_1099493" data-name="Grupo 1099493" transform="translate(5.808 43.475)" opacity="0.6" style="isolation: isolate">
          <g id="Grupo_1099492" data-name="Grupo 1099492">
            <g id="Grupo_1099491" data-name="Grupo 1099491" clip-path="url(#clip-path-18)">
              <path id="Trazado_873380" data-name="Trazado 873380" d="M39.979,304.841a.242.242,0,0,1-.173-.412l6.786-6.93a.242.242,0,0,1,.346.339l-6.786,6.93a.241.241,0,0,1-.173.073" transform="translate(-39.736 -297.426)"/>
              <path id="Trazado_873381" data-name="Trazado 873381" d="M43.931,345.549a.242.242,0,0,1-.17-.415l3.754-3.682a.242.242,0,0,1,.339.346L44.1,345.479a.242.242,0,0,1-.17.069" transform="translate(-43.111 -334.957)"/>
            </g>
          </g>
        </g>
        <g id="Grupo_1099496" data-name="Grupo 1099496" transform="translate(112.049 89.323)" opacity="0.6" style="isolation: isolate">
          <g id="Grupo_1099495" data-name="Grupo 1099495">
            <g id="Grupo_1099494" data-name="Grupo 1099494" clip-path="url(#clip-path-19)">
              <path id="Trazado_873382" data-name="Trazado 873382" d="M766.813,616.486a.242.242,0,0,1-.171-.414l4.909-4.909a.242.242,0,0,1,.343.343l-4.909,4.909a.242.242,0,0,1-.171.071" transform="translate(-766.571 -611.092)"/>
            </g>
          </g>
        </g>
        <g id="Grupo_1099499" data-name="Grupo 1099499" transform="translate(112.482 88.529)" opacity="0.6" style="isolation: isolate">
          <g id="Grupo_1099498" data-name="Grupo 1099498">
            <g id="Grupo_1099497" data-name="Grupo 1099497" clip-path="url(#clip-path-20)">
              <path id="Trazado_873383" data-name="Trazado 873383" d="M769.776,614.735a.242.242,0,0,1-.169-.416l8.807-8.591a.242.242,0,0,1,.338.347l-8.807,8.591a.242.242,0,0,1-.169.069" transform="translate(-769.533 -605.659)"/>
            </g>
          </g>
        </g>
        <path id="Trazado_873384" data-name="Trazado 873384" d="M345.166,489.351a20.711,20.711,0,0,1-34.249-9.9l-1.568.349a1.464,1.464,0,0,1-1.711-1.868l1.749-5.551a1.462,1.462,0,0,1,2.474-.55l3.932,4.291a1.462,1.462,0,0,1-.761,2.416l-1.749.388a18.289,18.289,0,0,0,30.222,8.662,1.211,1.211,0,0,1,1.66,1.764" transform="translate(-262.612 -402.458)" fill="#9ae1b4"/>
        <path id="Trazado_873385" data-name="Trazado 873385" d="M302.98,232.315a20.711,20.711,0,0,1,35.631,1.2l1.434-.723a1.464,1.464,0,0,1,2.117,1.391l-.334,5.81a1.462,1.462,0,0,1-2.263,1.14l-4.865-3.2a1.462,1.462,0,0,1,.145-2.528l1.6-.8a18.289,18.289,0,0,0-31.424-.983,1.211,1.211,0,0,1-2.042-1.3" transform="translate(-258.531 -190.182)" fill="#ffd256"/>
        <g id="Grupo_1099502" data-name="Grupo 1099502" transform="translate(44.715 68.655)" opacity="0.6" style="isolation: isolate">
          <g id="Grupo_1099501" data-name="Grupo 1099501">
            <g id="Grupo_1099500" data-name="Grupo 1099500" clip-path="url(#clip-path-21)">
              <path id="Trazado_873386" data-name="Trazado 873386" d="M329.555,493.806a20.951,20.951,0,0,1-20.228-15.485l-1.34.3a1.706,1.706,0,0,1-1.994-2.177l1.749-5.551a1.7,1.7,0,0,1,2.883-.641l3.932,4.291a1.7,1.7,0,0,1-.887,2.816l-1.5.333a18.047,18.047,0,0,0,29.756,8.3,1.453,1.453,0,1,1,1.992,2.116,20.863,20.863,0,0,1-14.361,5.7M309.5,477.791a.242.242,0,0,1,.234.182,20.469,20.469,0,0,0,33.848,9.784h0a.969.969,0,1,0-1.328-1.411,18.531,18.531,0,0,1-30.622-8.776.242.242,0,0,1,.182-.3l1.749-.388a1.219,1.219,0,0,0,.635-2.015l-3.933-4.291a1.22,1.22,0,0,0-2.064.459l-1.749,5.551a1.221,1.221,0,0,0,1.427,1.559l1.567-.349a.245.245,0,0,1,.053-.006" transform="translate(-305.912 -469.695)"/>
            </g>
          </g>
        </g>
        <g id="Grupo_1099505" data-name="Grupo 1099505" transform="translate(44.016 32.315)" opacity="0.6" style="isolation: isolate">
          <g id="Grupo_1099504" data-name="Grupo 1099504">
            <g id="Grupo_1099503" data-name="Grupo 1099503" clip-path="url(#clip-path-22)">
              <path id="Trazado_873387" data-name="Trazado 873387" d="M338.948,240.2a1.7,1.7,0,0,1-.934-.283l-4.864-3.2a1.7,1.7,0,0,1,.169-2.947l1.374-.691a18.047,18.047,0,0,0-30.884-.751,1.453,1.453,0,1,1-2.45-1.563,20.954,20.954,0,0,1,35.934,1l1.226-.618a1.706,1.706,0,0,1,2.467,1.621l-.334,5.81a1.712,1.712,0,0,1-1.7,1.612m-19.93-16.693a18.552,18.552,0,0,1,16.222,9.562.242.242,0,0,1-.1.334l-1.6.8a1.219,1.219,0,0,0-.121,2.109l4.865,3.2a1.22,1.22,0,0,0,1.888-.951l.334-5.81a1.221,1.221,0,0,0-1.766-1.161l-1.434.723a.243.243,0,0,1-.322-.1,20.469,20.469,0,0,0-35.214-1.182h0a.969.969,0,1,0,1.633,1.042,18.537,18.537,0,0,1,15.618-8.566M301.563,230.9h0Z" transform="translate(-301.13 -221.081)"/>
            </g>
          </g>
        </g>
        <g id="Grupo_1099508" data-name="Grupo 1099508" transform="translate(53.249 105.031)" opacity="0.6" style="isolation: isolate">
          <g id="Grupo_1099507" data-name="Grupo 1099507">
            <g id="Grupo_1099506" data-name="Grupo 1099506" clip-path="url(#clip-path-23)">
              <path id="Trazado_873388" data-name="Trazado 873388" d="M364.788,720.932h1.747v-.439h-1.747v-.888h1.889v-.46H364.3v3.237h2.412v-.449h-1.922Z" transform="translate(-364.297 -719.059)"/>
              <path id="Trazado_873389" data-name="Trazado 873389" d="M385.107,719.144h-.6l-.782,1.181-.777-1.165-.011-.016h-.625l1.087,1.578-1.159,1.659h.606l.857-1.272.834,1.272h.621l-1.139-1.658Z" transform="translate(-379.619 -719.058)"/>
              <path id="Trazado_873390" data-name="Trazado 873390" d="M405.7,720.671a1.355,1.355,0,0,1-.19.491.778.778,0,0,1-.692.348.876.876,0,0,1-.745-.331,1.434,1.434,0,0,1-.253-.88,1.471,1.471,0,0,1,.279-.983.924.924,0,0,1,.728-.316.869.869,0,0,1,.572.17.839.839,0,0,1,.271.465l.007.028h.487l0-.04a1.159,1.159,0,0,0-.379-.743,1.337,1.337,0,0,0-.958-.327,1.394,1.394,0,0,0-1.133.5,2.088,2.088,0,0,0,.127,2.562,1.382,1.382,0,0,0,.95.343,1.359,1.359,0,0,0,1.043-.419,1.471,1.471,0,0,0,.38-.859l0-.04H405.7Z" transform="translate(-397.606 -718.555)"/>
              <path id="Trazado_873391" data-name="Trazado 873391" d="M428.231,720.452h-1.573v-1.308h-.506v3.237h.506V720.9h1.573v1.48h.506v-3.237h-.506Z" transform="translate(-417.111 -719.058)"/>
              <path id="Trazado_873392" data-name="Trazado 873392" d="M447.661,719.145h-.535l-1.219,3.237h.518l.343-.948h1.2l.321.948h.547l-1.166-3.213Zm.144,1.868h-.888l.458-1.253Z" transform="translate(-433.978 -719.059)"/>
              <path id="Trazado_873393" data-name="Trazado 873393" d="M470.112,721.617l-1.531-2.456-.011-.017h-.563v3.237h.482v-2.472l1.555,2.455.011.017h.537v-3.237h-.48Z" transform="translate(-452.848 -719.058)"/>
              <path id="Trazado_873394" data-name="Trazado 873394" d="M490.466,720.565h.99a.988.988,0,0,1-.275.741,1,1,0,0,1-.686.24.885.885,0,0,1-.778-.339,1.54,1.54,0,0,1-.241-.9,1.387,1.387,0,0,1,.291-.958.932.932,0,0,1,.713-.318,1.074,1.074,0,0,1,.594.152.74.74,0,0,1,.305.483l.006.028h.5l-.007-.042a1.164,1.164,0,0,0-.6-.894,1.671,1.671,0,0,0-.788-.177,1.41,1.41,0,0,0-1.087.46,1.84,1.84,0,0,0-.44,1.289,1.77,1.77,0,0,0,.454,1.281,1.438,1.438,0,0,0,.991.373,1.487,1.487,0,0,0,.735-.164,1.542,1.542,0,0,0,.349-.29l.094.37h.34v-1.766h-1.462Z" transform="translate(-470.742 -718.58)"/>
              <path id="Trazado_873395" data-name="Trazado 873395" d="M514.051,721.932v-1H515.8v-.439h-1.747V719.6h1.889v-.46h-2.38v3.237h2.412v-.45Z" transform="translate(-491.743 -719.058)"/>
            </g>
          </g>
        </g>
        <rect id="Rectángulo_401449" data-name="Rectángulo 401449" width="3.407" height="7.987" transform="translate(17.628 14.202)" fill="#fff"/>
        <rect id="Rectángulo_401450" data-name="Rectángulo 401450" width="3.407" height="11.384" transform="translate(11.128 10.804)" fill="#fff"/>
        <rect id="Rectángulo_401451" data-name="Rectángulo 401451" width="3.409" height="5.251" transform="translate(4.627 16.937)" fill="#fff"/>
        <rect id="Rectángulo_401452" data-name="Rectángulo 401452" width="3.409" height="17.803" transform="translate(24.127 4.385)" fill="#fff"/>
        <rect id="Rectángulo_401453" data-name="Rectángulo 401453" width="3.407" height="5.107" transform="translate(17.628 17.081)" fill="#ff926d"/>
        <rect id="Rectángulo_401454" data-name="Rectángulo 401454" width="3.407" height="7.28" transform="translate(11.128 14.908)" fill="#ff926d"/>
        <rect id="Rectángulo_401455" data-name="Rectángulo 401455" width="3.409" height="3.358" transform="translate(4.627 18.83)" fill="#ff926d"/>
        <rect id="Rectángulo_401456" data-name="Rectángulo 401456" width="3.409" height="14.778" transform="translate(24.127 7.41)" fill="#ff926d"/>
        <g id="Grupo_1099511" data-name="Grupo 1099511" transform="translate(4.385 95.508)" opacity="0.6" style="isolation: isolate">
          <g id="Grupo_1099510" data-name="Grupo 1099510">
            <g id="Grupo_1099509" data-name="Grupo 1099509" clip-path="url(#clip-path-24)">
              <path id="Trazado_873396" data-name="Trazado 873396" d="M41.982,655.065a10.324,10.324,0,0,1,8.93,15.506H44.368v4.865a10.325,10.325,0,1,1-2.386-20.371" transform="translate(-31.415 -654.823)"/>
              <path id="Trazado_873397" data-name="Trazado 873397" d="M40.567,674.542a10.568,10.568,0,1,1,9.14-5.264.242.242,0,0,1-.209.12H43.2v4.623a.242.242,0,0,1-.186.236,10.592,10.592,0,0,1-2.442.285m0-20.65a10.082,10.082,0,1,0,2.144,19.935v-4.672a.242.242,0,0,1,.242-.242h6.4a10.082,10.082,0,0,0-8.79-15.021" transform="translate(-30 -653.408)"/>
            </g>
          </g>
        </g>
        <path id="Trazado_873398" data-name="Trazado 873398" d="M44.354,665.39a10.327,10.327,0,0,0,13.973,9.66,2.7,2.7,0,1,0,4.34-3.12,10.325,10.325,0,1,0-18.314-6.54" transform="translate(-37.871 -559.315)" fill="#fff"/>
        <g id="Grupo_1099514" data-name="Grupo 1099514" transform="translate(6.241 95.508)" opacity="0.6" style="isolation: isolate">
          <g id="Grupo_1099513" data-name="Grupo 1099513">
            <g id="Grupo_1099512" data-name="Grupo 1099512" clip-path="url(#clip-path-25)">
              <path id="Trazado_873399" data-name="Trazado 873399" d="M59.295,675.323a2.924,2.924,0,0,1-2.492-1.39,10.572,10.572,0,1,1,4.766-3.426,2.942,2.942,0,0,1-1.748,4.769,2.973,2.973,0,0,1-.526.047m-2.383-1.931a.242.242,0,0,1,.215.13,2.457,2.457,0,1,0,3.951-2.84.243.243,0,0,1-.012-.321,10.082,10.082,0,1,0-7.8,3.7,10,10,0,0,0,3.562-.649.241.241,0,0,1,.086-.016" transform="translate(-42.696 -653.408)"/>
            </g>
          </g>
        </g>
        <g id="Grupo_1099517" data-name="Grupo 1099517" transform="translate(11.348 101.7)" opacity="0.6" style="isolation: isolate">
          <g id="Grupo_1099516" data-name="Grupo 1099516">
            <g id="Grupo_1099515" data-name="Grupo 1099515" clip-path="url(#clip-path-26)">
              <path id="Trazado_873400" data-name="Trazado 873400" d="M99.98,695.782l-.821-.012L93.8,705.224l-.037.064.821.013,5.362-9.454Z" transform="translate(-91.403 -695.77)"/>
              <path id="Trazado_873401" data-name="Trazado 873401" d="M124.729,729.015a2.3,2.3,0,1,0,.651,1.64,2.23,2.23,0,0,0-.651-1.64m-.36,1.624a1.3,1.3,0,1,1-.366-.92,1.252,1.252,0,0,1,.366.92" transform="translate(-114.459 -723.557)"/>
              <path id="Trazado_873402" data-name="Trazado 873402" d="M82.25,699.193a2.307,2.307,0,1,0-.7,1.619,2.241,2.241,0,0,0,.7-1.619m-1.01-.016a1.3,1.3,0,1,1-.366-.92,1.252,1.252,0,0,1,.366.92" transform="translate(-77.634 -696.689)"/>
            </g>
          </g>
        </g>
      </g>
    </g>
  </g>
</svg>
