<svg id="Grupo_1099990" data-name="Grupo 1099990" xmlns="http://www.w3.org/2000/svg" xmlns:xlink="http://www.w3.org/1999/xlink" width="113.576" height="119.768" viewBox="0 0 113.576 119.768">
  <defs>
    <clipPath id="clip-path">
      <rect id="Rectángulo_401484" data-name="Rectángulo 401484" width="113.576" height="119.768" fill="none"/>
    </clipPath>
    <clipPath id="clip-path-2">
      <rect id="Rectángulo_401483" data-name="Rectángulo 401483" width="113.576" height="119.767" fill="none"/>
    </clipPath>
    <clipPath id="clip-path-3">
      <rect id="Rectángulo_401462" data-name="Rectángulo 401462" width="26.473" height="26.473" fill="none"/>
    </clipPath>
    <clipPath id="clip-path-4">
      <rect id="Rectángulo_401463" data-name="Rectángulo 401463" width="11.711" height="39.931" fill="none"/>
    </clipPath>
    <clipPath id="clip-path-5">
      <rect id="Rectángulo_401464" data-name="Rectángulo 401464" width="36.944" height="45.646" fill="none"/>
    </clipPath>
    <clipPath id="clip-path-7">
      <rect id="Rectángulo_401468" data-name="Rectángulo 401468" width="11.71" height="39.932" fill="none"/>
    </clipPath>
    <clipPath id="clip-path-8">
      <rect id="Rectángulo_401471" data-name="Rectángulo 401471" width="36.944" height="45.647" fill="none"/>
    </clipPath>
    <clipPath id="clip-path-9">
      <rect id="Rectángulo_401474" data-name="Rectángulo 401474" width="36.943" height="45.647" fill="none"/>
    </clipPath>
    <clipPath id="clip-path-10">
      <rect id="Rectángulo_401475" data-name="Rectángulo 401475" width="48.005" height="81.241" fill="none"/>
    </clipPath>
    <clipPath id="clip-path-11">
      <rect id="Rectángulo_401476" data-name="Rectángulo 401476" width="81.241" height="81.24" fill="none"/>
    </clipPath>
    <clipPath id="clip-path-12">
      <rect id="Rectángulo_401477" data-name="Rectángulo 401477" width="63.446" height="63.446" fill="none"/>
    </clipPath>
    <clipPath id="clip-path-13">
      <rect id="Rectángulo_401478" data-name="Rectángulo 401478" width="44.914" height="44.914" fill="none"/>
    </clipPath>
    <clipPath id="clip-path-14">
      <rect id="Rectángulo_401479" data-name="Rectángulo 401479" width="25.518" height="25.518" fill="none"/>
    </clipPath>
    <clipPath id="clip-path-15">
      <rect id="Rectángulo_401480" data-name="Rectángulo 401480" width="55.414" height="34.074" fill="none"/>
    </clipPath>
    <clipPath id="clip-path-16">
      <rect id="Rectángulo_401481" data-name="Rectángulo 401481" width="11.692" height="10.596" fill="none"/>
    </clipPath>
    <clipPath id="clip-path-17">
      <rect id="Rectángulo_401482" data-name="Rectángulo 401482" width="107.229" height="84.464" fill="none"/>
    </clipPath>
  </defs>
  <g id="Grupo_1099569" data-name="Grupo 1099569" clip-path="url(#clip-path)">
    <g id="Grupo_1099568" data-name="Grupo 1099568" transform="translate(0 0)">
      <g id="Grupo_1099567" data-name="Grupo 1099567" clip-path="url(#clip-path-2)">
        <path id="Trazado_873403" data-name="Trazado 873403" d="M112.616,77.45h0a3.4,3.4,0,0,0-4.794-.06l-.052.051a3.4,3.4,0,0,0-1.325-.307l-.515-.161,1.393-1.393.046-.047a3.923,3.923,0,0,0,.642-4.566q.154-.343.289-.694a3.892,3.892,0,0,0,2.768-3.744V63.707a3.9,3.9,0,0,0-2.771-3.748q-.136-.35-.29-.694a3.934,3.934,0,0,0-.624-4.56l-2.038-2.04-.063-.061a3.943,3.943,0,0,0-1.394-.852l-1.36-1.36-.063-.061a4.181,4.181,0,0,0-1.2-.8q.1-1.45.1-2.9a43.674,43.674,0,0,0-4.812-19.946l.934-.531,1.681.491a4.1,4.1,0,0,0,3.111-.333l5.36-2.94a4.057,4.057,0,0,0,2.1-4.02,4.1,4.1,0,0,0-.176-.82,4.737,4.737,0,0,0,.441-1.06,4.7,4.7,0,0,0-4.249-5.956,4.08,4.08,0,0,0-5.234-1.147l-5.366,2.94-.053.03a4.047,4.047,0,0,0-1.9,2.412l-.709,2.427-1.119.636a44.424,44.424,0,0,0-8.43-7.858l.049-.05a3.37,3.37,0,0,0,2.148.768,3.413,3.413,0,0,0,2.433-1.029L92.318,5.75a3.391,3.391,0,0,0-4.869-4.72l-.5.515a3.389,3.389,0,0,0-4.581.261L77.62,6.7a3.409,3.409,0,0,0-.541.732A43.849,43.849,0,0,0,57.563,2.835c-.753,0-1.541.022-2.345.065-.8-.043-1.594-.065-2.377-.065A43.811,43.811,0,0,0,9.926,55.386a3.388,3.388,0,0,0-2.945.971L.965,62.5a3.4,3.4,0,0,0-.344,4.328,3.39,3.39,0,0,0,5.653,3.277L9.6,66.844a3.4,3.4,0,0,0,.587-4.069l1.4-1.432A44,44,0,0,0,36.2,87.142l-8.12,10.94-8.18,7.452a6.357,6.357,0,0,0,.5,9.793l4.3,3.192a6.339,6.339,0,0,0,4.965,1.14,6.282,6.282,0,0,0,1.176.111h0a6.368,6.368,0,0,0,5.736-3.6l4.761-9.987,4.717-6.355v1.523L43.927,112.2a6.357,6.357,0,0,0,6.238,7.566h7.717a6.357,6.357,0,0,0,6.238-7.563l-2.128-10.863V99.822l4.714,6.352,4.764,9.988a6.358,6.358,0,0,0,6.918,3.5,6.342,6.342,0,0,0,4.961-1.141l4.3-3.191a6.354,6.354,0,0,0,.493-9.8l-8.172-7.447L72.373,87.85a43.8,43.8,0,0,0,14.98-9.141,3.907,3.907,0,0,0,.717-.1,4.141,4.141,0,0,0,2.025.779,3.953,3.953,0,0,0,3.373,1.923h2.808a3.942,3.942,0,0,0,3.584-2.332h3.231L99.6,82.472a3.4,3.4,0,0,0-.507,4.141,3.39,3.39,0,0,0,5.657,3.241l7.8-7.611a3.4,3.4,0,0,0,.061-4.793M6.842,67.36a2.991,2.991,0,0,1-.886-.264l.634-.648a2.961,2.961,0,0,1,.252.912" transform="translate(0 -0.003)" fill="#fff"/>
        <path id="Trazado_873404" data-name="Trazado 873404" d="M798.6,502.971l-.967-.213a.911.911,0,0,1-.672-.655,11.216,11.216,0,0,0-1.042-2.5.916.916,0,0,1,.01-.936l.535-.854a.762.762,0,0,0-.1-.936L794.39,494.9a.762.762,0,0,0-.936-.1l-.843.532a.914.914,0,0,1-.939.014,11.159,11.159,0,0,0-2.5-1.032.915.915,0,0,1-.658-.672l-.219-.977a.742.742,0,0,0-.73-.583h-2.815a.745.745,0,0,0-.727.583l-.223.977a.915.915,0,0,1-.658.672,11.014,11.014,0,0,0-2.485,1.028.907.907,0,0,1-.939-.01l-.843-.532a.762.762,0,0,0-.936.1l-1.978,1.978a.767.767,0,0,0-.1.946l.531.83a.912.912,0,0,1,.014.946,11.061,11.061,0,0,0-1.035,2.5.915.915,0,0,1-.675.658l-.97.216a.744.744,0,0,0-.586.727v2.8a.759.759,0,0,0,.593.74l.963.213a.9.9,0,0,1,.675.658,10.839,10.839,0,0,0,1.032,2.489.9.9,0,0,1-.01.946l-.535.84a.758.758,0,0,0,.106.932l1.978,1.982a.763.763,0,0,0,.936.106l.843-.538a.913.913,0,0,1,.943-.014,11.143,11.143,0,0,0,2.492,1.035.916.916,0,0,1,.655.675l.216.967a.752.752,0,0,0,.734.593h2.808a.751.751,0,0,0,.73-.593l.212-.967a.92.92,0,0,1,.658-.675,11.042,11.042,0,0,0,2.492-1.032.913.913,0,0,1,.943.01l.85.538a.747.747,0,0,0,.929-.1l1.985-1.985a.756.756,0,0,0,.1-.932l-.531-.843a.907.907,0,0,1-.01-.939,11.178,11.178,0,0,0,1.039-2.492.9.9,0,0,1,.675-.658l.963-.216a.741.741,0,0,0,.583-.723V503.7a.745.745,0,0,0-.583-.727m-12.438,7.823a5.686,5.686,0,1,1,5.684-5.687,5.688,5.688,0,0,1-5.684,5.687" transform="translate(-691.293 -439.993)" fill="#fff"/>
        <g id="Grupo_1099524" data-name="Grupo 1099524" transform="translate(78.667 49.761)" opacity="0.6" style="isolation: isolate">
          <g id="Grupo_1099523" data-name="Grupo 1099523">
            <g id="Grupo_1099522" data-name="Grupo 1099522" clip-path="url(#clip-path-3)">
              <path id="Trazado_873405" data-name="Trazado 873405" d="M757.755,496.531h-2.808a.972.972,0,0,1-.943-.762l-.216-.966a.7.7,0,0,0-.5-.516,11.364,11.364,0,0,1-2.539-1.055.7.7,0,0,0-.722.008l-.843.538a.978.978,0,0,1-1.2-.131L746,491.662a.972.972,0,0,1-.135-1.2l.534-.84a.689.689,0,0,0,.006-.723,11.083,11.083,0,0,1-1.053-2.54.691.691,0,0,0-.514-.506l-.964-.213a.971.971,0,0,1-.762-.95v-2.8a.954.954,0,0,1,.755-.936l.97-.216a.7.7,0,0,0,.515-.505,11.313,11.313,0,0,1,1.056-2.549.692.692,0,0,0-.008-.724l-.532-.83a.98.98,0,0,1,.131-1.213l1.979-1.979a.979.979,0,0,1,1.2-.125l.842.531a.693.693,0,0,0,.718.005,11.252,11.252,0,0,1,2.534-1.049.7.7,0,0,0,.506-.513l.223-.977a.965.965,0,0,1,.936-.75h2.815a.959.959,0,0,1,.94.754l.219.974a.7.7,0,0,0,.505.512,11.367,11.367,0,0,1,2.545,1.052.7.7,0,0,0,.72-.008l.843-.532a.977.977,0,0,1,1.2.122l1.982,1.982a.978.978,0,0,1,.125,1.2l-.534.852a.7.7,0,0,0,0,.717,11.458,11.458,0,0,1,1.061,2.546.7.7,0,0,0,.513.5l.965.212h0a.965.965,0,0,1,.751.936v2.822a.951.951,0,0,1-.751.933l-.963.216a.691.691,0,0,0-.515.505A11.407,11.407,0,0,1,766.3,488.9a.694.694,0,0,0,0,.718l.532.844a.969.969,0,0,1-.123,1.2l-1.988,1.988a.966.966,0,0,1-1.2.132l-.849-.538a.7.7,0,0,0-.722-.005,11.3,11.3,0,0,1-2.541,1.052.709.709,0,0,0-.506.517l-.212.965a.964.964,0,0,1-.94.762m-7.371-3.824a1.166,1.166,0,0,1,.572.151,10.946,10.946,0,0,0,2.445,1.016,1.13,1.13,0,0,1,.807.836l.216.966a.54.54,0,0,0,.524.425h2.808a.533.533,0,0,0,.52-.422l.213-.969a1.139,1.139,0,0,1,.81-.836,10.866,10.866,0,0,0,2.445-1.012,1.129,1.129,0,0,1,1.163.015l.85.538a.535.535,0,0,0,.663-.073l1.985-1.985a.54.54,0,0,0,.067-.665l-.532-.844a1.121,1.121,0,0,1-.015-1.16,10.963,10.963,0,0,0,1.019-2.444,1.118,1.118,0,0,1,.837-.81l.962-.215a.525.525,0,0,0,.415-.514v-2.822a.533.533,0,0,0-.414-.517l-.967-.213a1.128,1.128,0,0,1-.833-.808,11.037,11.037,0,0,0-1.022-2.45,1.134,1.134,0,0,1,.015-1.155l.535-.853a.549.549,0,0,0-.07-.674l-1.974-1.974a.547.547,0,0,0-.669-.067l-.844.532a1.134,1.134,0,0,1-1.159.02,10.937,10.937,0,0,0-2.448-1.013,1.128,1.128,0,0,1-.81-.831l-.22-.978a.529.529,0,0,0-.521-.415h-2.815a.533.533,0,0,0-.517.415l-.223.978a1.129,1.129,0,0,1-.811.831,10.814,10.814,0,0,0-2.436,1.008,1.12,1.12,0,0,1-1.16-.016l-.842-.531a.548.548,0,0,0-.674.07l-1.974,1.974a.551.551,0,0,0-.073.681l.53.827a1.129,1.129,0,0,1,.02,1.167,10.887,10.887,0,0,0-1.015,2.452,1.13,1.13,0,0,1-.835.81l-.971.216a.527.527,0,0,0-.418.517v2.8a.543.543,0,0,0,.426.531l.962.212a1.118,1.118,0,0,1,.836.812,10.632,10.632,0,0,0,1.011,2.439,1.115,1.115,0,0,1-.016,1.169l-.534.839a.543.543,0,0,0,.08.669l1.975,1.979a.548.548,0,0,0,.668.077l.844-.538a1.1,1.1,0,0,1,.592-.171m5.965-3.513a5.9,5.9,0,1,1,5.9-5.9,5.909,5.909,0,0,1-5.9,5.9m0-11.371a5.471,5.471,0,1,0,5.469,5.469,5.477,5.477,0,0,0-5.469-5.469" transform="translate(-743.111 -470.058)"/>
            </g>
          </g>
        </g>
        <g id="Grupo_1099527" data-name="Grupo 1099527" transform="translate(49.347 76.66)" opacity="0.6" style="isolation: isolate">
          <g id="Grupo_1099526" data-name="Grupo 1099526">
            <g id="Grupo_1099525" data-name="Grupo 1099525" clip-path="url(#clip-path-4)">
              <path id="Trazado_873406" data-name="Trazado 873406" d="M476.491,765.685h-5.355a2.967,2.967,0,0,1-2.91-3.533l2.189-11.173v-24.8h6.8v24.8l2.189,11.173a2.967,2.967,0,0,1-2.908,3.533" transform="translate(-467.958 -725.969)"/>
              <path id="Trazado_873407" data-name="Trazado 873407" d="M474.682,764.087h-5.355a3.182,3.182,0,0,1-3.121-3.788l2.185-11.154V724.371a.215.215,0,0,1,.215-.215H475.4a.215.215,0,0,1,.215.215v24.775L477.8,760.3a3.181,3.181,0,0,1-3.119,3.789m-5.861-39.5v24.581a.214.214,0,0,1,0,.041l-2.189,11.173a2.753,2.753,0,0,0,2.7,3.277h5.355a2.752,2.752,0,0,0,2.7-3.278l-2.189-11.172a.217.217,0,0,1,0-.041V724.585Z" transform="translate(-466.149 -724.156)"/>
            </g>
          </g>
        </g>
        <g id="Grupo_1099530" data-name="Grupo 1099530" transform="translate(23.369 70.945)" opacity="0.6" style="isolation: isolate">
          <g id="Grupo_1099529" data-name="Grupo 1099529">
            <g id="Grupo_1099528" data-name="Grupo 1099528" clip-path="url(#clip-path-5)">
              <path id="Trazado_873408" data-name="Trazado 873408" d="M259.29,676.244l-21.677,29.2,0,.006-4.9,10.27a2.969,2.969,0,0,1-4.443,1.1l-4.3-3.191a2.964,2.964,0,0,1-.23-4.569l8.415-7.669,21.675-29.2Z" transform="translate(-222.561 -671.979)"/>
              <path id="Trazado_873409" data-name="Trazado 873409" d="M228.217,715.812a3.165,3.165,0,0,1-1.889-.626l-4.3-3.192a3.179,3.179,0,0,1-.247-4.9l8.4-7.655,21.662-29.187a.215.215,0,0,1,.3-.044l5.458,4.05a.215.215,0,0,1,.044.3L235.98,703.75,231.093,714a3.191,3.191,0,0,1-2.876,1.809m23.845-45.131-21.547,29.032a.2.2,0,0,1-.028.031l-8.415,7.669a2.749,2.749,0,0,0,.213,4.238l4.3,3.192a2.754,2.754,0,0,0,4.122-1.024l4.9-10.269a.2.2,0,0,1,.016-.027l21.559-29.046Z" transform="translate(-220.747 -670.166)"/>
            </g>
          </g>
        </g>
        <g id="Grupo_1099533" data-name="Grupo 1099533" transform="translate(50.092 70.945)" opacity="0.6" style="isolation: isolate">
          <g id="Grupo_1099532" data-name="Grupo 1099532">
            <g id="Grupo_1099531" data-name="Grupo 1099531" clip-path="url(#clip-path-5)">
              <path id="Trazado_873410" data-name="Trazado 873410" d="M510.533,713.636l-4.3,3.191a2.969,2.969,0,0,1-4.443-1.1l-4.9-10.27,0-.006-21.677-29.2,5.458-4.05,21.675,29.2,8.415,7.669a2.964,2.964,0,0,1-.23,4.569" transform="translate(-475 -671.979)"/>
              <path id="Trazado_873411" data-name="Trazado 873411" d="M502.661,715.812A3.191,3.191,0,0,1,499.786,714L494.9,703.751,473.23,674.558a.215.215,0,0,1,.045-.3l5.458-4.05a.215.215,0,0,1,.3.044l21.662,29.187,8.4,7.655a3.179,3.179,0,0,1-.246,4.9l-4.3,3.191a3.166,3.166,0,0,1-1.889.626M473.7,674.475l21.549,29.032a.3.3,0,0,1,.026.042l4.9,10.27a2.754,2.754,0,0,0,4.121,1.023l4.3-3.191h0a2.749,2.749,0,0,0,.213-4.239l-8.415-7.668a.213.213,0,0,1-.028-.031l-21.547-29.032Z" transform="translate(-473.187 -670.166)"/>
            </g>
          </g>
        </g>
        <rect id="Rectángulo_401466" data-name="Rectángulo 401466" width="6.796" height="24.804" transform="translate(49.444 76.874)" fill="#ffd256"/>
        <rect id="Rectángulo_401467" data-name="Rectángulo 401467" width="1.57" height="24.803" transform="translate(49.445 76.876)" fill="#fff"/>
        <path id="Trazado_873412" data-name="Trazado 873412" d="M454.192,975.123h-5.355a2.967,2.967,0,0,1-2.909-3.534l2.188-11.171h6.8l2.188,11.171a2.967,2.967,0,0,1-2.908,3.534" transform="translate(-398.673 -858.747)" fill="#ff926d"/>
        <path id="Trazado_873413" data-name="Trazado 873413" d="M454.987,975.007a2.763,2.763,0,0,1-.8.114h-5.354a2.965,2.965,0,0,1-2.908-3.533l2.19-11.171h1.923l-2.17,11.057a2.967,2.967,0,0,0,2.908,3.533Z" transform="translate(-398.666 -858.746)" fill="#fff"/>
        <g id="Grupo_1099536" data-name="Grupo 1099536" transform="translate(46.987 76.659)" opacity="0.6" style="isolation: isolate">
          <g id="Grupo_1099535" data-name="Grupo 1099535">
            <g id="Grupo_1099534" data-name="Grupo 1099534" clip-path="url(#clip-path-7)">
              <path id="Trazado_873414" data-name="Trazado 873414" d="M472.044,749.382h-6.8a.215.215,0,0,1-.215-.215v-2.919a.215.215,0,1,1,.429,0v2.7h6.366V724.578h-6.366v17.634a.215.215,0,0,1-.429,0V724.364a.215.215,0,0,1,.215-.215h6.8a.215.215,0,0,1,.215.215v24.8a.215.215,0,0,1-.215.215" transform="translate(-462.791 -724.149)"/>
              <path id="Trazado_873415" data-name="Trazado 873415" d="M452.382,973.525h-5.355a3.182,3.182,0,0,1-3.119-3.789l2.188-11.172a.215.215,0,0,1,.211-.173h6.8a.215.215,0,0,1,.211.173l2.188,11.172a3.181,3.181,0,0,1-3.119,3.79m-5.9-14.705-2.154,11a2.752,2.752,0,0,0,2.7,3.278h5.355a2.752,2.752,0,0,0,2.7-3.279l-2.154-11Z" transform="translate(-443.85 -933.593)"/>
            </g>
          </g>
        </g>
        <rect id="Rectángulo_401469" data-name="Rectángulo 401469" width="36.377" height="6.796" transform="matrix(0.596, -0.803, 0.803, 0.596, 30.599, 100.369)" fill="#ffd256"/>
        <rect id="Rectángulo_401470" data-name="Rectángulo 401470" width="36.377" height="1.778" transform="translate(30.599 100.369) rotate(-53.42)" fill="#fff"/>
        <path id="Trazado_873416" data-name="Trazado 873416" d="M205.966,963.5l-4.3-3.191a2.967,2.967,0,0,1-.229-4.571l8.415-7.667,5.457,4.05-4.9,10.275a2.967,2.967,0,0,1-4.442,1.1" transform="translate(-179.248 -847.707)" fill="#ff926d"/>
        <path id="Trazado_873417" data-name="Trazado 873417" d="M215.311,952.127l-.079.17-4.207-3.121-8.413,7.667a2.968,2.968,0,0,0-.485,3.811l-.459-.339a2.965,2.965,0,0,1-.227-4.57l8.413-7.667Z" transform="translate(-179.252 -847.713)" fill="#fff"/>
        <g id="Grupo_1099539" data-name="Grupo 1099539" transform="translate(21.007 70.944)" opacity="0.6" style="isolation: isolate">
          <g id="Grupo_1099538" data-name="Grupo 1099538">
            <g id="Grupo_1099537" data-name="Grupo 1099537" clip-path="url(#clip-path-8)">
              <path id="Trazado_873418" data-name="Trazado 873418" d="M292.7,703.851a.214.214,0,0,1-.128-.042l-5.457-4.05a.215.215,0,0,1-.044-.3l21.68-29.211a.215.215,0,0,1,.3-.044l5.457,4.05a.215.215,0,0,1,.044.3l-21.68,29.211a.215.215,0,0,1-.173.087m-5.156-4.309,5.112,3.794,21.424-28.866-5.112-3.794Z" transform="translate(-277.647 -670.161)"/>
              <path id="Trazado_873419" data-name="Trazado 873419" d="M205.913,962.487a3.164,3.164,0,0,1-1.888-.626l-4.3-3.191a3.182,3.182,0,0,1-.247-4.9l8.416-7.667a.215.215,0,0,1,.272-.014l5.457,4.05a.215.215,0,0,1,.066.265l-4.9,10.275a3.19,3.19,0,0,1-2.875,1.81m2.139-15.95-8.285,7.548a2.752,2.752,0,0,0,.213,4.24l4.3,3.191a2.752,2.752,0,0,0,4.12-1.025l4.825-10.115Z" transform="translate(-198.442 -916.839)"/>
            </g>
          </g>
        </g>
        <rect id="Rectángulo_401472" data-name="Rectángulo 401472" width="6.796" height="36.377" transform="matrix(0.803, -0.596, 0.596, 0.803, 47.947, 75.209)" fill="#ffd256"/>
        <rect id="Rectángulo_401473" data-name="Rectángulo 401473" width="1.778" height="36.377" transform="translate(51.978 72.217) rotate(-36.58)" fill="#fff"/>
        <path id="Trazado_873420" data-name="Trazado 873420" d="M667.022,963.5l4.3-3.191a2.967,2.967,0,0,0,.23-4.571l-8.415-7.667-5.457,4.05,4.9,10.275a2.967,2.967,0,0,0,4.442,1.1" transform="translate(-588.057 -847.707)" fill="#ff926d"/>
        <path id="Trazado_873421" data-name="Trazado 873421" d="M657.684,952.127l.079.17,4.207-3.121,8.413,7.667a2.968,2.968,0,0,1,.485,3.811l.459-.339a2.965,2.965,0,0,0,.227-4.57l-8.413-7.667Z" transform="translate(-588.061 -847.713)" fill="#fff"/>
        <g id="Grupo_1099542" data-name="Grupo 1099542" transform="translate(47.732 70.944)" opacity="0.6" style="isolation: isolate">
          <g id="Grupo_1099541" data-name="Grupo 1099541">
            <g id="Grupo_1099540" data-name="Grupo 1099540" clip-path="url(#clip-path-9)">
              <path id="Trazado_873422" data-name="Trazado 873422" d="M472.789,703.851a.215.215,0,0,1-.173-.087l-21.68-29.211a.215.215,0,0,1,.044-.3l5.457-4.05a.215.215,0,0,1,.3.044l21.68,29.211a.215.215,0,0,1-.044.3l-5.457,4.05a.214.214,0,0,1-.128.042m-21.38-29.381,21.424,28.866,5.112-3.794-21.424-28.866Z" transform="translate(-450.895 -670.161)"/>
              <path id="Trazado_873423" data-name="Trazado 873423" d="M663.45,962.487a3.19,3.19,0,0,1-2.875-1.809l-4.9-10.275a.215.215,0,0,1,.066-.265l5.457-4.05a.215.215,0,0,1,.272.014l8.415,7.667a3.182,3.182,0,0,1-.246,4.9l-4.3,3.191a3.165,3.165,0,0,1-1.888.626m-7.312-12.11,4.825,10.115a2.752,2.752,0,0,0,4.12,1.024l4.3-3.191a2.752,2.752,0,0,0,.212-4.24l-8.284-7.547Z" transform="translate(-633.977 -916.839)"/>
            </g>
          </g>
        </g>
        <g id="Grupo_1099545" data-name="Grupo 1099545" transform="translate(50.179 6.007)" opacity="0.6" style="isolation: isolate">
          <g id="Grupo_1099544" data-name="Grupo 1099544">
            <g id="Grupo_1099543" data-name="Grupo 1099543" clip-path="url(#clip-path-10)">
              <path id="Trazado_873424" data-name="Trazado 873424" d="M483.2,58.782a40.643,40.643,0,0,0-7.17.635v79.543a40.409,40.409,0,1,0,7.17-80.177" transform="translate(-475.813 -58.567)"/>
              <path id="Trazado_873425" data-name="Trazado 873425" d="M481.385,138a40.993,40.993,0,0,1-7.208-.638.215.215,0,0,1-.177-.211V57.6a.215.215,0,0,1,.177-.211,40.624,40.624,0,1,1,7.208,80.6m-6.955-1.029a40.191,40.191,0,1,0,0-79.183Z" transform="translate(-474.001 -56.754)"/>
            </g>
          </g>
        </g>
        <path id="Trazado_873426" data-name="Trazado 873426" d="M198.281,99.189a40.406,40.406,0,1,1-40.406-40.406,40.406,40.406,0,0,1,40.406,40.406" transform="translate(-105.034 -52.56)" fill="#6b9c7d"/>
        <path id="Trazado_873427" data-name="Trazado 873427" d="M119.833,100.906a40.341,40.341,0,0,0,15.5,31.822,40.41,40.41,0,1,1,47.451-65.359,40.414,40.414,0,0,0-62.951,33.537" transform="translate(-105.036 -52.561)" fill="#fff"/>
        <path id="Trazado_873428" data-name="Trazado 873428" d="M264.534,174.34a31.508,31.508,0,1,1-31.508-31.508,31.508,31.508,0,0,1,31.508,31.508" transform="translate(-180.184 -127.712)" fill="#fff"/>
        <path id="Trazado_873429" data-name="Trazado 873429" d="M258.877,156.34a31.51,31.51,0,0,0-50.422,37.744,31.51,31.51,0,1,1,50.422-37.744" transform="translate(-180.176 -127.719)" fill="#4c6f59"/>
        <path id="Trazado_873430" data-name="Trazado 873430" d="M333.532,252.605a22.242,22.242,0,1,1-22.242-22.242,22.242,22.242,0,0,1,22.242,22.242" transform="translate(-258.449 -205.977)" fill="#9ae1b4"/>
        <path id="Trazado_873431" data-name="Trazado 873431" d="M329.289,239.531a22.243,22.243,0,0,0-34.707,27.751,22.242,22.242,0,1,1,34.707-27.751" transform="translate(-258.452 -205.976)" fill="#fff"/>
        <path id="Trazado_873432" data-name="Trazado 873432" d="M405.746,334.515A12.544,12.544,0,1,1,393.2,321.971a12.544,12.544,0,0,1,12.544,12.544" transform="translate(-340.36 -287.887)" fill="#fff"/>
        <path id="Trazado_873433" data-name="Trazado 873433" d="M402.833,326.5a12.544,12.544,0,0,0-17.668,17.666A12.544,12.544,0,1,1,402.833,326.5" transform="translate(-340.353 -287.895)" fill="#4c6f59"/>
        <g id="Grupo_1099548" data-name="Grupo 1099548" transform="translate(12.221 6.008)" opacity="0.6" style="isolation: isolate">
          <g id="Grupo_1099547" data-name="Grupo 1099547">
            <g id="Grupo_1099546" data-name="Grupo 1099546" clip-path="url(#clip-path-11)">
              <path id="Trazado_873434" data-name="Trazado 873434" d="M156.061,138a40.62,40.62,0,1,1,40.62-40.62A40.667,40.667,0,0,1,156.061,138m0-80.812a40.191,40.191,0,1,0,40.191,40.191,40.237,40.237,0,0,0-40.191-40.191" transform="translate(-115.441 -56.756)"/>
            </g>
          </g>
        </g>
        <g id="Grupo_1099551" data-name="Grupo 1099551" transform="translate(21.118 14.905)" opacity="0.6" style="isolation: isolate">
          <g id="Grupo_1099550" data-name="Grupo 1099550">
            <g id="Grupo_1099549" data-name="Grupo 1099549" clip-path="url(#clip-path-12)">
              <path id="Trazado_873435" data-name="Trazado 873435" d="M231.213,204.25A31.724,31.724,0,0,1,207.2,151.8a.215.215,0,1,1,.325.281,31.268,31.268,0,1,0,5.325-4.894.215.215,0,0,1-.252-.347,31.724,31.724,0,1,1,18.616,57.412" transform="translate(-199.49 -140.804)"/>
            </g>
          </g>
        </g>
        <g id="Grupo_1099554" data-name="Grupo 1099554" transform="translate(30.385 24.172)" opacity="0.6" style="isolation: isolate">
          <g id="Grupo_1099553" data-name="Grupo 1099553">
            <g id="Grupo_1099552" data-name="Grupo 1099552" clip-path="url(#clip-path-13)">
              <path id="Trazado_873436" data-name="Trazado 873436" d="M309.477,273.248a22.457,22.457,0,1,1,0-44.914c.325,0,.655.007.98.021a.215.215,0,0,1-.018.429c-.319-.014-.642-.021-.961-.021a22,22,0,1,0,5.715.749.215.215,0,0,1,.111-.415,22.46,22.46,0,0,1-5.827,44.15" transform="translate(-287.02 -228.334)"/>
            </g>
          </g>
        </g>
        <g id="Grupo_1099557" data-name="Grupo 1099557" transform="translate(40.082 33.869)" opacity="0.6" style="isolation: isolate">
          <g id="Grupo_1099556" data-name="Grupo 1099556">
            <g id="Grupo_1099555" data-name="Grupo 1099555" clip-path="url(#clip-path-14)">
              <path id="Trazado_873437" data-name="Trazado 873437" d="M391.387,345.461A12.759,12.759,0,1,1,404.146,332.7a12.773,12.773,0,0,1-12.759,12.759m0-25.089a12.33,12.33,0,1,0,12.33,12.33,12.344,12.344,0,0,0-12.33-12.33" transform="translate(-378.628 -319.943)"/>
            </g>
          </g>
        </g>
        <path id="Trazado_873438" data-name="Trazado 873438" d="M544.17,142.346a1.3,1.3,0,0,1-.616.788l-49.649,28.236,1.3.395a1.311,1.311,0,0,1-.382,2.565,1.3,1.3,0,0,1-.384-.058l-4.05-1.238a1.244,1.244,0,0,1-.434-.152c-.006,0-.011-.006-.017-.009a1.306,1.306,0,0,1-.646-1.543l1.307-4.277a1.31,1.31,0,0,1,1.638-.869,1.308,1.308,0,0,1,.869,1.635l-.365,1.2,49.518-28.161a1.314,1.314,0,0,1,1.788.494,1.3,1.3,0,0,1,.125,1" transform="translate(-437.442 -125.791)" fill="#fff"/>
        <g id="Grupo_1099560" data-name="Grupo 1099560" transform="translate(51.577 14.679)" opacity="0.6" style="isolation: isolate">
          <g id="Grupo_1099559" data-name="Grupo 1099559">
            <g id="Grupo_1099558" data-name="Grupo 1099558" clip-path="url(#clip-path-15)">
              <path id="Trazado_873439" data-name="Trazado 873439" d="M493.013,172.735a1.507,1.507,0,0,1-.448-.068l-4.036-1.234a1.454,1.454,0,0,1-.486-.173l-.006,0-.008,0a1.524,1.524,0,0,1-.752-1.8l1.307-4.277a1.524,1.524,0,0,1,1.906-1.012,1.523,1.523,0,0,1,1.011,1.9l-.208.682,49.05-27.894a1.53,1.53,0,0,1,2.08.574,1.521,1.521,0,0,1-.572,2.079L492.636,169.5l.821.25a1.525,1.525,0,0,1-.444,2.985m-4.777-1.858.018.01a1.032,1.032,0,0,0,.359.125l.028.007,4.05,1.238a1.1,1.1,0,0,0,1.37-.727,1.1,1.1,0,0,0-.729-1.369l-1.3-.395a.215.215,0,0,1-.044-.392l49.649-28.236a1.1,1.1,0,0,0-1.084-1.906l-49.518,28.161a.215.215,0,0,1-.311-.249l.365-1.2a1.1,1.1,0,0,0-1.562-1.289,1.1,1.1,0,0,0-.535.648l-1.307,4.277a1.1,1.1,0,0,0,.54,1.29l.009,0m54.125-30.34h0Z" transform="translate(-487.21 -138.661)"/>
            </g>
          </g>
        </g>
        <path id="Trazado_873440" data-name="Trazado 873440" d="M909.252,132.342l-5.364,2.942a.668.668,0,0,1-.516.056l-4.535-1.326a.683.683,0,0,1-.465-.846l1.325-4.535a.681.681,0,0,1,.324-.407l5.362-2.938a.683.683,0,0,1,.986.788l-.944,3.224a.683.683,0,0,0,.465.846l3.224.945a.679.679,0,0,1,.137,1.251" transform="translate(-803.245 -111.948)" fill="#fff"/>
        <path id="Trazado_873441" data-name="Trazado 873441" d="M952.119,132.338l-5.363,2.943a.668.668,0,0,1-.468.066l4.9-2.687a.68.68,0,0,0-.137-1.251l-3.224-.944a.683.683,0,0,1-.466-.846l.944-3.224a.685.685,0,0,0-.513-.861l.457-.251a.683.683,0,0,1,.985.79l-.944,3.224a.683.683,0,0,0,.466.846l3.224.944a.679.679,0,0,1,.137,1.251" transform="translate(-846.113 -111.943)" fill="#fff"/>
        <g id="Grupo_1099563" data-name="Grupo 1099563" transform="translate(94.885 13.039)" opacity="0.6" style="isolation: isolate">
          <g id="Grupo_1099562" data-name="Grupo 1099562">
            <g id="Grupo_1099561" data-name="Grupo 1099561" clip-path="url(#clip-path-16)">
              <path id="Trazado_873442" data-name="Trazado 873442" d="M901.747,133.766a.869.869,0,0,1-.253-.037l-4.533-1.325a.883.883,0,0,1-.535-.429.9.9,0,0,1-.076-.682l1.326-4.536a.894.894,0,0,1,.424-.533l5.366-2.94a.9.9,0,0,1,1.3,1.036l-.945,3.226a.468.468,0,0,0,.318.579l3.226.945a.894.894,0,0,1,.179,1.645l-5.364,2.942a.883.883,0,0,1-.428.11M903.9,123.6a.476.476,0,0,0-.23.061L898.31,126.6a.466.466,0,0,0-.221.277l-1.326,4.538a.47.47,0,0,0,.04.356.458.458,0,0,0,.278.223l4.536,1.326a.453.453,0,0,0,.351-.037l5.365-2.943h0a.465.465,0,0,0-.093-.856l-3.226-.945a.9.9,0,0,1-.611-1.111l.945-3.226a.457.457,0,0,0-.157-.5.461.461,0,0,0-.29-.105" transform="translate(-896.315 -123.17)"/>
            </g>
          </g>
        </g>
        <g id="Grupo_1099566" data-name="Grupo 1099566" transform="translate(3.173 3.173)" opacity="0.6" style="isolation: isolate">
          <g id="Grupo_1099565" data-name="Grupo 1099565">
            <g id="Grupo_1099564" data-name="Grupo 1099564" clip-path="url(#clip-path-17)">
              <path id="Trazado_873443" data-name="Trazado 873443" d="M802.385,35.3a.215.215,0,0,1-.154-.364l4.748-4.892a.215.215,0,0,1,.308.3l-4.748,4.892a.214.214,0,0,1-.154.065" transform="translate(-720.424 -29.983)"/>
              <path id="Trazado_873444" data-name="Trazado 873444" d="M754.386,42.634a.215.215,0,0,1-.154-.364l4.748-4.892a.215.215,0,1,1,.308.3l-4.748,4.892a.214.214,0,0,1-.154.065" transform="translate(-677.507 -36.536)"/>
              <path id="Trazado_873445" data-name="Trazado 873445" d="M30.19,559.322a.215.215,0,0,1-.153-.365l6.011-6.139a.215.215,0,1,1,.307.3l-6.011,6.139a.214.214,0,0,1-.153.064" transform="translate(-29.976 -497.412)"/>
              <path id="Trazado_873446" data-name="Trazado 873446" d="M35.023,610.21a.215.215,0,0,1-.15-.368L38.2,606.58a.215.215,0,1,1,.3.306l-3.325,3.262a.214.214,0,0,1-.15.061" transform="translate(-34.297 -545.486)"/>
              <path id="Trazado_873447" data-name="Trazado 873447" d="M961.722,763.336a.215.215,0,0,1-.152-.366l4.349-4.349a.215.215,0,0,1,.3.3l-4.349,4.349a.214.214,0,0,1-.152.063" transform="translate(-862.894 -681.43)"/>
              <path id="Trazado_873448" data-name="Trazado 873448" d="M965.347,759.953a.215.215,0,0,1-.15-.368l7.8-7.61a.215.215,0,0,1,.3.307l-7.8,7.61a.214.214,0,0,1-.15.061" transform="translate(-866.135 -675.489)"/>
            </g>
          </g>
        </g>
        <path id="Trazado_873449" data-name="Trazado 873449" d="M445.908,66.1c-1.784,1.349-3.019,2.722-2.759,3.067s1.918-.469,3.7-1.818,3.02-2.722,2.759-3.067-1.918.469-3.7,1.818" transform="translate(-396.205 -57.41)" fill="#fff"/>
        <path id="Trazado_873450" data-name="Trazado 873450" d="M466.812,236.539c-1.784,1.349-3.02,2.722-2.759,3.067s1.919-.469,3.7-1.818,3.02-2.722,2.759-3.067-1.918.469-3.7,1.818" transform="translate(-414.896 -209.802)" fill="#fff"/>
      </g>
    </g>
  </g>
</svg>
