<svg id="Grupo_1099992" data-name="Grupo 1099992" xmlns="http://www.w3.org/2000/svg" xmlns:xlink="http://www.w3.org/1999/xlink" width="147" height="121.741" viewBox="0 0 147 121.741">
  <defs>
    <clipPath id="clip-path">
      <rect id="Rectángulo_401427" data-name="Rectángulo 401427" width="147" height="121.741" fill="none"/>
    </clipPath>
    <clipPath id="clip-path-3">
      <rect id="Rectángulo_401402" data-name="Rectángulo 401402" width="19.611" height="96.971" fill="none"/>
    </clipPath>
    <clipPath id="clip-path-4">
      <rect id="Rectángulo_401403" data-name="Rectángulo 401403" width="75.162" height="96.971" fill="none"/>
    </clipPath>
    <clipPath id="clip-path-5">
      <rect id="Rectángulo_401404" data-name="Rectángulo 401404" width="25.452" height="9.574" fill="none"/>
    </clipPath>
    <clipPath id="clip-path-6">
      <rect id="Rectángulo_401405" data-name="Rectángulo 401405" width="11.978" height="15.851" fill="none"/>
    </clipPath>
    <clipPath id="clip-path-7">
      <rect id="Rectángulo_401406" data-name="Rectángulo 401406" width="53.666" height="53.666" fill="none"/>
    </clipPath>
    <clipPath id="clip-path-8">
      <rect id="Rectángulo_401407" data-name="Rectángulo 401407" width="33.516" height="14.291" fill="none"/>
    </clipPath>
    <clipPath id="clip-path-9">
      <rect id="Rectángulo_401410" data-name="Rectángulo 401410" width="32.665" height="13.423" fill="none"/>
    </clipPath>
    <clipPath id="clip-path-10">
      <rect id="Rectángulo_401413" data-name="Rectángulo 401413" width="86.218" height="9.574" fill="none"/>
    </clipPath>
    <clipPath id="clip-path-12">
      <rect id="Rectángulo_401415" data-name="Rectángulo 401415" width="55.088" height="0.566" fill="none"/>
    </clipPath>
    <clipPath id="clip-path-13">
      <rect id="Rectángulo_401416" data-name="Rectángulo 401416" width="29.104" height="0.566" fill="none"/>
    </clipPath>
    <clipPath id="clip-path-14">
      <rect id="Rectángulo_401417" data-name="Rectángulo 401417" width="20.118" height="15.851" fill="none"/>
    </clipPath>
    <clipPath id="clip-path-15">
      <rect id="Rectángulo_401418" data-name="Rectángulo 401418" width="3.467" height="0.566" fill="none"/>
    </clipPath>
    <clipPath id="clip-path-16">
      <rect id="Rectángulo_401419" data-name="Rectángulo 401419" width="30.04" height="23.092" fill="none"/>
    </clipPath>
    <clipPath id="clip-path-17">
      <rect id="Rectángulo_401420" data-name="Rectángulo 401420" width="21.333" height="12.725" fill="none"/>
    </clipPath>
    <clipPath id="clip-path-18">
      <rect id="Rectángulo_401422" data-name="Rectángulo 401422" width="31.931" height="28.648" fill="none"/>
    </clipPath>
    <clipPath id="clip-path-19">
      <rect id="Rectángulo_401424" data-name="Rectángulo 401424" width="31.934" height="28.65" fill="none"/>
    </clipPath>
    <clipPath id="clip-path-20">
      <rect id="Rectángulo_401425" data-name="Rectángulo 401425" width="130.998" height="111.726" fill="none"/>
    </clipPath>
  </defs>
  <g id="Grupo_1099444" data-name="Grupo 1099444" clip-path="url(#clip-path)">
    <g id="Grupo_1099443" data-name="Grupo 1099443">
      <g id="Grupo_1099442" data-name="Grupo 1099442" clip-path="url(#clip-path)">
        <path id="Trazado_873288" data-name="Trazado 873288" d="M143,42.75H126.572V20.159a10.188,10.188,0,0,0-1.016-4.447,4,4,0,0,0,4.295-.953l.85-.875a3.98,3.98,0,0,0,2.755,1.1,4.026,4.026,0,0,0,2.871-1.214l6.055-6.239a4,4,0,0,0-5.746-5.57l-.85.875a4.006,4.006,0,0,0-5.626.113l-6.055,6.238A4,4,0,0,0,123,12.4a10.2,10.2,0,0,0-6.681-2.487H93.689a5.736,5.736,0,0,0-1.011-1.056L92.427,8.6l-.306-.153L90.016,7V6.846A6.853,6.853,0,0,0,83.17,0H75.552a6.854,6.854,0,0,0-6.846,6.846V7L66.378,8.6a5.727,5.727,0,0,0-1.345,1.306H46.628a10.249,10.249,0,0,0-9.152,5.66v-.795a6.812,6.812,0,0,0-6.8-6.8H6.8a6.812,6.812,0,0,0-6.8,6.8V27.654a6.812,6.812,0,0,0,6.8,6.8H25.023l4.085,3.016a5.209,5.209,0,0,0,4.156.917,30.394,30.394,0,0,0-3.57,4.878,3.978,3.978,0,0,0-.519,1.521,30.237,30.237,0,0,0-1.53,3.453,3.975,3.975,0,0,0-.783,1.414,30.6,30.6,0,0,0-.489,16.4H7.988V79.777a4,4,0,0,0,3.718,5.476H29.485a4,4,0,0,0,2.684-1.034l3.257-2.947q.472.431.962.842v22.647a5.83,5.83,0,0,0-5.215,5.79v5.376a5.824,5.824,0,0,0,5.822,5.812H126.6a5.819,5.819,0,0,0,5.812-5.812v-5.376a5.824,5.824,0,0,0-5.812-5.822h-.029V91.357a3.95,3.95,0,0,0,.539,1.278,4.017,4.017,0,0,0-.15,1.04,3.974,3.974,0,0,0,1.137,2.843,4.024,4.024,0,0,0,2.864,1.207,3.978,3.978,0,0,0,2.794-1.137l9.944-9.7a4,4,0,0,0-2.745-6.865H140.9a3.974,3.974,0,0,0-2.793,1.137l-.228.223a4.01,4.01,0,0,0-4.7.709l-5.541,5.541a3.973,3.973,0,0,0-1.073,1.937V78.836H143a4.006,4.006,0,0,0,4-4V46.751a4.006,4.006,0,0,0-4-4M29.122,27.058c.119,0,.236-.006.352-.016V27.8l-.229-.169a6.108,6.108,0,0,0-.948-.571Z" fill="#fff"/>
        <path id="Trazado_873289" data-name="Trazado 873289" d="M61.03,812.078,53.366,819.9a4,4,0,0,0-.321,5.229,4.019,4.019,0,0,0-.17,1.119,3.977,3.977,0,0,0,1.146,2.842,4.025,4.025,0,0,0,2.855,1.2,3.983,3.983,0,0,0,2.8-1.145l4.238-4.157a4,4,0,0,0,.573-5.008l2.256-2.3a4,4,0,0,0-5.715-5.6m-.825,13.368a3.42,3.42,0,0,1-.76-.311l.458-.468a3.423,3.423,0,0,1,.3.779" transform="translate(-45.751 -710.383)" fill="#fff"/>
        <g id="Grupo_1099390" data-name="Grupo 1099390" transform="translate(103.739 13.627)" opacity="0.6" style="isolation: isolate">
          <g id="Grupo_1099389" data-name="Grupo 1099389">
            <g id="Grupo_1099388" data-name="Grupo 1099388" clip-path="url(#clip-path-3)">
              <path id="Trazado_873290" data-name="Trazado 873290" d="M852.111,112.236h-12.8v96.4H858.36V118.485a6.248,6.248,0,0,0-6.249-6.249" transform="translate(-839.032 -111.953)"/>
              <path id="Trazado_873291" data-name="Trazado 873291" d="M856.359,206.924H837.314a.283.283,0,0,1-.283-.283v-96.4a.283.283,0,0,1,.283-.283h12.8a6.539,6.539,0,0,1,6.532,6.532v90.156a.283.283,0,0,1-.283.283m-18.762-.566h18.479V116.485a5.972,5.972,0,0,0-5.966-5.966H837.6Z" transform="translate(-837.031 -109.953)"/>
            </g>
          </g>
        </g>
        <path id="Trazado_873292" data-name="Trazado 873292" d="M404.482,118.484V208.64h-74.6V118.484a6.246,6.246,0,0,1,6.239-6.249h62.108a6.248,6.248,0,0,1,6.249,6.249" transform="translate(-289.001 -98.325)" fill="#fff"/>
        <path id="Trazado_873293" data-name="Trazado 873293" d="M404.477,118.479v2.83a6.248,6.248,0,0,0-6.248-6.248H336.122a6.248,6.248,0,0,0-6.24,6.248v-2.83a6.248,6.248,0,0,1,6.24-6.248h62.107a6.248,6.248,0,0,1,6.248,6.248" transform="translate(-288.998 -98.321)" fill="#fff"/>
        <g id="Grupo_1099393" data-name="Grupo 1099393" transform="translate(40.602 13.627)" opacity="0.6" style="isolation: isolate">
          <g id="Grupo_1099392" data-name="Grupo 1099392">
            <g id="Grupo_1099391" data-name="Grupo 1099391" clip-path="url(#clip-path-4)">
              <path id="Trazado_873294" data-name="Trazado 873294" d="M402.48,206.924h-74.6a.283.283,0,0,1-.283-.283V116.485a6.534,6.534,0,0,1,6.522-6.532h62.108a6.539,6.539,0,0,1,6.532,6.532v90.156a.283.283,0,0,1-.283.283m-74.313-.566H402.2V116.485a5.973,5.973,0,0,0-5.966-5.966H334.123a5.968,5.968,0,0,0-5.956,5.966Z" transform="translate(-327.601 -109.953)"/>
            </g>
          </g>
        </g>
        <g id="Grupo_1099396" data-name="Grupo 1099396" transform="translate(103.739 108.449)" opacity="0.6" style="isolation: isolate">
          <g id="Grupo_1099395" data-name="Grupo 1099395">
            <g id="Grupo_1099394" data-name="Grupo 1099394" clip-path="url(#clip-path-5)">
              <path id="Trazado_873295" data-name="Trazado 873295" d="M862.39,877.317H839.315v9.008H862.39a1.8,1.8,0,0,0,1.811-1.811v-5.376a1.813,1.813,0,0,0-1.811-1.821" transform="translate(-839.032 -877.034)"/>
              <path id="Trazado_873296" data-name="Trazado 873296" d="M860.389,884.608H837.314a.283.283,0,0,1-.283-.283v-9.008a.283.283,0,0,1,.283-.283h23.075a2.1,2.1,0,0,1,2.094,2.1v5.376a2.1,2.1,0,0,1-2.094,2.094m-22.792-.566h22.792a1.53,1.53,0,0,0,1.528-1.528v-5.376a1.535,1.535,0,0,0-1.528-1.538H837.6Z" transform="translate(-837.031 -875.034)"/>
            </g>
          </g>
        </g>
        <g id="Grupo_1099399" data-name="Grupo 1099399" transform="translate(79.614 3.718)" opacity="0.6" style="isolation: isolate">
          <g id="Grupo_1099398" data-name="Grupo 1099398">
            <g id="Grupo_1099397" data-name="Grupo 1099397" clip-path="url(#clip-path-6)">
              <path id="Trazado_873297" data-name="Trazado 873297" d="M655.324,40.172l-3.3-2.276a1.757,1.757,0,0,1-.749-1.441V35.128a2.847,2.847,0,0,0-2.845-2.845h-3.769V47.568h9.667a1.74,1.74,0,0,0,1.745-1.745V41.613a1.757,1.757,0,0,0-.749-1.441" transform="translate(-644.378 -32)"/>
              <path id="Trazado_873298" data-name="Trazado 873298" d="M652.327,45.851H642.66a.283.283,0,0,1-.283-.283V30.283A.283.283,0,0,1,642.66,30h3.769a3.131,3.131,0,0,1,3.128,3.128v1.328a1.469,1.469,0,0,0,.627,1.208l3.3,2.276h0a2.034,2.034,0,0,1,.871,1.673v4.211a2.03,2.03,0,0,1-2.028,2.028m-9.384-.566h9.384a1.463,1.463,0,0,0,1.462-1.462V39.613a1.468,1.468,0,0,0-.627-1.208l-3.3-2.276a2.035,2.035,0,0,1-.871-1.674V33.128a2.565,2.565,0,0,0-2.562-2.562h-3.486Z" transform="translate(-642.377 -30)"/>
            </g>
          </g>
        </g>
        <g id="Grupo_1099402" data-name="Grupo 1099402" transform="translate(36.638 31.918)" opacity="0.6" style="isolation: isolate">
          <g id="Grupo_1099401" data-name="Grupo 1099401">
            <g id="Grupo_1099400" data-name="Grupo 1099400" clip-path="url(#clip-path-7)">
              <path id="Trazado_873299" data-name="Trazado 873299" d="M324.454,259.82A26.549,26.549,0,1,0,351,286.37a26.555,26.555,0,0,0-26.55-26.55m5.263,34.951a9.909,9.909,0,1,1,4.656-8.4,9.867,9.867,0,0,1-4.656,8.4" transform="translate(-297.621 -259.537)"/>
              <path id="Trazado_873300" data-name="Trazado 873300" d="M322.454,311.2a26.836,26.836,0,1,1,14.241-4.092,26.924,26.924,0,0,1-14.241,4.092m0-53.1a26.266,26.266,0,1,0,26.267,26.267A26.3,26.3,0,0,0,322.454,258.1m0,36.468a10.215,10.215,0,1,1,5.413-1.56,10.221,10.221,0,0,1-5.413,1.56m0-19.827a9.625,9.625,0,1,0,9.635,9.626,9.642,9.642,0,0,0-9.635-9.626" transform="translate(-295.621 -257.537)"/>
            </g>
          </g>
        </g>
        <g id="Grupo_1099405" data-name="Grupo 1099405" transform="translate(11.918 67.244)" opacity="0.6" style="isolation: isolate">
          <g id="Grupo_1099404" data-name="Grupo 1099404">
            <g id="Grupo_1099403" data-name="Grupo 1099403" clip-path="url(#clip-path-8)">
              <path id="Trazado_873301" data-name="Trazado 873301" d="M114.227,556.859H96.448a.283.283,0,0,1,0-.566h17.67l15.091-13.652a.283.283,0,1,1,.38.42l-15.171,13.726a.283.283,0,0,1-.19.073" transform="translate(-96.165 -542.568)"/>
            </g>
          </g>
        </g>
        <rect id="Rectángulo_401408" data-name="Rectángulo 401408" width="13.156" height="2.371" transform="translate(12.201 69.779)" fill="#fff"/>
        <rect id="Rectángulo_401409" data-name="Rectángulo 401409" width="8.89" height="2.371" transform="translate(12.201 74.994)" fill="#fff"/>
        <g id="Grupo_1099408" data-name="Grupo 1099408" transform="translate(72.051 38.781)" opacity="0.6" style="isolation: isolate">
          <g id="Grupo_1099407" data-name="Grupo 1099407">
            <g id="Grupo_1099406" data-name="Grupo 1099406" clip-path="url(#clip-path-9)">
              <path id="Trazado_873302" data-name="Trazado 873302" d="M581.637,326.333a.283.283,0,0,1-.189-.493l14.32-12.857a.283.283,0,0,1,.189-.072h17.779a.283.283,0,1,1,0,.566h-17.67L581.825,326.26a.282.282,0,0,1-.189.072" transform="translate(-581.353 -312.91)"/>
            </g>
          </g>
        </g>
        <rect id="Rectángulo_401411" data-name="Rectángulo 401411" width="13.156" height="2.371" transform="translate(87.009 27.591)" fill="#ff926d"/>
        <rect id="Rectángulo_401412" data-name="Rectángulo 401412" width="8.889" height="2.371" transform="translate(87.009 32.806)" fill="#ff926d"/>
        <path id="Trazado_873303" data-name="Trazado 873303" d="M373.457,879.138v5.376a1.8,1.8,0,0,1-1.811,1.811H289.626a1.813,1.813,0,0,1-1.821-1.811v-5.376a1.821,1.821,0,0,1,1.821-1.821h82.021a1.813,1.813,0,0,1,1.811,1.821" transform="translate(-252.135 -768.585)" fill="#9ae1b4"/>
        <path id="Trazado_873304" data-name="Trazado 873304" d="M373.452,879.148v1.836a1.811,1.811,0,0,0-1.811-1.819H289.622a1.821,1.821,0,0,0-1.823,1.819v-1.836a1.821,1.821,0,0,1,1.823-1.82h82.018a1.811,1.811,0,0,1,1.811,1.82" transform="translate(-252.131 -768.595)" fill="#fff"/>
        <g id="Grupo_1099411" data-name="Grupo 1099411" transform="translate(35.387 108.449)" opacity="0.6" style="isolation: isolate">
          <g id="Grupo_1099410" data-name="Grupo 1099410">
            <g id="Grupo_1099409" data-name="Grupo 1099409" clip-path="url(#clip-path-10)">
              <path id="Trazado_873305" data-name="Trazado 873305" d="M369.646,884.607H287.626a2.1,2.1,0,0,1-2.1-2.094v-5.376a2.106,2.106,0,0,1,2.1-2.1h53.644a.283.283,0,1,1,0,.566H287.626a1.539,1.539,0,0,0-1.538,1.538v5.376a1.535,1.535,0,0,0,1.538,1.528h82.021a1.53,1.53,0,0,0,1.528-1.528v-5.376a1.535,1.535,0,0,0-1.528-1.538h-21.3a.283.283,0,1,1,0-.566h21.3a2.1,2.1,0,0,1,2.094,2.1v5.376a2.1,2.1,0,0,1-2.094,2.094" transform="translate(-285.522 -875.033)"/>
            </g>
          </g>
        </g>
        <path id="Trazado_873306" data-name="Trazado 873306" d="M258.533,286.37a9.913,9.913,0,0,1,9.918-9.909V259.82a26.547,26.547,0,0,0-25.539,33.8l16-4.543a9.911,9.911,0,0,1-.384-2.711" transform="translate(-211.921 -227.619)" fill="#9ae1b4"/>
        <path id="Trazado_873307" data-name="Trazado 873307" d="M482.673,286.37a26.555,26.555,0,0,0-26.55-26.55v16.641a9.906,9.906,0,0,1,5.258,18.31l8.83,14.1a26.523,26.523,0,0,0,12.463-22.5" transform="translate(-399.593 -227.619)" fill="#ff926d"/>
        <path id="Trazado_873308" data-name="Trazado 873308" d="M477.989,301.43a26.55,26.55,0,0,0-21.867-39.791v-1.814a26.547,26.547,0,0,1,21.867,41.6" transform="translate(-399.592 -227.623)" fill="#fff"/>
        <path id="Trazado_873309" data-name="Trazado 873309" d="M275.6,503.123a9.911,9.911,0,0,1-9.534-7.207l-16,4.543a26.544,26.544,0,0,0,39.626,15.247l-8.83-14.1a9.862,9.862,0,0,1-5.258,1.518" transform="translate(-219.069 -434.454)" fill="#ffd256"/>
        <path id="Trazado_873310" data-name="Trazado 873310" d="M289.68,544.315a26.543,26.543,0,0,1-39.627-15.247l1.746-.5a26.551,26.551,0,0,0,37.719,15.485Z" transform="translate(-219.062 -463.063)" fill="#fff"/>
        <g id="Grupo_1099414" data-name="Grupo 1099414" transform="translate(29.697 31.918)" opacity="0.6" style="isolation: isolate">
          <g id="Grupo_1099413" data-name="Grupo 1099413">
            <g id="Grupo_1099412" data-name="Grupo 1099412" clip-path="url(#clip-path-7)">
              <path id="Trazado_873311" data-name="Trazado 873311" d="M240.912,291.906a.282.282,0,0,1-.272-.206,26.891,26.891,0,0,1,.188-15.318.283.283,0,1,1,.54.168,26.326,26.326,0,0,0-.259,14.723l15.462-4.389a10.171,10.171,0,0,1,9.6-12.7V258.1A26.4,26.4,0,0,0,243.8,271.059a.283.283,0,1,1-.488-.287,26.966,26.966,0,0,1,23.135-13.235.283.283,0,0,1,.283.283V274.46a.283.283,0,0,1-.283.283A9.608,9.608,0,0,0,257.189,287a.283.283,0,0,1-.195.349l-16,4.543a.278.278,0,0,1-.077.011" transform="translate(-239.618 -257.536)"/>
              <path id="Trazado_873312" data-name="Trazado 873312" d="M468.211,307.153a.283.283,0,0,1-.24-.133l-8.83-14.1a.283.283,0,0,1,.089-.39,9.623,9.623,0,0,0-5.107-17.787.283.283,0,0,1-.283-.283V257.819a.283.283,0,0,1,.283-.283,26.831,26.831,0,0,1,14.238,49.574.282.282,0,0,1-.15.043m-8.442-14.3,8.53,13.623A26.265,26.265,0,0,0,454.407,258.1v16.077a10.189,10.189,0,0,1,5.363,18.675" transform="translate(-427.291 -257.536)"/>
              <path id="Trazado_873313" data-name="Trazado 873313" d="M273.6,518.038a26.928,26.928,0,0,1-25.811-19.5.283.283,0,0,1,.195-.349l16-4.543a.283.283,0,0,1,.349.195,9.614,9.614,0,0,0,14.369,5.527.283.283,0,0,1,.39.09l8.83,14.1a.283.283,0,0,1-.09.39,26.757,26.757,0,0,1-14.238,4.092m-25.188-19.385A26.261,26.261,0,0,0,287.3,513.615l-8.531-13.623a10.18,10.18,0,0,1-14.892-5.728Z" transform="translate(-246.766 -464.372)"/>
            </g>
          </g>
        </g>
        <g id="Grupo_1099417" data-name="Grupo 1099417" transform="translate(52.046 91.801)" opacity="0.6" style="isolation: isolate">
          <g id="Grupo_1099416" data-name="Grupo 1099416">
            <g id="Grupo_1099415" data-name="Grupo 1099415" clip-path="url(#clip-path-12)">
              <path id="Trazado_873314" data-name="Trazado 873314" d="M474.749,741.275H420.227a.283.283,0,1,1,0-.566h54.522a.283.283,0,0,1,0,.566" transform="translate(-419.944 -740.709)"/>
            </g>
          </g>
        </g>
        <g id="Grupo_1099420" data-name="Grupo 1099420" transform="translate(52.046 100.125)" opacity="0.6" style="isolation: isolate">
          <g id="Grupo_1099419" data-name="Grupo 1099419">
            <g id="Grupo_1099418" data-name="Grupo 1099418" clip-path="url(#clip-path-13)">
              <path id="Trazado_873315" data-name="Trazado 873315" d="M448.766,808.437H420.227a.283.283,0,1,1,0-.566h28.539a.283.283,0,0,1,0,.566" transform="translate(-419.944 -807.871)"/>
            </g>
          </g>
        </g>
        <path id="Trazado_873316" data-name="Trazado 873316" d="M571.489,41.613v4.21a1.74,1.74,0,0,1-1.745,1.745H553.682a1.74,1.74,0,0,1-1.745-1.745v-4.21a1.757,1.757,0,0,1,.749-1.441l3.3-2.276a1.757,1.757,0,0,0,.749-1.441V35.128a2.841,2.841,0,0,1,2.845-2.845h4.267a2.847,2.847,0,0,1,2.845,2.845v1.328a1.757,1.757,0,0,0,.749,1.441l3.3,2.276a1.757,1.757,0,0,1,.749,1.441" transform="translate(-483.532 -28.282)" fill="#ffd256"/>
        <path id="Trazado_873317" data-name="Trazado 873317" d="M561.641,32.292a2.84,2.84,0,0,0-2.844,2.844v1.327a1.76,1.76,0,0,1-.75,1.441l-3.3,2.278a1.753,1.753,0,0,0-.75,1.44v4.211a1.741,1.741,0,0,0,1.746,1.743h-2.063a1.741,1.741,0,0,1-1.746-1.743V41.622a1.752,1.752,0,0,1,.75-1.44l3.3-2.278a1.76,1.76,0,0,0,.75-1.441V35.136a2.841,2.841,0,0,1,2.844-2.844Z" transform="translate(-483.53 -28.29)" fill="#fff"/>
        <g id="Grupo_1099423" data-name="Grupo 1099423" transform="translate(68.122 3.718)" opacity="0.6" style="isolation: isolate">
          <g id="Grupo_1099422" data-name="Grupo 1099422">
            <g id="Grupo_1099421" data-name="Grupo 1099421" clip-path="url(#clip-path-14)">
              <path id="Trazado_873318" data-name="Trazado 873318" d="M567.745,45.851H551.682a2.03,2.03,0,0,1-2.028-2.028v-4.21a2.035,2.035,0,0,1,.871-1.674l3.3-2.276a1.468,1.468,0,0,0,.627-1.208V33.128A3.131,3.131,0,0,1,557.58,30h4.267a3.131,3.131,0,0,1,3.128,3.128v1.328a1.468,1.468,0,0,0,.628,1.208l3.3,2.276a2.035,2.035,0,0,1,.871,1.674v4.21a2.03,2.03,0,0,1-2.028,2.028M557.58,30.566a2.565,2.565,0,0,0-2.562,2.562v1.328a2.035,2.035,0,0,1-.871,1.673l-3.3,2.276a1.468,1.468,0,0,0-.627,1.208v4.21a1.463,1.463,0,0,0,1.462,1.462h16.063a1.463,1.463,0,0,0,1.462-1.462v-4.21a1.468,1.468,0,0,0-.627-1.208l-3.3-2.276a2.035,2.035,0,0,1-.872-1.674V33.128a2.564,2.564,0,0,0-2.562-2.562Z" transform="translate(-549.654 -30)"/>
            </g>
          </g>
        </g>
        <g id="Grupo_1099426" data-name="Grupo 1099426" transform="translate(76.448 7.093)" opacity="0.6" style="isolation: isolate">
          <g id="Grupo_1099425" data-name="Grupo 1099425">
            <g id="Grupo_1099424" data-name="Grupo 1099424" clip-path="url(#clip-path-15)">
              <path id="Trazado_873319" data-name="Trazado 873319" d="M620.016,57.8h-2.9a.283.283,0,0,1,0-.566h2.9a.283.283,0,1,1,0,.566" transform="translate(-616.832 -57.233)"/>
            </g>
          </g>
        </g>
        <g id="Grupo_1099429" data-name="Grupo 1099429" transform="translate(4.214 11.689)" opacity="0.6" style="isolation: isolate">
          <g id="Grupo_1099428" data-name="Grupo 1099428">
            <g id="Grupo_1099427" data-name="Grupo 1099427" clip-path="url(#clip-path-16)">
              <path id="Trazado_873320" data-name="Trazado 873320" d="M62.5,117.4a1.53,1.53,0,0,1-.909-.3l-4.6-3.4a1.755,1.755,0,0,0-1.044-.342H37.086A3.09,3.09,0,0,1,34,110.277V97.4a3.09,3.09,0,0,1,3.086-3.086H60.954A3.09,3.09,0,0,1,64.04,97.4V115.87A1.537,1.537,0,0,1,62.5,117.4M37.086,94.878a2.523,2.523,0,0,0-2.52,2.52v12.879a2.523,2.523,0,0,0,2.52,2.52H55.948a2.317,2.317,0,0,1,1.379.453l4.6,3.4a.968.968,0,0,0,1.543-.779V97.4a2.523,2.523,0,0,0-2.52-2.52Z" transform="translate(-34 -94.312)"/>
            </g>
          </g>
        </g>
        <g id="Grupo_1099432" data-name="Grupo 1099432" transform="translate(8.567 15.086)" opacity="0.6" style="isolation: isolate">
          <g id="Grupo_1099431" data-name="Grupo 1099431">
            <g id="Grupo_1099430" data-name="Grupo 1099430" clip-path="url(#clip-path-17)">
              <path id="Trazado_873321" data-name="Trazado 873321" d="M71.924,140.812a2.8,2.8,0,0,1-2.8-2.8.283.283,0,1,1,.566,0,2.232,2.232,0,1,0,2.232-2.232,2.8,2.8,0,1,1,2.8-2.8.283.283,0,1,1-.566,0,2.232,2.232,0,1,0-2.232,2.232,2.8,2.8,0,0,1,0,5.6" transform="translate(-69.126 -129.135)"/>
              <path id="Trazado_873322" data-name="Trazado 873322" d="M89.706,134.449a.283.283,0,0,1-.283-.283V122.007a.283.283,0,0,1,.566,0v12.159a.283.283,0,0,1-.283.283" transform="translate(-86.907 -121.724)"/>
              <path id="Trazado_873323" data-name="Trazado 873323" d="M150.985,132.4H138.821a.283.283,0,1,1,0-.566h12.164a.283.283,0,0,1,0,.566" transform="translate(-129.935 -130.583)"/>
              <path id="Trazado_873324" data-name="Trazado 873324" d="M150.985,158.362H138.821a.283.283,0,1,1,0-.566h12.164a.283.283,0,0,1,0,.566" transform="translate(-129.935 -153.325)"/>
              <path id="Trazado_873325" data-name="Trazado 873325" d="M150.985,184.322H138.821a.283.283,0,1,1,0-.566h12.164a.283.283,0,0,1,0,.566" transform="translate(-129.935 -176.068)"/>
              <path id="Trazado_873326" data-name="Trazado 873326" d="M145.486,210.282h-6.665a.283.283,0,1,1,0-.566h6.665a.283.283,0,0,1,0,.566" transform="translate(-129.935 -198.81)"/>
            </g>
          </g>
        </g>
        <g id="Grupo_1099435" data-name="Grupo 1099435" transform="translate(111.846 46.468)" opacity="0.6" style="isolation: isolate">
          <g id="Grupo_1099434" data-name="Grupo 1099434">
            <g id="Grupo_1099433" data-name="Grupo 1099433" clip-path="url(#clip-path-18)">
              <rect id="Rectángulo_401421" data-name="Rectángulo 401421" width="31.365" height="28.083" transform="translate(0.283 0.283)"/>
              <path id="Trazado_873327" data-name="Trazado 873327" d="M934.1,403.583H902.73a.283.283,0,0,1-.283-.283V375.218a.283.283,0,0,1,.283-.283H934.1a.283.283,0,0,1,.283.283V403.3a.283.283,0,0,1-.283.283m-31.082-.566h30.8V375.5h-30.8Z" transform="translate(-902.447 -374.935)"/>
            </g>
          </g>
        </g>
        <rect id="Rectángulo_401423" data-name="Rectángulo 401423" width="31.365" height="28.083" transform="translate(108.936 46.751)" fill="#fff"/>
        <g id="Grupo_1099438" data-name="Grupo 1099438" transform="translate(108.652 46.468)" opacity="0.6" style="isolation: isolate">
          <g id="Grupo_1099437" data-name="Grupo 1099437">
            <g id="Grupo_1099436" data-name="Grupo 1099436" clip-path="url(#clip-path-19)">
              <path id="Trazado_873328" data-name="Trazado 873328" d="M908.327,403.585H876.959a.283.283,0,0,1-.283-.283V384.8a.283.283,0,0,1,.566,0v18.219h30.8V375.5h-30.8v3.168a.283.283,0,1,1-.566,0v-3.451a.283.283,0,0,1,.283-.283h31.368a.283.283,0,0,1,.283.283V403.3a.283.283,0,0,1-.283.283" transform="translate(-876.676 -374.935)"/>
            </g>
          </g>
        </g>
        <path id="Trazado_873329" data-name="Trazado 873329" d="M1070.24,481.028v6a.855.855,0,0,1-.855.855h-2.334a.855.855,0,0,1-.855-.855v-6a.855.855,0,0,1,.855-.855h2.334a.855.855,0,0,1,.855.855" transform="translate(-934.055 -420.662)" fill="#fff"/>
        <path id="Trazado_873330" data-name="Trazado 873330" d="M1016.415,425.694v12.862a.855.855,0,0,1-.855.855h-2.335a.855.855,0,0,1-.855-.855V425.694a.855.855,0,0,1,.855-.855h2.335a.855.855,0,0,1,.855.855" transform="translate(-886.899 -372.186)" fill="#fff"/>
        <path id="Trazado_873331" data-name="Trazado 873331" d="M908.776,449.518v9.91a.857.857,0,0,1-.857.855h-2.334a.855.855,0,0,1-.855-.855v-9.91a.855.855,0,0,1,.855-.855h2.334a.857.857,0,0,1,.857.855" transform="translate(-792.601 -393.057)" fill="#fff"/>
        <path id="Trazado_873332" data-name="Trazado 873332" d="M962.6,398.8v16.2a.855.855,0,0,1-.855.855h-2.334a.855.855,0,0,1-.855-.855V398.8a.855.855,0,0,1,.855-.855h2.334a.855.855,0,0,1,.855.855" transform="translate(-839.757 -348.621)" fill="#fff"/>
        <path id="Trazado_873333" data-name="Trazado 873333" d="M1070.24,518.693v1.336a.855.855,0,0,1-.855.855h-2.334a.855.855,0,0,1-.855-.855v-1.336a.855.855,0,0,1,.855-.855h2.334a.855.855,0,0,1,.855.855" transform="translate(-934.055 -453.659)" fill="#ffd256"/>
        <path id="Trazado_873334" data-name="Trazado 873334" d="M1016.415,463.359v8.194a.855.855,0,0,1-.855.855h-2.335a.855.855,0,0,1-.855-.855v-8.194a.855.855,0,0,1,.855-.855h2.335a.855.855,0,0,1,.855.855" transform="translate(-886.899 -405.183)" fill="#ffd256"/>
        <path id="Trazado_873335" data-name="Trazado 873335" d="M908.776,487.183v5.242a.857.857,0,0,1-.857.855h-2.334a.855.855,0,0,1-.855-.855v-5.242a.855.855,0,0,1,.855-.855h2.334a.857.857,0,0,1,.857.855" transform="translate(-792.601 -426.054)" fill="#ffd256"/>
        <path id="Trazado_873336" data-name="Trazado 873336" d="M962.6,436.461v11.528a.855.855,0,0,1-.855.855h-2.334a.855.855,0,0,1-.855-.855V436.461a.855.855,0,0,1,.855-.855h2.334a.855.855,0,0,1,.855.855" transform="translate(-839.757 -381.618)" fill="#ffd256"/>
        <g id="Grupo_1099441" data-name="Grupo 1099441" transform="translate(10.686 4.464)" opacity="0.6" style="isolation: isolate">
          <g id="Grupo_1099440" data-name="Grupo 1099440">
            <g id="Grupo_1099439" data-name="Grupo 1099439" clip-path="url(#clip-path-20)">
              <path id="Trazado_873337" data-name="Trazado 873337" d="M1078.809,42.824a.283.283,0,0,1-.2-.48l6.052-6.235a.283.283,0,1,1,.406.394l-6.052,6.235a.283.283,0,0,1-.2.086" transform="translate(-955.543 -36.023)"/>
              <path id="Trazado_873338" data-name="Trazado 873338" d="M1026.555,50.8a.283.283,0,0,1-.2-.48l6.052-6.235a.283.283,0,0,1,.406.394l-6.052,6.235a.282.282,0,0,1-.2.086" transform="translate(-909.765 -43.012)"/>
              <path id="Trazado_873339" data-name="Trazado 873339" d="M86.506,849.254a.283.283,0,0,1-.2-.481l7.662-7.825a.283.283,0,0,1,.4.4l-7.662,7.825a.282.282,0,0,1-.2.085" transform="translate(-86.223 -741.114)"/>
              <path id="Trazado_873340" data-name="Trazado 873340" d="M91.766,904.116a.283.283,0,0,1-.2-.485l4.239-4.157a.283.283,0,0,1,.4.4l-4.238,4.157a.282.282,0,0,1-.2.081" transform="translate(-90.831 -792.39)"/>
              <path id="Trazado_873341" data-name="Trazado 873341" d="M1054.737,689.022a.283.283,0,0,1-.2-.483L1060.08,683a.283.283,0,0,1,.4.4l-5.542,5.542a.283.283,0,0,1-.2.083" transform="translate(-934.454 -602.739)"/>
              <path id="Trazado_873342" data-name="Trazado 873342" d="M1058.683,685.946a.283.283,0,0,1-.2-.486l9.944-9.7a.283.283,0,1,1,.4.405l-9.944,9.7a.282.282,0,0,1-.2.08" transform="translate(-937.911 -596.403)"/>
            </g>
          </g>
        </g>
        <path id="Trazado_873343" data-name="Trazado 873343" d="M861.171,209.049c-.98,2.574-2.175,4.509-2.668,4.321s-.1-2.427.883-5,2.174-4.509,2.667-4.321.1,2.427-.883,5" transform="translate(-751.917 -178.748)" fill="#fff"/>
        <path id="Trazado_873344" data-name="Trazado 873344" d="M753.408,586.594c-1.377,2.386-2.864,4.106-3.321,3.842s.289-2.411,1.667-4.8,2.864-4.106,3.321-3.842-.289,2.411-1.667,4.8" transform="translate(-657.006 -509.668)" fill="#fff"/>
        <path id="Trazado_873345" data-name="Trazado 873345" d="M438.373,125.37c-1.377,2.386-2.864,4.106-3.321,3.842s.289-2.411,1.667-4.8,2.864-4.106,3.321-3.842-.289,2.411-1.667,4.8" transform="translate(-381.016 -105.606)" fill="#fff"/>
        <path id="Trazado_873346" data-name="Trazado 873346" d="M535.731,305.365c-1.377,2.386-2.864,4.106-3.321,3.842s.289-2.411,1.667-4.8,2.864-4.106,3.321-3.842-.289,2.411-1.667,4.8" transform="translate(-466.307 -263.293)" fill="#fff"/>
      </g>
    </g>
  </g>
</svg>
