<svg xmlns="http://www.w3.org/2000/svg" width="85" height="85" viewBox="0 0 85 85">
  <g id="Grupo_1169583" data-name="Grupo 1169583" transform="translate(-495 -2081.5)">
    <circle id="Elipse_11507" data-name="Elipse 11507" cx="42.5" cy="42.5" r="42.5" transform="translate(495 2081.5)" fill="#ffd256"/>
    <g id="nivel-de-tinta" transform="translate(516.974 2104.154)">
      <path id="Trazado_1016508" data-name="Trazado 1016508" d="M3.1,2.326A1.163,1.163,0,1,0,3.1,0H1.163A1.163,1.163,0,0,0,0,1.163V38.53a1.163,1.163,0,0,0,1.163,1.163H3.1a1.163,1.163,0,0,0,0-2.326H2.326V35.022h.155a1.163,1.163,0,1,0,0-2.326H2.326V30.351H3.1a1.163,1.163,0,0,0,0-2.326H2.326V25.68h.155a1.163,1.163,0,0,0,0-2.326H2.326V21.009H3.1a1.163,1.163,0,0,0,0-2.326H2.326V16.338h.155a1.163,1.163,0,0,0,0-2.326H2.326V11.668H3.1a1.163,1.163,0,1,0,0-2.326H2.326V7h.155a1.163,1.163,0,1,0,0-2.326H2.326V2.326Z" fill="#b1923b"/>
      <path id="Trazado_1016509" data-name="Trazado 1016509" d="M97.24,1.24H95.364V1.163a1.163,1.163,0,1,0-2.326,0V1.24H91.162A1.163,1.163,0,0,0,90,2.4V38.53a1.163,1.163,0,0,0,1.163,1.163H97.24A1.163,1.163,0,0,0,98.4,38.53V2.4A1.163,1.163,0,0,0,97.24,1.24ZM96.077,3.566v10.27H92.325V3.566Zm-3.752,33.8v-21.2h3.752v21.2Z" transform="translate(-83.022)" fill="#b1923b"/>
      <path id="Trazado_1016510" data-name="Trazado 1016510" d="M254.04,1.24h-1.876V1.163a1.163,1.163,0,0,0-2.326,0V1.24h-1.876A1.163,1.163,0,0,0,246.8,2.4V38.53a1.163,1.163,0,0,0,1.163,1.163h6.078A1.163,1.163,0,0,0,255.2,38.53V2.4A1.163,1.163,0,0,0,254.04,1.24Zm-1.163,2.326V25.893h-3.752V3.566Zm-3.752,33.8V28.219h3.752v9.148Z" transform="translate(-227.666)" fill="#b1923b"/>
      <path id="Trazado_1016511" data-name="Trazado 1016511" d="M410.841,1.24h-1.876V1.163a1.163,1.163,0,0,0-2.326,0V1.24h-1.876A1.163,1.163,0,0,0,403.6,2.4V38.53a1.163,1.163,0,0,0,1.163,1.163h6.078A1.163,1.163,0,0,0,412,38.53V2.4A1.163,1.163,0,0,0,410.841,1.24Zm-1.163,2.326V7.635h-3.752V3.566Zm-3.752,33.8V9.96h3.752V37.367Z" transform="translate(-372.311)" fill="#b1923b"/>
    </g>
  </g>
</svg>
