<svg xmlns="http://www.w3.org/2000/svg" width="125" height="125" viewBox="0 0 125 125">
  <g id="Grupo_1169677" data-name="Grupo 1169677" transform="translate(-1104.307 -937.228)">
    <g id="Grupo_1162816" data-name="Grupo 1162816" transform="translate(1104.307 937.228)">
      <circle id="Elipse_11496" data-name="Elipse 11496" cx="62.5" cy="62.5" r="62.5" fill="#fff"/>
    </g>
    <g id="stable" transform="translate(1127.746 976.83)">
      <path id="Trazado_1018299" data-name="Trazado 1018299" d="M71.368,31.342V29.856H68.4a2.975,2.975,0,0,1-2.971-2.971V25.4A2.975,2.975,0,0,1,68.4,22.428a1.486,1.486,0,0,1,2.971,0h1.486a1.486,1.486,0,1,1,0,2.971H68.4v1.486h2.971a2.975,2.975,0,0,1,2.971,2.971v1.486a2.975,2.975,0,0,1-2.971,2.971,1.486,1.486,0,0,1-2.971,0H66.911a1.486,1.486,0,1,1,0-2.971ZM56.512,28.371A13.371,13.371,0,1,1,69.883,41.741,13.371,13.371,0,0,1,56.512,28.371Zm2.971,0a10.4,10.4,0,1,0,10.4-10.4,10.4,10.4,0,0,0-10.4,10.4ZM83.254,46.2v5.943a1.485,1.485,0,0,1-1.486,1.486h-31.2v10.4a1.485,1.485,0,0,1-1.486,1.486H40.17a1.485,1.485,0,0,1-1.486-1.486v-10.4H7.486A1.485,1.485,0,0,1,6,52.141V46.2a1.485,1.485,0,0,1,1.486-1.486H81.768A1.485,1.485,0,0,1,83.254,46.2ZM47.6,53.627H41.656V62.54H47.6Zm32.684-5.943H8.971v2.971H80.282ZM6,28.371A13.371,13.371,0,1,1,19.371,41.741,13.371,13.371,0,0,1,6,28.371Zm13.371,10.4a10.33,10.33,0,0,0,5.668-1.692,5.905,5.905,0,0,0-11.337,0,10.33,10.33,0,0,0,5.669,1.692Zm-10.4-10.4a10.352,10.352,0,0,0,2.379,6.613,8.837,8.837,0,0,1,16.041,0,10.4,10.4,0,1,0-18.42-6.613Zm5.943-4.457a4.457,4.457,0,1,1,4.457,4.457,4.457,4.457,0,0,1-4.457-4.457Zm2.971,0a1.486,1.486,0,1,0,1.486-1.486A1.486,1.486,0,0,0,17.885,23.914Z" transform="translate(-6 -15)" fill="#8f85b2"/>
    </g>
  </g>
</svg>
