<svg xmlns="http://www.w3.org/2000/svg" width="125" height="125" viewBox="0 0 125 125">
  <g id="Grupo_1169679" data-name="Grupo 1169679" transform="translate(-11616.307 10704.184)">
    <g id="Grupo_1168703" data-name="Grupo 1168703" transform="translate(11616.307 -10704.184)">
      <circle id="Elipse_11496" data-name="Elipse 11496" cx="62.5" cy="62.5" r="62.5" fill="#fff"/>
    </g>
    <g id="segmentation3" transform="translate(11630.5 -10681.205)">
      <path id="Trazado_1018301" data-name="Trazado 1018301" d="M18.193,40.53a4.572,4.572,0,1,0,4.572-4.572,4.572,4.572,0,0,0-4.572,4.572Zm6.1,0a1.524,1.524,0,1,1-1.524-1.524A1.524,1.524,0,0,1,24.289,40.53Zm38.1-12.193H83.73a1.524,1.524,0,0,0,1.524-1.524V8.524A1.524,1.524,0,0,0,83.73,7H62.392a1.524,1.524,0,0,0-1.524,1.524v7.621H31.91a1.522,1.522,0,0,0-1.219.61L21.974,28.378a16.743,16.743,0,0,0,0,33.45l8.717,11.623a1.522,1.522,0,0,0,1.219.61H60.868v7.621a1.524,1.524,0,0,0,1.524,1.524H83.73a1.524,1.524,0,0,0,1.524-1.524V63.392a1.524,1.524,0,0,0-1.524-1.524H62.392a1.524,1.524,0,0,0-1.524,1.524v7.621h-28.2l-7.055-9.406a16.781,16.781,0,0,0,13.836-14.98H60.868v7.621a1.524,1.524,0,0,0,1.524,1.524H83.73a1.524,1.524,0,0,0,1.524-1.524V35.958a1.524,1.524,0,0,0-1.524-1.524H62.392a1.524,1.524,0,0,0-1.524,1.524v7.621H39.453A16.781,16.781,0,0,0,25.617,28.6l7.055-9.406h28.2v7.621a1.524,1.524,0,0,0,1.524,1.524Zm1.524-18.289H82.206V25.289H63.916Zm0,54.868H82.206V80.157H63.916Zm0-27.434H82.206V52.723H63.916ZM22.765,58.82a13.626,13.626,0,0,1-8.1-2.67,9.1,9.1,0,0,1,16.2,0A13.626,13.626,0,0,1,22.765,58.82ZM36.482,45.1a13.647,13.647,0,0,1-3.323,8.926,12.132,12.132,0,0,0-20.789,0A13.71,13.71,0,1,1,36.482,45.1ZM66.965,14.621A1.524,1.524,0,0,1,68.489,13.1h4.572a1.524,1.524,0,1,1,0,3.048H68.489a1.524,1.524,0,0,1-1.524-1.524Zm12.193,6.1a1.524,1.524,0,0,1-1.524,1.524H68.489a1.524,1.524,0,1,1,0-3.048h9.145a1.524,1.524,0,0,1,1.524,1.524ZM66.965,42.055a1.524,1.524,0,0,1,1.524-1.524h4.572a1.524,1.524,0,1,1,0,3.048H68.489a1.524,1.524,0,0,1-1.524-1.524Zm12.193,6.1a1.524,1.524,0,0,1-1.524,1.524H68.489a1.524,1.524,0,1,1,0-3.048h9.145a1.524,1.524,0,0,1,1.524,1.524ZM66.965,69.489a1.524,1.524,0,0,1,1.524-1.524h4.572a1.524,1.524,0,1,1,0,3.048H68.489a1.524,1.524,0,0,1-1.524-1.524Zm12.193,6.1a1.524,1.524,0,0,1-1.524,1.524H68.489a1.524,1.524,0,1,1,0-3.048h9.145a1.524,1.524,0,0,1,1.524,1.524Z" transform="translate(-6 -7)" fill="#8f85b2"/>
    </g>
  </g>
</svg>
