<svg xmlns="http://www.w3.org/2000/svg" width="85" height="85" viewBox="0 0 85 85"><g transform="translate(-180 -3085.413)"><circle cx="42.5" cy="42.5" r="42.5" transform="translate(180 3085.413)" fill="#ffd256"/><g transform="translate(201.143 3104.158)"><g transform="translate(3.942 16.087)"><path d="M13.651,28.654H9.4a.689.689,0,0,1-.693-.693V23.713A.689.689,0,0,1,9.4,23.02h4.249a.689.689,0,0,1,.693.693v4.248A.689.689,0,0,1,13.651,28.654ZM10.1,27.268h2.863V24.405H10.1Z" transform="translate(-8.71 -23.02)" fill="#b1923b"/><path d="M26.881,28.654H22.633a.689.689,0,0,1-.693-.693V23.713a.689.689,0,0,1,.693-.693h4.249a.689.689,0,0,1,.693.693v4.248A.689.689,0,0,1,26.881,28.654Zm-3.556-1.385h2.863V24.405H23.325Z" transform="translate(-12.493 -23.02)" fill="#b1923b"/><path d="M40.111,28.654H35.863a.689.689,0,0,1-.693-.693V23.713a.689.689,0,0,1,.693-.693h4.249a.689.689,0,0,1,.693.693v4.248A.689.689,0,0,1,40.111,28.654Zm-3.556-1.385h2.863V24.405H36.555Z" transform="translate(-16.277 -23.02)" fill="#b1923b"/><path d="M53.341,28.654H49.093a.689.689,0,0,1-.693-.693V23.713a.689.689,0,0,1,.693-.693h4.249a.689.689,0,0,1,.693.693v4.248A.689.689,0,0,1,53.341,28.654Zm-3.556-1.385h2.863V24.405H49.785Z" transform="translate(-20.06 -23.02)" fill="#b1923b"/></g><g transform="translate(3.942 24.812)"><path d="M13.651,40.874H9.4a.689.689,0,0,1-.693-.693V35.933A.689.689,0,0,1,9.4,35.24h4.249a.689.689,0,0,1,.693.693v4.248A.689.689,0,0,1,13.651,40.874ZM10.1,39.488h2.863V36.625H10.1Z" transform="translate(-8.71 -35.24)" fill="#b1923b"/><path d="M26.881,40.874H22.633a.689.689,0,0,1-.693-.693V35.933a.689.689,0,0,1,.693-.693h4.249a.689.689,0,0,1,.693.693v4.248A.689.689,0,0,1,26.881,40.874Zm-3.556-1.385h2.863V36.625H23.325Z" transform="translate(-12.493 -35.24)" fill="#b1923b"/><path d="M40.111,40.874H35.863a.689.689,0,0,1-.693-.693V35.933a.689.689,0,0,1,.693-.693h4.249a.689.689,0,0,1,.693.693v4.248A.689.689,0,0,1,40.111,40.874Zm-3.556-1.385h2.863V36.625H36.555Z" transform="translate(-16.277 -35.24)" fill="#b1923b"/><path d="M53.341,40.874H49.093a.689.689,0,0,1-.693-.693V35.933a.689.689,0,0,1,.693-.693h4.249a.689.689,0,0,1,.693.693v4.248A.689.689,0,0,1,53.341,40.874Zm-3.556-1.385h2.863V36.625H49.785Z" transform="translate(-20.06 -35.24)" fill="#b1923b"/></g><g transform="translate(3.942 33.53)"><path d="M13.651,53.084H9.4a.689.689,0,0,1-.693-.693V48.143A.689.689,0,0,1,9.4,47.45h4.249a.689.689,0,0,1,.693.693v4.248A.689.689,0,0,1,13.651,53.084ZM10.1,51.7h2.863V48.835H10.1Z" transform="translate(-8.71 -47.45)" fill="#b1923b"/><path d="M26.881,53.084H22.633a.689.689,0,0,1-.693-.693V48.143a.689.689,0,0,1,.693-.693h4.249a.689.689,0,0,1,.693.693v4.248A.689.689,0,0,1,26.881,53.084ZM23.325,51.7h2.863V48.835H23.325Z" transform="translate(-12.493 -47.45)" fill="#b1923b"/><path d="M40.111,53.084H35.863a.689.689,0,0,1-.693-.693V48.143a.689.689,0,0,1,.693-.693h4.249a.689.689,0,0,1,.693.693v4.248A.689.689,0,0,1,40.111,53.084ZM36.555,51.7h2.863V48.835H36.555Z" transform="translate(-16.277 -47.45)" fill="#b1923b"/><path d="M53.341,53.084H49.093a.689.689,0,0,1-.693-.693V48.143a.689.689,0,0,1,.693-.693h4.249a.689.689,0,0,1,.693.693v4.248A.689.689,0,0,1,53.341,53.084ZM49.785,51.7h2.863V48.835H49.785Z" transform="translate(-20.06 -47.45)" fill="#b1923b"/></g><path d="M26.772,7.265H21.053a.693.693,0,1,1,0-1.385h5.719a.693.693,0,1,1,0,1.385Z" transform="translate(-8.1 -2.032)" fill="#b1923b"/><path d="M42.1,47.743H6.139A2.95,2.95,0,0,1,3.19,44.794V8.829A2.95,2.95,0,0,1,6.139,5.88H11.63a.693.693,0,1,1,0,1.385H6.139A1.563,1.563,0,0,0,4.575,8.829V44.794a1.563,1.563,0,0,0,1.564,1.564H42.1a1.563,1.563,0,0,0,1.564-1.564V8.829A1.563,1.563,0,0,0,42.1,7.265H36.614a.693.693,0,1,1,0-1.385H42.1a2.95,2.95,0,0,1,2.949,2.949V44.794A2.95,2.95,0,0,1,42.1,47.743Z" transform="translate(-3.19 -2.032)" fill="#b1923b"/><path d="M41.1,7.265H35.393a.693.693,0,1,1,0-1.385H41.1a.693.693,0,1,1,0,1.385Z" transform="translate(-12.201 -2.032)" fill="#b1923b"/><path d="M44.354,17.4H3.883a.693.693,0,1,1,0-1.385H44.354a.693.693,0,1,1,0,1.385Z" transform="translate(-3.19 -4.929)" fill="#b1923b"/><g transform="translate(7.748 0)"><path d="M17.025,9.415h-.071A2.916,2.916,0,0,1,14.04,6.5V3.41A2.922,2.922,0,0,1,16.953.49h.071a2.924,2.924,0,0,1,2.92,2.92V6.5A2.918,2.918,0,0,1,17.025,9.415Zm-.071-7.54A1.531,1.531,0,0,0,15.425,3.41V6.5A1.53,1.53,0,0,0,16.953,8.03h.071A1.536,1.536,0,0,0,18.56,6.5V3.41a1.537,1.537,0,0,0-1.535-1.535Z" transform="translate(-14.04 -0.49)" fill="#b1923b"/><path d="M31.352,9.415H31.28A2.922,2.922,0,0,1,28.36,6.5V3.41A2.924,2.924,0,0,1,31.28.49h.071a2.924,2.924,0,0,1,2.92,2.92V6.5A2.918,2.918,0,0,1,31.352,9.415Zm-.071-7.54A1.537,1.537,0,0,0,29.745,3.41V6.5A1.531,1.531,0,0,0,31.28,8.03h.071A1.536,1.536,0,0,0,32.887,6.5V3.41a1.537,1.537,0,0,0-1.535-1.535Z" transform="translate(-18.135 -0.49)" fill="#b1923b"/><path d="M45.685,9.415h-.071A2.916,2.916,0,0,1,42.7,6.5V3.41A2.922,2.922,0,0,1,45.613.49h.071A2.918,2.918,0,0,1,48.6,3.41V6.5a2.916,2.916,0,0,1-2.913,2.913Zm-.071-7.54A1.531,1.531,0,0,0,44.085,3.41V6.5A1.53,1.53,0,0,0,45.613,8.03h.071A1.53,1.53,0,0,0,47.213,6.5V3.41a1.536,1.536,0,0,0-1.528-1.535Z" transform="translate(-22.236 -0.49)" fill="#b1923b"/></g></g></g></svg>