<svg xmlns="http://www.w3.org/2000/svg" width="125" height="125" viewBox="0 0 125 125"><g transform="translate(-372.307 -1354.069)"><circle cx="62.5" cy="62.5" r="62.5" transform="translate(372.307 1354.069)" fill="#fff"/><path d="M48.006,8A40.006,40.006,0,1,1,8,48.006,40.025,40.025,0,0,1,48.006,8ZM14.77,30.126a37.518,37.518,0,0,0-4.486,16.746H22.52a25.353,25.353,0,0,1,2.846-10.628ZM28.166,15.9a37.977,37.977,0,0,0-12.26,12.259l10.6,6.118a25.676,25.676,0,0,1,7.781-7.78Zm18.707-5.621a37.517,37.517,0,0,0-16.744,4.485l6.117,10.6A25.355,25.355,0,0,1,46.872,22.52ZM65.887,14.77A37.518,37.518,0,0,0,49.14,10.284V22.52a25.353,25.353,0,0,1,10.629,2.847ZM80.106,28.163A37.978,37.978,0,0,0,67.849,15.906L61.731,26.5a25.677,25.677,0,0,1,7.779,7.779Zm5.622,18.709a37.52,37.52,0,0,0-4.486-16.747l-10.6,6.119a25.353,25.353,0,0,1,2.846,10.628ZM47.853,85.744h.153a37.758,37.758,0,0,0,37.722-36.6H53.3a5.418,5.418,0,0,1-10.595,0H10.284A37.546,37.546,0,0,0,17.6,70.348V55.45a2.425,2.425,0,0,1,2.425-2.425H23.76a2.425,2.425,0,0,1,2.425,2.425V78.791q1.1.778,2.247,1.479V61.641a2.425,2.425,0,0,1,2.425-2.425h3.738a2.425,2.425,0,0,1,2.425,2.425V84.117q1.109.337,2.247.608V67.832a2.425,2.425,0,0,1,2.425-2.425h3.738a2.425,2.425,0,0,1,2.425,2.425Zm-6.32-.554a37.743,37.743,0,0,0,4.052.477V67.832a.157.157,0,0,0-.157-.157H41.69a.157.157,0,0,0-.157.157ZM30.7,81.545a37.534,37.534,0,0,0,4.052,1.8V61.641a.157.157,0,0,0-.157-.157H30.856a.157.157,0,0,0-.157.157ZM19.864,73.14a38.01,38.01,0,0,0,4.052,3.908V55.45a.157.157,0,0,0-.157-.157H20.021a.157.157,0,0,0-.157.157ZM24.79,46.872H42.709a5.421,5.421,0,0,1,6.674-4.106l4.842-9.585A1.134,1.134,0,0,1,56.249,34.2l-4.843,9.587a5.419,5.419,0,0,1,1.9,3.082H71.223a23.244,23.244,0,0,0-46.433,0ZM78.648,59.978c-.688,2.643-2.619,6.961-8,11.708C61.934,79.375,55.334,79.7,55.334,79.7a1.134,1.134,0,1,1-.133-2.264s5.975-.416,13.947-7.45c5.575-4.919,7.067-9.25,7.464-11.31l-3.243,1.7a1.134,1.134,0,1,1-1.055-2.007l5.307-2.789a1.134,1.134,0,0,1,1.531.476l2.789,5.306a1.134,1.134,0,1,1-2.007,1.055ZM48.006,44.857a3.149,3.149,0,1,0,3.149,3.149,3.15,3.15,0,0,0-3.149-3.149Z" transform="translate(386.988 1371.242)" fill="#8f85b2" fill-rule="evenodd"/></g></svg>