<svg xmlns="http://www.w3.org/2000/svg" width="125" height="125" viewBox="0 0 125 125"><g transform="translate(-8752 10299.774)"><g transform="translate(8752 -10299.774)"><circle cx="62.5" cy="62.5" r="62.5" fill="#fff"/></g><path d="M11.5,121.133a3.181,3.181,0,0,1-.113-.842v-6.22a3.177,3.177,0,0,1,3.176-3.176,5.753,5.753,0,0,0,4.066-9.817,3.176,3.176,0,0,1,0-4.491l4.4-4.4a3.176,3.176,0,0,1,4.491,0,5.753,5.753,0,0,0,9.817-4.066,3.177,3.177,0,0,1,3.176-3.176h6.22a3.177,3.177,0,0,1,3.176,3.176,5.753,5.753,0,0,0,9.817,4.066,3.182,3.182,0,0,1,4.495,0l4.4,4.4a3.176,3.176,0,0,1,0,4.491,5.754,5.754,0,0,0,4.066,9.817,3.173,3.173,0,0,1,3.176,3.176v6.22a3.189,3.189,0,0,1-.113.841,1.134,1.134,0,0,1-1.094.834H12.589a1.134,1.134,0,0,1-1.093-.834ZM62.719,119.7H73.59v-5.628a.908.908,0,0,0-.909-.909,8.022,8.022,0,0,1-5.669-13.688.908.908,0,0,0,0-1.284l-4.4-4.4a.912.912,0,0,0-1.288,0,8.021,8.021,0,0,1-13.688-5.669.909.909,0,0,0-.909-.909H40.51a.909.909,0,0,0-.909.909,8.021,8.021,0,0,1-13.688,5.669.908.908,0,0,0-1.284,0l-4.4,4.4a.908.908,0,0,0,0,1.284,8.021,8.021,0,0,1-5.669,13.688.909.909,0,0,0-.909.909V119.7H24.521a19.3,19.3,0,1,1,38.2,0Zm-35.9,0H60.424a17.034,17.034,0,1,0-33.607,0Zm18.768-4.669A2.268,2.268,0,1,1,43.62,113.9l1.781-3.084a1.134,1.134,0,0,1,1.964,1.134Zm-10.427,2.549a1.134,1.134,0,0,1-2.234.39,10.858,10.858,0,1,1,21.426-.2,1.134,1.134,0,0,1-2.241-.348,8.59,8.59,0,1,0-16.952.157Zm42.428,17.3H9.134A1.134,1.134,0,0,1,8,133.742V126.97a1.134,1.134,0,0,1,1.134-1.134H77.586v-4.021a1.134,1.134,0,0,1,1.953-.783l8.159,8.541a1.134,1.134,0,0,1,0,1.566l-8.159,8.541a1.134,1.134,0,0,1-1.953-.783Zm2.268-1.134v2.327l5.457-5.713-5.457-5.713v2.327a1.134,1.134,0,0,1-1.134,1.134H10.268v4.5H78.719a1.134,1.134,0,0,1,1.134,1.134Z" transform="translate(8766.469 -10352.441)" fill="#8f85b2" fill-rule="evenodd"/></g></svg>