<svg xmlns="http://www.w3.org/2000/svg" width="125" height="125" viewBox="0 0 125 125"><g transform="translate(-8437 10302.454)"><circle cx="62.5" cy="62.5" r="62.5" transform="translate(8437 -10302.454)" fill="#fff"/><path d="M29.911,47.388h-6.4A2.487,2.487,0,0,1,21.023,44.9V10.487A2.487,2.487,0,0,1,23.51,8H86.537a2.487,2.487,0,0,1,2.487,2.487V44.9a2.487,2.487,0,0,1-2.487,2.487H52.409v6.735a1.017,1.017,0,0,1-1.017,1.017H30.929a1.017,1.017,0,0,1-1.017-1.017Zm22.354-2.034H86.537a.452.452,0,0,0,.452-.452V10.487a.452.452,0,0,0-.452-.452H23.51a.452.452,0,0,0-.452.452V44.9a.452.452,0,0,0,.452.452h6.545a6.171,6.171,0,0,1,6.027-4.847h2.179a1.018,1.018,0,0,1,.7.284L41.159,42.9l2.182-2.1a1.017,1.017,0,0,1,.706-.285h2.191a6.171,6.171,0,0,1,6.027,4.847Zm-5.028,7.753h3.137V46.678a4.137,4.137,0,0,0-4.137-4.137H44.457l-2.591,2.5a1.017,1.017,0,0,1-1.411,0l-2.6-2.5h-1.77a4.137,4.137,0,0,0-4.137,4.137v6.429h3.137V47.823a1.017,1.017,0,1,1,2.034,0v5.283H45.2V47.823a1.017,1.017,0,1,1,2.034,0ZM33.477,23.13a3.178,3.178,0,1,1-1.146-1.681l4.02-2.735a3.171,3.171,0,1,1,6.21-.526L46.084,19.8a3.158,3.158,0,0,1,4.2-.366l4.038-2.777a3.176,3.176,0,1,1,1.154,1.675L51.44,21.106a3.169,3.169,0,1,1-6.2.541l-3.523-1.609A3.162,3.162,0,0,1,37.5,20.4Zm-3.054,1.983a1.135,1.135,0,1,0-1.135-1.135A1.137,1.137,0,0,0,30.423,25.113ZM39.407,19a1.135,1.135,0,1,0-1.137-1.137A1.139,1.139,0,0,0,39.407,19Zm8.983,4.1a1.135,1.135,0,1,0-1.135-1.135A1.137,1.137,0,0,0,48.39,23.1Zm8.984-6.177a1.135,1.135,0,1,0-1.137-1.137A1.137,1.137,0,0,0,57.374,16.927ZM82.457,39.01h1.106a1.017,1.017,0,0,1,0,2.034H59.189a1.017,1.017,0,0,1,0-2.034H60.3V31.953A1.752,1.752,0,0,1,62.047,30.2h2.589a1.752,1.752,0,0,1,1.752,1.752V39.01H68.33V28.429a1.752,1.752,0,0,1,1.752-1.752H72.67a1.752,1.752,0,0,1,1.752,1.752V39.01h1.942V24.9a1.752,1.752,0,0,1,1.752-1.752h2.589A1.752,1.752,0,0,1,82.457,24.9Zm-20.127,0h2.024V32.235H62.329Zm8.035,0h2.024v-10.3H70.364Zm8.035,0h2.024V25.187H78.4ZM41.16,26.677a6.151,6.151,0,1,1-6.151,6.151A6.154,6.154,0,0,1,41.16,26.677Zm0,2.034a4.117,4.117,0,1,0,4.117,4.117A4.119,4.119,0,0,0,41.16,28.711Zm-7.735,27.9a4.816,4.816,0,1,1-4.816,4.816A4.819,4.819,0,0,1,33.425,56.61Zm0,2.034a2.782,2.782,0,1,0,2.782,2.782A2.783,2.783,0,0,0,33.425,58.645ZM41.851,75.7a3.314,3.314,0,0,1-2.09,2.867,14.764,14.764,0,0,1-6.335,1.219,14.763,14.763,0,0,1-6.335-1.219A3.314,3.314,0,0,1,25,75.7a8.426,8.426,0,0,1,16.851,0Zm-2.034,0a6.391,6.391,0,0,0-12.782,0c0,.476.44.775.991,1.061a12.641,12.641,0,0,0,5.4.991,12.641,12.641,0,0,0,5.4-.991C39.377,76.474,39.817,76.175,39.817,75.7ZM54.583,56.61a4.816,4.816,0,1,1-4.816,4.816,4.819,4.819,0,0,1,4.816-4.816Zm0,2.034a2.782,2.782,0,1,0,2.782,2.782,2.783,2.783,0,0,0-2.782-2.782ZM63.008,75.7a3.314,3.314,0,0,1-2.09,2.867,14.764,14.764,0,0,1-6.335,1.219,14.763,14.763,0,0,1-6.335-1.219,3.314,3.314,0,0,1-2.09-2.867,8.426,8.426,0,0,1,16.851,0Zm-2.034,0a6.391,6.391,0,0,0-12.783,0c0,.476.44.775.992,1.061a12.64,12.64,0,0,0,5.4.991,12.641,12.641,0,0,0,5.4-.991C60.534,76.474,60.974,76.175,60.974,75.7ZM76.621,56.61A4.816,4.816,0,1,1,71.8,61.427,4.819,4.819,0,0,1,76.621,56.61Zm0,2.034A2.782,2.782,0,1,0,79.4,61.427,2.783,2.783,0,0,0,76.621,58.645ZM85.047,75.7a3.314,3.314,0,0,1-2.09,2.867,14.763,14.763,0,0,1-6.335,1.219,14.764,14.764,0,0,1-6.335-1.219A3.314,3.314,0,0,1,68.2,75.7a8.426,8.426,0,0,1,16.851,0Zm-2.034,0a6.391,6.391,0,0,0-12.782,0c0,.476.44.775.991,1.061a12.641,12.641,0,0,0,5.4.991,12.641,12.641,0,0,0,5.4-.991C82.572,76.474,83.012,76.175,83.012,75.7Z" transform="translate(8445.977 -10280)" fill="#8f85b2" fill-rule="evenodd"/></g></svg>