<svg xmlns="http://www.w3.org/2000/svg" width="85" height="85" viewBox="0 0 85 85"><g transform="translate(-390 -3246.413)"><circle cx="42.5" cy="42.5" r="42.5" transform="translate(390 3246.413)" fill="#ffd256"/><g transform="translate(412.533 3262.313)"><path d="M18.062,27.544a.806.806,0,0,0,.224,1.122l2.975,1.986a.789.789,0,0,0,.449.133.8.8,0,0,0,.607-.274l3.665-4.163a.807.807,0,0,0-1.213-1.064l-3.2,3.631-2.385-1.587a.806.806,0,0,0-1.122.224Z" transform="translate(-9.303 -4.46)" fill="#b1923b"/><path d="M24.768,33.484l-3.2,3.631-2.385-1.587a.809.809,0,1,0-.9,1.346l2.975,1.978a.789.789,0,0,0,.449.133.8.8,0,0,0,.607-.274l3.665-4.163a.807.807,0,1,0-1.213-1.064Z" transform="translate(-9.303 -5.846)" fill="#b1923b"/><path d="M32.3,24.372h7.978a.806.806,0,1,0,0-1.612H32.3a.806.806,0,1,0,0,1.612Z" transform="translate(-11.596 -4.08)" fill="#b1923b"/><path d="M32.3,31.042h7.978a.806.806,0,1,0,0-1.612H32.3a.806.806,0,1,0,0,1.612Z" transform="translate(-11.596 -5.207)" fill="#b1923b"/><path d="M32.3,38.082h7.978a.806.806,0,1,0,0-1.612H32.3a.806.806,0,1,0,0,1.612Z" transform="translate(-11.596 -6.397)" fill="#b1923b"/><path d="M32.3,44.512h7.978a.806.806,0,1,0,0-1.612H32.3a.806.806,0,1,0,0,1.612Z" transform="translate(-11.596 -7.484)" fill="#b1923b"/><path d="M47.9,16.634a3.873,3.873,0,0,0-.9-.673V8.573a4.4,4.4,0,0,0-.258-1.479,4.4,4.4,0,0,0-4.155-2.767H30.934c0-.083.025-.158.025-.241a3.806,3.806,0,0,0-7.612,0,2.369,2.369,0,0,0,.025.241H12.079A4.534,4.534,0,0,0,7.55,8.856V49.507a2.583,2.583,0,0,0,.15.881,4.738,4.738,0,0,0,1.728,2.227,4.636,4.636,0,0,0,2.684.848H42.5c.083,0,.233.017.432.017a4.64,4.64,0,0,0,2.975-.956,3.32,3.32,0,0,0,1.105-2.443V42.469L48.867,39.9a.8.8,0,0,0,.15-.474V19.285A3.693,3.693,0,0,0,47.9,16.634Zm-.5,5.1h-6.59V18.254a.41.41,0,0,1,.033-.075,1.546,1.546,0,0,1,1.4-.814H46.2a1.757,1.757,0,0,1,.573.424,2.071,2.071,0,0,1,.615,1.487v2.451Zm-28.47-7.188H35.355a.8.8,0,0,0,.806-.806v-3.5h4.7a.871.871,0,0,1,.873.864v4.7a3.053,3.053,0,0,0-2.352,1.712,2.194,2.194,0,0,0-.141.391,1.046,1.046,0,0,0-.033.224v21.3a.776.776,0,0,0,.175.5l2.36,3.016v4.221a1.021,1.021,0,0,1-1.022,1.022H13.758a1.029,1.029,0,0,1-1.03-1.022V12.08a2.3,2.3,0,0,1,2.3-2.3h3.1V13.75a.8.8,0,0,0,.806.806Zm26.3-6.914a2.821,2.821,0,0,1,.158.939v7.188H43.341V11.108a2.484,2.484,0,0,0-2.485-2.476h-4.7v-2.7h6.432a2.772,2.772,0,0,1,2.643,1.7ZM27.145,1.892a2.2,2.2,0,0,1,2.194,2.194,1.994,1.994,0,0,1-.133.748.9.9,0,0,0-.025.158.869.869,0,0,0-.033.141.778.778,0,0,0,.05.241.09.09,0,0,0,.017.066.651.651,0,0,0,.083.125c.033.042.05.091.083.125.017.017.042.025.058.042a.888.888,0,0,0,.208.133.766.766,0,0,0,.3.058h4.6v7.013H19.741V5.931h4.6a.485.485,0,0,0,.15-.033.471.471,0,0,0,.15-.025,1.1,1.1,0,0,0,.208-.133c.017-.017.042-.025.058-.042A.753.753,0,0,0,25,5.565a.651.651,0,0,0,.083-.125c.008-.025,0-.05.017-.075a.778.778,0,0,0,.05-.241.485.485,0,0,0-.033-.15.471.471,0,0,0-.025-.15,1.994,1.994,0,0,1-.133-.748,2.2,2.2,0,0,1,2.194-2.194ZM45.394,50.039a1.642,1.642,0,0,1-.54,1.255,3.367,3.367,0,0,1-2.235.557H12.12a3.031,3.031,0,0,1-1.77-.565,3.071,3.071,0,0,1-1.13-1.429,1.026,1.026,0,0,1-.058-.349V8.847a2.921,2.921,0,0,1,2.917-2.917h6.05V8.158h-3.1a3.915,3.915,0,0,0-3.914,3.914V47.156a2.642,2.642,0,0,0,2.643,2.634H40.715a2.635,2.635,0,0,0,2.634-2.634V45l.291.374a.816.816,0,0,0,.632.307h.017a.8.8,0,0,0,.64-.332l.474-.656v5.343Zm-1.147-6.507-3.432-4.388v-15.8H47.4V39.162Z" transform="translate(-7.55 -0.28)" fill="#b1923b"/><path d="M51.386,29.43a.8.8,0,0,0-.806.806v14.6a.806.806,0,0,0,1.612,0v-14.6a.8.8,0,0,0-.806-.806Z" transform="translate(-14.822 -5.207)" fill="#b1923b"/></g></g></svg>