<svg xmlns="http://www.w3.org/2000/svg" width="125" height="125" viewBox="0 0 125 125">
  <g id="Grupo_1162818" data-name="Grupo 1162818" transform="translate(7342 6684)">
    <circle id="Elipse_11498" data-name="Elipse 11498" cx="62.5" cy="62.5" r="62.5" transform="translate(-7342 -6684)" fill="#fff"/>
    <path id="futbol-americano" d="M38.822,0A38.822,38.822,0,1,0,77.643,38.822,38.822,38.822,0,0,0,38.822,0ZM68.886,18.622,66.2,30.058,52.021,34.783,40.116,25.26V11.228L53.7,5.794A36.453,36.453,0,0,1,68.886,18.622ZM69.1,58.679,56.269,60.705l-6.988-9.231,3.56-14.235,14.017-4.671,8.03,9.635A36,36,0,0,1,69.1,58.679ZM21.431,60.714,8.541,58.679A36,36,0,0,1,2.756,42.2l8.023-9.635L24.8,37.236l3.56,14.242ZM2.6,38.339A36,36,0,0,1,6.846,21.8l2.1,8.929ZM30.774,50.468,27.341,36.723l11.481-9.184L50.3,36.726,46.87,50.468ZM68.7,30.726,70.8,21.8a36,36,0,0,1,4.246,16.536ZM50.174,4.419,38.821,8.96,27.408,4.44a36.1,36.1,0,0,1,22.766-.021Zm-26.3,1.4,13.649,5.409V25.26L25.622,34.783,11.447,30.058,8.757,18.622a36.46,36.46,0,0,1,15.121-12.8ZM10.7,61.641,21.222,63.3l6.362,9.964A36.352,36.352,0,0,1,10.7,61.641ZM31.294,74.263,23.572,62.174l6.838-9.118H47.233l6.936,9.162L47.44,74.01A36.121,36.121,0,0,1,31.3,74.27Zm19.741-1.332,5.516-9.652,10.395-1.64A36.373,36.373,0,0,1,51.035,72.931Zm0,0" transform="translate(-7319.322 -6660.643)" fill="#8f85b2"/>
  </g>
</svg>
