<svg xmlns="http://www.w3.org/2000/svg" width="85" height="85" viewBox="0 0 85 85"><g transform="translate(-1020 -3086.413)"><circle cx="42.5" cy="42.5" r="42.5" transform="translate(1020 3086.413)" fill="#ffd256"/><g transform="translate(1038.655 3104.919)"><path d="M10.614,36.262h7.147a.8.8,0,0,0,.806-.806V25.185a1.8,1.8,0,0,0-1.8-1.795H11.6a1.805,1.805,0,0,0-1.8,1.795V35.456a.8.8,0,0,0,.806.806Zm.806-11.077A.186.186,0,0,1,11.612,25h5.16a.192.192,0,0,1,.191.183V34.65H11.429V25.185Z" transform="translate(-4.88 -8.706)" fill="#b1923b"/><path d="M22.716,34.523h7.147a.8.8,0,0,0,.806-.806V14.9a1.807,1.807,0,0,0-1.8-1.8H23.7a1.8,1.8,0,0,0-1.795,1.8V33.717A.8.8,0,0,0,22.716,34.523ZM23.522,14.9a.192.192,0,0,1,.183-.191h5.16a.193.193,0,0,1,.191.191V32.911H23.522Z" transform="translate(-6.927 -6.967)" fill="#b1923b"/><path d="M34.584,35.537h7.147a.8.8,0,0,0,.806-.806V20.9a1.807,1.807,0,0,0-1.8-1.8h-5.16a1.807,1.807,0,0,0-1.8,1.8V34.731a.8.8,0,0,0,.806.806ZM35.39,20.9a.193.193,0,0,1,.191-.191h5.16a.193.193,0,0,1,.191.191V33.925H35.4V20.9Z" transform="translate(-8.931 -7.981)" fill="#b1923b"/><path d="M46.444,34.523h7.147a.8.8,0,0,0,.806-.806V14.9a1.807,1.807,0,0,0-1.8-1.8h-5.16a1.807,1.807,0,0,0-1.8,1.8V33.717a.8.8,0,0,0,.806.806ZM47.25,14.9a.193.193,0,0,1,.191-.191H52.6a.193.193,0,0,1,.191.191V32.911H47.259V14.9Z" transform="translate(-10.936 -6.967)" fill="#b1923b"/><path d="M46.668,5.72H8.783a4.912,4.912,0,0,0-4.9,4.9V38.984a4.912,4.912,0,0,0,4.9,4.9H23.907v3.066H18.78a.8.8,0,0,0-.806.806V52.9a.8.8,0,0,0,.806.806h17.9a.8.8,0,0,0,.806-.806V47.759a.8.8,0,0,0-.806-.806H32.242V43.887H46.668a4.912,4.912,0,0,0,4.9-4.9V10.623a4.912,4.912,0,0,0-4.9-4.9ZM8.783,7.332H46.668a3.3,3.3,0,0,1,3.291,3.291V35.951l-44.467.166V10.623A3.3,3.3,0,0,1,8.783,7.332ZM35.873,52.089H19.586V48.557H35.873ZM30.63,46.945H25.519V43.879H30.63Zm16.038-4.678H8.783a3.3,3.3,0,0,1-3.291-3.291V37.729l44.467-.166v1.421a3.3,3.3,0,0,1-3.291,3.291Z" transform="translate(-3.88 -5.72)" fill="#b1923b"/></g></g></svg>