<svg xmlns="http://www.w3.org/2000/svg" width="125" height="125" viewBox="0 0 125 125">
  <g id="Grupo_1169675" data-name="Grupo 1169675" transform="translate(-789.307 -934.962)">
    <g id="Grupo_1169676" data-name="Grupo 1169676">
      <circle id="Elipse_11495" data-name="Elipse 11495" cx="62.5" cy="62.5" r="62.5" transform="translate(789.307 934.962)" fill="#fff"/>
      <path id="Trazado_1018300" data-name="Trazado 1018300" d="M72.37,42.512H65.242a1.782,1.782,0,0,0-1.782,1.782V74.588a1.782,1.782,0,0,0,1.782,1.782H72.37a1.782,1.782,0,0,0,1.782-1.782V44.294A1.782,1.782,0,0,0,72.37,42.512ZM70.588,72.806H67.024V46.076h3.564Zm16.038-35.64H79.5a1.782,1.782,0,0,0-1.782,1.782v35.64A1.782,1.782,0,0,0,79.5,76.37h7.128a1.782,1.782,0,0,0,1.782-1.782V38.948a1.782,1.782,0,0,0-1.782-1.782Zm-1.782,35.64H81.28V40.73h3.564ZM58.114,47.858H50.986A1.782,1.782,0,0,0,49.2,49.64V74.588a1.782,1.782,0,0,0,1.782,1.782h7.128A1.782,1.782,0,0,0,59.9,74.588V49.64a1.782,1.782,0,0,0-1.782-1.782ZM56.332,72.806H52.768V51.422h3.564ZM79.5,33.6a1.781,1.781,0,0,0,1.547-.9L88.173,20.23a1.782,1.782,0,0,0-1.547-2.666H72.37a1.782,1.782,0,0,0-1.547,2.666l2.631,4.6-26.786,12.5a1.782,1.782,0,1,0,1.507,3.23l27.06-12.61L77.951,32.7a1.781,1.781,0,0,0,1.547.9Zm4.057-12.474-4.057,7.1-4.057-7.1ZM40.294,14H11.782A1.782,1.782,0,0,0,10,15.782V34.973a1.782,1.782,0,0,0,1.782,1.782h9.7l3.042,4.913a1.781,1.781,0,0,0,3.03,0l3.042-4.913h9.7a1.782,1.782,0,0,0,1.782-1.782V15.782A1.782,1.782,0,0,0,40.294,14ZM38.512,33.191H29.6a1.78,1.78,0,0,0-1.515.844l-2.049,3.31-2.049-3.31a1.78,1.78,0,0,0-1.515-.844h-8.91V17.564H38.512ZM17.128,22.91a1.782,1.782,0,0,1,1.782-1.782H33.166a1.782,1.782,0,1,1,0,3.564H18.91A1.782,1.782,0,0,1,17.128,22.91Zm0,5.346a1.782,1.782,0,0,1,1.782-1.782H33.166a1.782,1.782,0,1,1,0,3.564H18.91A1.782,1.782,0,0,1,17.128,28.256ZM24.256,58.55v1.782H27.82A3.568,3.568,0,0,1,31.384,63.9v1.782a3.568,3.568,0,0,1-3.564,3.564,1.782,1.782,0,1,1-3.564,0H22.474a1.782,1.782,0,1,1,0-3.564H27.82V63.9H24.256a3.568,3.568,0,0,1-3.564-3.564V58.55a3.568,3.568,0,0,1,3.564-3.564,1.782,1.782,0,0,1,3.564,0H29.6a1.782,1.782,0,1,1,0,3.564Zm1.782-12.474A16.038,16.038,0,1,0,42.076,62.114,16.038,16.038,0,0,0,26.038,46.076Zm0,28.512A12.474,12.474,0,1,1,38.512,62.114,12.474,12.474,0,0,1,26.038,74.588Z" transform="translate(803.592 951.755)" fill="#8f85b2"/>
    </g>
  </g>
</svg>
