<svg xmlns="http://www.w3.org/2000/svg" width="85" height="85" viewBox="0 0 85 85">
  <g id="Grupo_1169580" data-name="Grupo 1169580" transform="translate(-810 -3989.5)">
    <circle id="Elipse_11503" data-name="Elipse 11503" cx="42.5" cy="42.5" r="42.5" transform="translate(810 3989.5)" fill="#ffd256"/>
    <g id="Layer_7" transform="translate(830.9 4009.4)">
      <path id="Trazado_1014377" data-name="Trazado 1014377" d="M22.6,1.1A21.524,21.524,0,0,0,1.1,22.6a5.273,5.273,0,0,0,.02.544A1.3,1.3,0,1,0,3.7,22.892c-.009-.1-.007-.19-.007-.291A18.9,18.9,0,1,1,22.6,41.5c-.1,0-.193,0-.293-.007a1.3,1.3,0,0,0-.253,2.584,5.315,5.315,0,0,0,.545.02,21.5,21.5,0,0,0,0-43Z" fill="#7e682a"/>
      <path id="Trazado_1014378" data-name="Trazado 1014378" d="M16.4,7.756a1.3,1.3,0,0,0-1.3,1.3v10.6a1.3,1.3,0,0,0,.5,1.027l6.765,5.231a1.3,1.3,0,0,0,1.589-2.055L17.7,19.014V9.055a1.3,1.3,0,0,0-1.3-1.3Z" transform="translate(6.201 2.948)" fill="#7e682a"/>
      <path id="Trazado_1014379" data-name="Trazado 1014379" d="M10.215,18.267a9.114,9.114,0,1,0,9.115,9.115,9.124,9.124,0,0,0-9.115-9.115Zm0,15.632a6.518,6.518,0,1,1,6.518-6.518A6.526,6.526,0,0,1,10.215,33.9Z" transform="translate(0 7.604)" fill="#7e682a"/>
      <path id="Trazado_1014380" data-name="Trazado 1014380" d="M11.312,24.506H9.934V23.128a1.3,1.3,0,0,0-2.6,0v1.378H5.962a1.3,1.3,0,1,0,0,2.6H7.338V28.48a1.3,1.3,0,0,0,2.6,0V27.1h1.378a1.3,1.3,0,1,0,0-2.6Z" transform="translate(1.578 9.182)" fill="#7e682a"/>
    </g>
  </g>
</svg>
