<svg xmlns="http://www.w3.org/2000/svg" width="85" height="85" viewBox="0 0 85 85">
  <g id="Grupo_1169582" data-name="Grupo 1169582" transform="translate(-180 -2081.5)">
    <circle id="Elipse_11508" data-name="Elipse 11508" cx="42.5" cy="42.5" r="42.5" transform="translate(180 2081.5)" fill="#ffd256"/>
    <g id="portapapeles" transform="translate(197.5 2099.586)">
      <path id="Trazado_1016512" data-name="Trazado 1016512" d="M314.167,233.717l-2.441,2.441-.959-.959a.741.741,0,1,0-1.048,1.048l1.483,1.483a.741.741,0,0,0,1.048,0l2.966-2.966a.741.741,0,1,0-1.049-1.048Z" transform="translate(-281.129 -210.417)" fill="#b1923b"/>
      <path id="Trazado_1016513" data-name="Trazado 1016513" d="M311.2,177.732a.741.741,0,0,0,1.049,0l2.966-2.966a.741.741,0,1,0-1.048-1.048l-2.442,2.441-.959-.959a.741.741,0,0,0-1.048,1.048Z" transform="translate(-281.128 -156.348)" fill="#b1923b"/>
      <path id="Trazado_1016514" data-name="Trazado 1016514" d="M311.2,297.732a.741.741,0,0,0,1.049,0l2.966-2.966a.741.741,0,0,0-1.048-1.049l-2.442,2.442-.959-.959a.741.741,0,0,0-1.048,1.048Z" transform="translate(-281.128 -264.485)" fill="#b1923b"/>
      <path id="Trazado_1016515" data-name="Trazado 1016515" d="M189.241,249.983h9a.741.741,0,0,0,0-1.483h-9a.741.741,0,0,0,0,1.483Z" transform="translate(-172.09 -223.934)" fill="#b1923b"/>
      <path id="Trazado_1016516" data-name="Trazado 1016516" d="M189.242,189.984h9a.741.741,0,1,0,0-1.483h-9a.741.741,0,0,0,0,1.483Z" transform="translate(-172.09 -169.866)" fill="#b1923b"/>
      <path id="Trazado_1016517" data-name="Trazado 1016517" d="M198.239,308.5h-9a.741.741,0,0,0,0,1.483h9a.741.741,0,1,0,0-1.483Z" transform="translate(-172.09 -278.002)" fill="#b1923b"/>
      <path id="Trazado_1016518" data-name="Trazado 1016518" d="M64.96,1.483H52.18a5.182,5.182,0,0,0-7.258,0H32.139A3.711,3.711,0,0,0,28.431,5.19V36.528a.741.741,0,1,0,1.483,0V5.19a2.227,2.227,0,0,1,2.224-2.224H43.861a5.148,5.148,0,0,0-.448,1.483H32.139a.741.741,0,0,0-.741.741V38.753H23.241a.741.741,0,0,0-.741.741,5.2,5.2,0,0,0,5.19,5.19h.741v2.224a3.707,3.707,0,0,0,3.707,3.707H64.96a3.712,3.712,0,0,0,3.707-3.707V5.19A3.712,3.712,0,0,0,64.96,1.483ZM44.1,8.9a.741.741,0,0,0,.741-.741V5.19a3.707,3.707,0,0,1,7.414,0V8.156A.742.742,0,0,0,53,8.9h1.483a2.228,2.228,0,0,1,2.1,1.483H40.521a2.228,2.228,0,0,1,2.1-1.483Zm-.741-2.966V7.414h-.741a3.711,3.711,0,0,0-3.707,3.707.742.742,0,0,0,.741.741H57.447a.741.741,0,0,0,.741-.741,3.712,3.712,0,0,0-3.707-3.707h-.741V5.932H64.218V39.494a3.707,3.707,0,0,1-7.414,0,.742.742,0,0,0-.741-.741H32.88V5.932ZM27.69,43.2a3.713,3.713,0,0,1-3.633-2.966H55.374A5.171,5.171,0,0,0,56.882,43.2Zm39.494,3.707a2.227,2.227,0,0,1-2.224,2.224H32.139a2.224,2.224,0,0,1-2.224-2.224V44.684h30.6a5.19,5.19,0,0,0,5.19-5.19V5.19a.742.742,0,0,0-.742-.742H53.686a5.137,5.137,0,0,0-.445-1.483H64.96A2.227,2.227,0,0,1,67.184,5.19Z" transform="translate(-22.5)" fill="#b1923b"/>
      <path id="Trazado_1016519" data-name="Trazado 1016519" d="M265.724,34.449a2.227,2.227,0,1,0-1.572-.652A2.227,2.227,0,0,0,265.724,34.449ZM265.2,31.7a.742.742,0,1,1-.217.524A.736.736,0,0,1,265.2,31.7Z" transform="translate(-239.675 -27.034)" fill="#b1923b"/>
    </g>
  </g>
</svg>
