<svg xmlns="http://www.w3.org/2000/svg" width="125" height="125" viewBox="0 0 125 125">
  <g id="Grupo_1169678" data-name="Grupo 1169678" transform="translate(-11301.307 10706.863)">
    <circle id="Elipse_11509" data-name="Elipse 11509" cx="62.5" cy="62.5" r="62.5" transform="translate(11301.307 -10706.863)" fill="#fff"/>
    <g id="atrraction2" transform="translate(11333 -10687.036)">
      <path id="Trazado_1018298" data-name="Trazado 1018298" d="M45.13,23.354V21.776H41.975a3.159,3.159,0,0,1-3.155-3.155V17.043a3.159,3.159,0,0,1,3.155-3.155,1.578,1.578,0,0,1,3.155,0h1.578a1.578,1.578,0,1,1,0,3.155H41.975v1.578H45.13a3.159,3.159,0,0,1,3.155,3.155v1.578a3.159,3.159,0,0,1-3.155,3.155,1.578,1.578,0,0,1-3.155,0H40.4a1.578,1.578,0,1,1,0-3.155ZM29.354,20.2a14.2,14.2,0,1,1,14.2,14.2,14.2,14.2,0,0,1-14.2-14.2Zm3.155,0A11.043,11.043,0,1,0,43.553,9.155,11.043,11.043,0,0,0,32.509,20.2Zm42.6,18.931V64.372A23.691,23.691,0,0,1,51.441,88.036H35.664A23.691,23.691,0,0,1,12,64.372V39.13a1.577,1.577,0,0,1,1.578-1.578H24.621A1.577,1.577,0,0,1,26.2,39.13V62.794A11.056,11.056,0,0,0,37.242,73.838H49.863A11.056,11.056,0,0,0,60.906,62.794V39.13a1.577,1.577,0,0,1,1.578-1.578H73.527a1.577,1.577,0,0,1,1.578,1.578ZM15.155,48.6h7.888V40.708H15.155ZM71.95,51.751H64.062V62.794a14.215,14.215,0,0,1-14.2,14.2H37.242a14.215,14.215,0,0,1-14.2-14.2V51.751H15.155V64.372A20.532,20.532,0,0,0,35.664,84.881H51.441A20.532,20.532,0,0,0,71.95,64.372Zm0-11.043H64.062V48.6H71.95ZM16.733,35.975A1.577,1.577,0,0,0,18.311,34.4V29.664a1.578,1.578,0,0,0-3.155,0V34.4a1.577,1.577,0,0,0,1.578,1.578Zm4.733,0A1.577,1.577,0,0,0,23.043,34.4V29.664a1.578,1.578,0,0,0-3.155,0V34.4a1.577,1.577,0,0,0,1.578,1.578Zm44.174,0A1.577,1.577,0,0,0,67.217,34.4V29.664a1.578,1.578,0,0,0-3.155,0V34.4a1.577,1.577,0,0,0,1.578,1.578Zm4.733,0A1.577,1.577,0,0,0,71.95,34.4V29.664a1.578,1.578,0,0,0-3.155,0V34.4a1.577,1.577,0,0,0,1.578,1.578Z" transform="translate(-12 -6)" fill="#8f85b2"/>
    </g>
  </g>
</svg>
