<svg xmlns="http://www.w3.org/2000/svg" width="125" height="125" viewBox="0 0 125 125">
  <g id="Grupo_1169574" data-name="Grupo 1169574" transform="translate(-800 -1768.5)">
    <circle id="Elipse_11495" data-name="Elipse 11495" cx="62.5" cy="62.5" r="62.5" transform="translate(800 1768.5)" fill="#fff"/>
    <g id="alcance-social" transform="translate(828 1795.5)">
      <path id="Trazado_1014353" data-name="Trazado 1014353" d="M63.9,57.8a6.065,6.065,0,0,0-3.525,1.126L55.24,53.79a27.6,27.6,0,0,0,.029-37.57l-.019-.02,5.124-5.124a6.11,6.11,0,1,0-1.45-1.45L53.8,14.75A27.508,27.508,0,0,0,37.248,7.458,1.025,1.025,0,1,0,37.084,9.5a25.463,25.463,0,0,1,15.265,6.7L45.02,23.53a15.223,15.223,0,0,0-19.562-.411q-.246.2-.483.406L17.652,16.2A25.468,25.468,0,0,1,32.785,9.513,1.025,1.025,0,0,0,32.61,7.47,27.515,27.515,0,0,0,16.2,14.75L11.075,9.625a6.11,6.11,0,1,0-1.45,1.45L14.75,16.2l-.065.068A27.6,27.6,0,0,0,14.76,53.79L9.625,58.925a6.1,6.1,0,1,0,1.954,7.662,1.025,1.025,0,0,0-1.841-.9,4.05,4.05,0,1,1,.043-3.476,1.025,1.025,0,1,0,1.862-.859,6.061,6.061,0,0,0-.565-.975L16.21,55.24a27.577,27.577,0,0,0,37.58,0l5.135,5.135A6.1,6.1,0,1,0,63.9,57.8ZM60.581,35A25.483,25.483,0,0,1,53.79,52.339l-7.32-7.32a15.207,15.207,0,0,0,0-20.04L53.8,17.651A25.5,25.5,0,0,1,60.581,35ZM63.9,2.051a4.05,4.05,0,1,1-4.05,4.05,4.054,4.054,0,0,1,4.05-4.05Zm-57.8,8.1A4.05,4.05,0,1,1,10.15,6.1,4.054,4.054,0,0,1,6.1,10.151ZM9.419,35a25.5,25.5,0,0,1,6.774-17.341l.008-.008,7.327,7.327a15.269,15.269,0,0,0-3.369,6.558,1.025,1.025,0,0,0,2,.465,13.243,13.243,0,0,1,4.588-7.283A13.042,13.042,0,0,1,35,21.813,13.186,13.186,0,1,1,21.881,36.35a1.025,1.025,0,0,0-2.04.207,15.18,15.18,0,0,0,3.683,8.469L16.21,52.339A25.484,25.484,0,0,1,9.419,35ZM35,60.581A25.483,25.483,0,0,1,17.66,53.79l7.315-7.315A15.222,15.222,0,0,0,45.02,46.47l7.32,7.32A25.483,25.483,0,0,1,35,60.581Zm28.9,7.368a4.05,4.05,0,1,1,4.05-4.05A4.054,4.054,0,0,1,63.9,67.949Z" transform="translate(0 0)" fill="#8f85b2"/>
      <path id="Trazado_1014354" data-name="Trazado 1014354" d="M213.019,206.61h8.8a1.709,1.709,0,0,0,1.685-1.992l-.6-3.546a5.552,5.552,0,0,0-2.423-3.728,4.715,4.715,0,0,0,1.659-3.591v-1.005a4.726,4.726,0,0,0-9.451,0v1.005a4.715,4.715,0,0,0,1.659,3.591,5.552,5.552,0,0,0-2.423,3.728l-.6,3.546a1.709,1.709,0,0,0,1.685,1.992Zm1.726-12.857v-1.005a2.675,2.675,0,0,1,5.35,0v1.005a2.675,2.675,0,0,1-5.35,0Zm-.793,7.659a3.516,3.516,0,0,1,6.935,0l.529,3.147h-7.994Z" transform="translate(-182.42 -162.316)" fill="#8f85b2"/>
    </g>
  </g>
</svg>
